<svg xmlns="http://www.w3.org/2000/svg" xmlns:xlink="http://www.w3.org/1999/xlink" width="500" zoomAndPan="magnify" viewBox="0 0 375 374.999991" height="500" preserveAspectRatio="xMidYMid meet" version="1.0"><path fill="#ffffff" d="M 181.832031 313.953125 C 164.128906 313.308594 153.171875 308.0625 150.386719 298.894531 L 150.0625 297.828125 L 150.015625 279.859375 C 149.964844 259.289062 149.980469 258.871094 151.078125 255.597656 C 153.078125 249.621094 157.804688 245.765625 165.199219 244.085938 L 166.832031 243.714844 L 187.160156 243.625 C 201.726562 243.5625 207.765625 243.488281 208.460938 243.367188 C 212.53125 242.667969 215.203125 241.617188 217.710938 239.730469 C 220.703125 237.476562 223.175781 233.621094 224.28125 229.480469 C 225.109375 226.371094 225.089844 226.710938 225.179688 215.78125 L 225.261719 205.625 L 239.902344 205.625 L 241.324219 206.019531 C 248.941406 208.148438 254.472656 215.359375 256.828125 226.238281 C 257.734375 230.421875 257.742188 230.578125 257.742188 241.25 C 257.746094 251.636719 257.742188 251.730469 257.015625 255.136719 C 256.300781 258.484375 255.367188 261.210938 253.96875 264.015625 C 251.152344 269.675781 247.003906 273.503906 241.753906 275.285156 C 238.753906 276.300781 241.261719 276.214844 211.757812 276.300781 L 185.171875 276.378906 L 185.171875 281.207031 L 202.800781 281.277344 L 220.425781 281.347656 L 220.5 290.015625 C 220.539062 294.78125 220.519531 299.089844 220.460938 299.589844 C 220.316406 300.800781 219.800781 302.234375 219.066406 303.484375 C 218.3125 304.773438 216.015625 307.074219 214.457031 308.109375 C 209.722656 311.246094 202.503906 313.160156 192.992188 313.800781 C 189.789062 314.015625 185.257812 314.074219 181.832031 313.953125 Z M 206.28125 302.722656 C 209.679688 302.171875 212.113281 298.847656 211.550781 295.523438 C 211.089844 292.777344 208.96875 290.65625 206.242188 290.203125 C 202.074219 289.511719 198.28125 293.335938 199.023438 297.484375 C 199.5625 300.5 201.984375 302.625 205.144531 302.855469 C 205.261719 302.863281 205.773438 302.804688 206.28125 302.722656 Z M 206.28125 302.722656 " fill-opacity="1" fill-rule="nonzero"/><path fill="#3e3e3e" d="M 146.5625 298.355469 L 146.515625 279.867188 C 146.488281 269.632812 146.480469 264.277344 146.621094 261.089844 C 146.769531 257.664062 147.113281 256.417969 147.757812 254.484375 L 151.078125 255.597656 C 149.980469 258.871094 149.964844 259.289062 150.015625 279.859375 L 150.0625 297.828125 L 150.386719 298.894531 C 153.171875 308.0625 164.128906 313.308594 181.832031 313.953125 C 185.257812 314.074219 189.789062 314.015625 192.992188 313.800781 C 202.503906 313.160156 209.722656 311.246094 214.457031 308.109375 C 216.015625 307.074219 218.3125 304.773438 219.066406 303.484375 C 219.800781 302.234375 220.316406 300.800781 220.460938 299.589844 C 220.519531 299.089844 220.539062 294.78125 220.5 290.015625 L 220.425781 281.347656 L 185.171875 281.207031 L 185.171875 276.378906 L 211.757812 276.300781 C 236.703125 276.230469 238.761719 276.28125 240.617188 275.683594 C 240.957031 275.574219 241.289062 275.441406 241.753906 275.285156 C 247.003906 273.503906 251.152344 269.675781 253.96875 264.015625 C 255.367188 261.210938 256.300781 258.484375 257.015625 255.136719 C 257.742188 251.730469 257.746094 251.636719 257.742188 241.25 C 257.742188 230.578125 257.734375 230.421875 256.828125 226.238281 C 254.472656 215.359375 248.941406 208.148438 241.324219 206.019531 L 239.902344 205.625 L 225.261719 205.625 L 225.179688 215.78125 C 225.109375 224.054688 225.105469 225.871094 224.75 227.613281 C 224.632812 228.171875 224.484375 228.722656 224.28125 229.480469 C 223.175781 233.621094 220.703125 237.476562 217.710938 239.730469 C 215.203125 241.617188 212.53125 242.667969 208.460938 243.367188 C 207.765625 243.488281 201.726562 243.5625 187.160156 243.625 L 166.832031 243.714844 L 165.199219 244.085938 C 157.804688 245.765625 153.078125 249.621094 151.078125 255.597656 L 147.757812 254.484375 C 150.230469 247.097656 156.121094 242.558594 164.421875 240.671875 L 166.433594 240.21875 L 187.148438 240.125 C 194.429688 240.09375 199.566406 240.058594 202.96875 240.015625 C 204.671875 239.996094 205.925781 239.976562 206.789062 239.949219 C 207.316406 239.9375 207.621094 239.921875 207.777344 239.914062 C 207.921875 239.90625 207.933594 239.90625 207.867188 239.917969 C 211.554688 239.28125 213.660156 238.398438 215.605469 236.933594 C 217.886719 235.21875 219.964844 232.078125 220.898438 228.578125 C 220.917969 228.507812 220.933594 228.441406 220.953125 228.375 C 221.316406 227.011719 221.433594 226.582031 221.515625 225.335938 C 221.613281 223.847656 221.632812 221.460938 221.671875 216.3125 L 221.789062 202.125 L 240.382812 202.125 L 242.265625 202.648438 C 251.621094 205.261719 257.746094 213.9375 260.246094 225.496094 C 260.707031 227.609375 260.984375 228.917969 261.117188 231.097656 C 261.242188 233.128906 261.242188 235.972656 261.242188 241.25 L 261.242188 241.273438 C 261.246094 246.398438 261.246094 249.132812 261.148438 250.996094 C 261.039062 253.023438 260.808594 254.117188 260.4375 255.867188 C 259.667969 259.476562 258.640625 262.484375 257.101562 265.574219 C 253.9375 271.933594 249.125 276.476562 242.875 278.597656 C 242.785156 278.628906 242.671875 278.671875 242.546875 278.714844 C 242.074219 278.886719 241.394531 279.132812 240.671875 279.285156 C 239.707031 279.488281 238.558594 279.582031 236.8125 279.640625 C 234.464844 279.71875 230.617188 279.746094 223.914062 279.765625 L 224 289.988281 C 224.019531 292.382812 224.023438 294.664062 224.015625 296.417969 C 224.011719 297.292969 224.007812 298.042969 223.996094 298.613281 C 223.988281 299.078125 223.976562 299.660156 223.9375 300.007812 C 223.722656 301.777344 223.019531 303.671875 222.085938 305.257812 C 221.476562 306.292969 220.460938 307.441406 219.539062 308.363281 C 218.589844 309.320312 217.441406 310.328125 216.390625 311.023438 C 210.914062 314.65625 202.980469 316.636719 193.222656 317.292969 C 189.894531 317.515625 185.242188 317.578125 181.703125 317.449219 C 172.585938 317.117188 164.894531 315.597656 159.003906 312.777344 C 153.050781 309.929688 148.785156 305.660156 147.035156 299.914062 Z M 205.722656 299.265625 C 207.269531 299.015625 208.328125 297.449219 208.101562 296.101562 C 207.886719 294.820312 206.914062 293.863281 205.667969 293.65625 C 203.871094 293.359375 202.15625 295.117188 202.46875 296.867188 C 202.703125 298.175781 203.664062 299.15625 205.183594 299.34375 C 205.332031 299.324219 205.523438 299.296875 205.722656 299.265625 Z M 206.28125 302.722656 L 205.722656 299.265625 Z M 206.28125 302.722656 L 205.722656 299.265625 M 206.28125 302.722656 C 209.679688 302.171875 212.113281 298.847656 211.550781 295.523438 C 211.089844 292.777344 208.96875 290.65625 206.242188 290.203125 C 202.074219 289.511719 198.28125 293.335938 199.023438 297.484375 C 199.5625 300.5 201.984375 302.625 205.144531 302.855469 C 205.261719 302.863281 205.773438 302.804688 206.28125 302.722656 Z M 206.28125 302.722656 " fill-opacity="1" fill-rule="evenodd"/><path fill="#009acd" d="M 131.34375 277.085938 C 127.34375 276.359375 123.40625 273.9375 120.625 270.492188 C 115.355469 263.96875 112.695312 253.09375 113.027344 239.4375 C 113.234375 230.929688 114.507812 224.609375 117.097656 219.238281 C 120.4375 212.308594 125.425781 208.203125 132.15625 206.835938 C 133.632812 206.535156 133.707031 206.535156 159.679688 206.542969 C 174.007812 206.550781 185.832031 206.515625 185.960938 206.464844 C 186.164062 206.386719 186.191406 206.070312 186.191406 203.976562 C 186.191406 202.65625 186.175781 201.558594 186.15625 201.539062 C 186.136719 201.523438 178.191406 201.472656 168.492188 201.433594 L 150.867188 201.363281 L 150.828125 192.207031 C 150.789062 182.175781 150.78125 182.292969 151.640625 180.453125 C 154.617188 174.066406 163.390625 170.1875 177.449219 169.039062 C 178.464844 168.957031 181.21875 168.851562 183.5625 168.804688 C 199.128906 168.5 210.542969 171.34375 216.546875 177.023438 C 217.210938 177.652344 218.078125 178.589844 218.472656 179.109375 C 219.367188 180.289062 220.484375 182.539062 220.910156 184.027344 L 221.234375 185.164062 L 221.234375 204.0625 C 221.234375 221.699219 221.21875 223.046875 220.976562 224.308594 C 220.667969 225.933594 219.925781 228.21875 219.304688 229.445312 C 217.15625 233.699219 213.203125 236.765625 207.960938 238.238281 C 204.554688 239.195312 206.101562 239.132812 183.5625 239.230469 C 161.179688 239.328125 162.535156 239.273438 159.394531 240.160156 C 153.300781 241.882812 148.824219 246.625 147.003906 253.289062 C 146.1875 256.285156 146.203125 256.003906 146.117188 267 L 146.03125 277.230469 L 139.207031 277.253906 C 134.058594 277.269531 132.128906 277.230469 131.34375 277.085938 Z M 168.605469 192.09375 C 171.191406 190.878906 172.75 188.03125 172.28125 185.375 C 171.851562 182.921875 170.167969 180.964844 167.878906 180.261719 C 164.226562 179.132812 160.417969 181.460938 159.742188 185.230469 C 159.195312 188.292969 160.96875 191.277344 163.96875 192.339844 C 164.640625 192.574219 165.070312 192.621094 166.21875 192.589844 C 167.472656 192.550781 167.757812 192.492188 168.605469 192.09375 Z M 168.605469 192.09375 " fill-opacity="1" fill-rule="nonzero"/><path fill="#3e3e3e" d="M 220.976562 224.308594 C 220.667969 225.933594 219.925781 228.21875 219.304688 229.445312 C 217.15625 233.699219 213.203125 236.765625 207.960938 238.238281 C 207.355469 238.410156 206.90625 238.546875 206.453125 238.65625 C 204.34375 239.179688 202.101562 239.148438 183.5625 239.230469 C 164.890625 239.3125 162.738281 239.289062 160.714844 239.792969 C 160.3125 239.894531 159.914062 240.015625 159.394531 240.160156 C 153.300781 241.882812 148.824219 246.625 147.003906 253.289062 C 146.8125 253.992188 146.667969 254.511719 146.554688 255.042969 C 146.191406 256.773438 146.183594 258.578125 146.117188 267 L 146.03125 277.230469 L 139.207031 277.253906 C 134.058594 277.269531 132.128906 277.230469 131.34375 277.085938 C 127.34375 276.359375 123.40625 273.9375 120.625 270.492188 C 115.355469 263.96875 112.695312 253.09375 113.027344 239.4375 C 113.234375 230.929688 114.507812 224.609375 117.097656 219.238281 C 120.4375 212.308594 125.425781 208.203125 132.15625 206.835938 C 133.632812 206.535156 133.707031 206.535156 159.679688 206.542969 C 174.007812 206.550781 185.832031 206.515625 185.960938 206.464844 C 186.164062 206.386719 186.191406 206.070312 186.191406 203.976562 C 186.191406 202.65625 186.175781 201.558594 186.15625 201.539062 C 186.136719 201.523438 178.191406 201.472656 168.492188 201.433594 L 150.867188 201.363281 L 150.828125 192.207031 C 150.796875 184.019531 150.785156 182.59375 151.25 181.34375 C 151.355469 181.0625 151.484375 180.789062 151.640625 180.453125 C 154.617188 174.066406 163.390625 170.1875 177.449219 169.039062 C 178.464844 168.957031 181.21875 168.851562 183.5625 168.804688 C 199.128906 168.5 210.542969 171.34375 216.546875 177.023438 C 217.210938 177.652344 218.078125 178.589844 218.472656 179.109375 C 219.367188 180.289062 220.484375 182.539062 220.910156 184.027344 L 221.234375 185.164062 L 221.234375 204.0625 C 221.234375 221.699219 221.21875 223.046875 220.976562 224.308594 Z M 148.46875 178.972656 C 150.425781 174.777344 154.152344 171.714844 158.972656 169.582031 C 163.785156 167.453125 169.914062 166.144531 177.164062 165.550781 C 178.300781 165.460938 181.144531 165.351562 183.496094 165.304688 C 199.253906 164.996094 211.894531 167.804688 218.949219 174.480469 C 219.703125 175.191406 220.710938 176.273438 221.257812 176.992188 C 222.429688 178.53125 223.734375 181.175781 224.273438 183.066406 L 224.734375 184.675781 L 224.734375 204.0625 C 224.734375 212.867188 224.730469 217.644531 224.695312 220.371094 C 224.664062 223.046875 224.601562 223.988281 224.417969 224.960938 C 224.058594 226.84375 223.222656 229.449219 222.429688 231.023438 C 219.777344 236.285156 214.945312 239.914062 208.90625 241.609375 C 208.765625 241.648438 208.621094 241.691406 208.472656 241.730469 C 207.882812 241.902344 207.238281 242.089844 206.53125 242.222656 C 205.601562 242.398438 204.574219 242.492188 203.078125 242.554688 C 200.476562 242.660156 195.984375 242.679688 187.210938 242.714844 C 186.074219 242.71875 184.863281 242.722656 183.578125 242.730469 C 182.46875 242.734375 181.421875 242.738281 180.425781 242.742188 C 171.339844 242.78125 166.898438 242.800781 164.398438 242.898438 C 163.03125 242.949219 162.398438 243.023438 161.976562 243.097656 C 161.628906 243.160156 161.394531 243.230469 160.890625 243.375 C 160.738281 243.417969 160.558594 243.46875 160.347656 243.53125 C 155.558594 244.882812 151.910156 248.601562 150.382812 254.210938 C 150.363281 254.269531 150.347656 254.328125 150.335938 254.382812 C 149.976562 255.695312 149.863281 256.113281 149.78125 257.371094 C 149.679688 258.882812 149.660156 261.332031 149.617188 266.609375 L 149.503906 280.71875 L 139.21875 280.753906 C 136.644531 280.761719 134.835938 280.757812 133.566406 280.730469 C 132.371094 280.703125 131.425781 280.660156 130.71875 280.53125 C 125.816406 279.640625 121.160156 276.726562 117.902344 272.695312 C 111.871094 265.226562 109.1875 253.351562 109.527344 239.351562 C 109.746094 230.542969 111.070312 223.6875 113.945312 217.71875 C 117.695312 209.941406 123.515625 205.019531 131.460938 203.402344 C 132.554688 203.183594 133.234375 203.109375 136.695312 203.074219 C 138.832031 203.050781 142.128906 203.042969 147.371094 203.042969 L 147.328125 192.21875 C 147.328125 192.03125 147.328125 191.84375 147.328125 191.660156 C 147.308594 187.09375 147.296875 184.574219 147.40625 183.019531 C 147.464844 182.148438 147.570312 181.402344 147.789062 180.664062 C 147.980469 180.011719 148.238281 179.464844 148.425781 179.066406 C 148.441406 179.035156 148.453125 179.003906 148.46875 178.972656 Z M 172.28125 185.375 C 171.851562 182.921875 170.167969 180.964844 167.878906 180.261719 C 164.226562 179.132812 160.417969 181.460938 159.742188 185.230469 C 159.195312 188.292969 160.96875 191.277344 163.96875 192.339844 C 164.640625 192.574219 165.070312 192.621094 166.21875 192.589844 C 167.472656 192.550781 167.757812 192.492188 168.605469 192.09375 C 171.191406 190.878906 172.75 188.03125 172.28125 185.375 Z M 166.832031 189.050781 C 166.8125 189.054688 166.777344 189.058594 166.726562 189.0625 C 166.597656 189.074219 166.414062 189.082031 166.117188 189.089844 C 165.570312 189.105469 165.378906 189.09375 165.300781 189.085938 C 165.277344 189.082031 165.273438 189.082031 165.269531 189.082031 C 165.261719 189.078125 165.226562 189.070312 165.132812 189.039062 C 163.695312 188.53125 162.953125 187.167969 163.1875 185.84375 C 163.492188 184.140625 165.210938 183.097656 166.847656 183.605469 C 167.816406 183.902344 168.621094 184.757812 168.835938 185.980469 C 169.007812 186.957031 168.394531 188.328125 167.117188 188.925781 C 166.957031 189 166.871094 189.035156 166.832031 189.050781 Z M 166.804688 189.0625 C 166.804688 189.0625 166.808594 189.0625 166.8125 189.058594 C 166.808594 189.0625 166.804688 189.0625 166.804688 189.0625 Z M 166.804688 189.0625 " fill-opacity="1" fill-rule="evenodd"/><path fill="#3e3e3e" d="M 164.746094 75.90625 C 165.15625 63.320312 165.460938 62.125 169.039062 58.984375 C 172.203125 56.203125 174.640625 57.246094 177.265625 62.496094 C 178.390625 64.742188 178.800781 66.261719 178.800781 68.171875 C 178.800781 71.433594 179.277344 73.90625 179.90625 73.90625 C 180.171875 73.90625 181.804688 72.542969 183.542969 70.875 L 186.695312 67.84375 L 192.425781 73.519531 C 195.574219 76.640625 198.410156 79.675781 198.726562 80.269531 C 199.042969 80.855469 199.300781 83.152344 199.300781 85.371094 C 199.300781 87.589844 199.507812 89.40625 199.765625 89.40625 C 200.019531 89.40625 201.03125 90.164062 202.015625 91.089844 L 203.800781 92.773438 L 203.808594 98.964844 C 203.8125 102.367188 203.980469 105.414062 204.183594 105.734375 C 204.386719 106.054688 205.511719 106.699219 206.683594 107.167969 C 209.339844 108.230469 210.578125 109.945312 212.015625 114.546875 L 212.644531 122.359375 C 212.214844 122.789062 212.050781 126.890625 212.050781 137.296875 L 212.050781 151.640625 L 215.300781 152.195312 C 217.085938 152.5 220.6875 153.023438 223.300781 153.359375 C 229.125 154.105469 231.300781 154.753906 231.300781 155.730469 C 231.300781 156.542969 229.570312 158.332031 226.640625 160.550781 L 224.800781 161.949219 L 224.800781 173.109375 L 220.800781 169.203125 L 220.800781 161.183594 L 222.925781 159.34375 C 224.09375 158.332031 224.886719 157.339844 224.683594 157.132812 C 224.484375 156.925781 220.792969 156.234375 216.484375 155.589844 C 212.175781 154.949219 208.601562 154.363281 208.539062 154.289062 C 208.476562 154.214844 208.605469 145.71875 208.824219 135.40625 C 209.238281 115.777344 209.070312 113.269531 207.210938 111.5625 C 206.667969 111.0625 205.058594 110.09375 203.636719 109.40625 L 201.050781 108.15625 L 200.550781 93.65625 L 198.488281 92.722656 L 196.429688 91.789062 L 196.1875 86.800781 L 195.949219 81.808594 L 191.410156 77.269531 L 186.871094 72.734375 L 185.210938 74.015625 C 184.296875 74.722656 182.15625 76.617188 180.457031 78.226562 C 177.398438 81.121094 177.359375 81.195312 176.949219 84.65625 C 176.570312 87.867188 176.484375 87.269531 175.90625 77.378906 C 175.203125 65.382812 174.875 63.617188 173.015625 61.875 L 171.734375 60.667969 L 170.742188 61.910156 C 168.144531 65.175781 168.285156 64.015625 167.746094 86.726562 L 167.238281 108.15625 L 165.820312 109.40625 C 165.039062 110.09375 163.769531 111.636719 162.996094 112.839844 L 161.589844 115.023438 L 161.886719 155.65625 L 157.71875 157.746094 C 155.425781 158.894531 152.3125 160.226562 150.800781 160.707031 C 149.289062 161.183594 147.925781 161.761719 147.773438 161.984375 C 147.625 162.207031 147.6875 164.324219 147.914062 166.683594 C 148.300781 170.730469 148.257812 171.0625 147.1875 172.375 C 146.5625 173.144531 145.78125 174.195312 145.453125 174.714844 C 144.964844 175.488281 144.839844 174.859375 144.742188 171.15625 C 144.585938 165.027344 144.601562 165.15625 143.859375 163.765625 C 143.269531 162.664062 143.34375 162.320312 144.546875 160.5 C 145.691406 158.773438 146.277344 158.386719 148.464844 157.914062 C 152.375 157.078125 158.265625 153.960938 158.621094 152.542969 C 158.96875 151.171875 158.691406 127.007812 158.335938 122.039062 C 158.308594 122.378906 158.273438 122.203125 158.21875 121.15625 C 158.257812 121.195312 158.296875 121.507812 158.335938 122.039062 C 158.414062 121.015625 158.398438 115.273438 158.535156 114.65625 C 158.882812 113.058594 160.632812 110.207031 162.910156 107.511719 L 164.300781 105.871094 L 164.339844 96.511719 C 164.363281 91.367188 164.546875 82.09375 164.746094 75.90625 Z M 164.746094 75.90625 " fill-opacity="1" fill-rule="nonzero"/><path fill="#3e3e3e" d="M 158.476562 119.265625 C 110.410156 132.0625 75 175.886719 75 227.984375 C 75 260.269531 88.597656 289.375 110.378906 309.890625 C 121.371094 307.40625 132.84375 305.40625 144.695312 303.933594 C 144.300781 303.054688 143.953125 302.140625 143.664062 301.1875 L 143.324219 300.074219 C 132.40625 301.457031 121.808594 303.285156 111.601562 305.523438 C 91.480469 285.820312 79 258.363281 79 227.984375 C 79 178.109375 112.652344 136.09375 158.492188 123.40625 C 158.484375 121.992188 158.476562 120.554688 158.476562 119.265625 Z M 212.039062 122.273438 C 260.144531 133.394531 296 176.503906 296 227.984375 C 296 257.414062 284.289062 284.097656 265.261719 303.648438 C 253.4375 301.390625 241.132812 299.667969 228.457031 298.542969 C 228.453125 298.628906 228.453125 298.714844 228.453125 298.792969 L 228.449219 298.851562 C 228.445312 299.25 228.429688 300.023438 228.363281 300.59375 C 228.285156 301.238281 228.164062 301.882812 228.003906 302.519531 C 241.332031 303.699219 254.238281 305.542969 266.597656 307.984375 C 287.222656 287.589844 300 259.28125 300 227.984375 C 300 174.277344 262.363281 129.359375 212.027344 118.167969 Z M 212.039062 122.273438 " fill-opacity="1" fill-rule="evenodd"/></svg>