<svg xmlns="http://www.w3.org/2000/svg" xmlns:xlink="http://www.w3.org/1999/xlink" width="500" zoomAndPan="magnify" viewBox="0 0 375 187.499995" height="250" preserveAspectRatio="xMidYMid meet" version="1.0"><defs><clipPath id="23b507b4f7"><path d="M 127 80.648438 L 156 80.648438 L 156 106.082031 L 127 106.082031 Z M 127 80.648438 " clip-rule="nonzero"/></clipPath><clipPath id="58a20b785d"><path d="M 21 80.648438 L 354 80.648438 L 354 106.082031 L 21 106.082031 Z M 21 80.648438 " clip-rule="nonzero"/></clipPath></defs><g clip-path="url(#23b507b4f7)"><path fill="#3499cd" d="M 141.789062 106.082031 C 133.320312 106.082031 127.832031 100.039062 127.832031 93.753906 L 127.832031 92.976562 C 127.832031 86.582031 133.320312 80.648438 141.789062 80.648438 C 150.253906 80.648438 155.792969 86.582031 155.792969 92.976562 L 155.792969 93.753906 C 155.792969 100.039062 150.300781 106.082031 141.789062 106.082031 Z M 151.261719 93.042969 C 151.261719 88.460938 147.898438 84.382812 141.789062 84.382812 C 135.675781 84.382812 132.367188 88.464844 132.367188 93.042969 L 132.367188 93.613281 C 132.367188 98.195312 135.730469 102.351562 141.789062 102.351562 C 147.84375 102.351562 151.261719 98.195312 151.261719 93.613281 Z M 151.261719 93.042969 " fill-opacity="1" fill-rule="nonzero"/></g><g clip-path="url(#58a20b785d)"><path fill="#010101" d="M 46.136719 105.15625 L 42.980469 99.292969 L 28.941406 99.292969 L 25.867188 105.15625 L 21.15625 105.15625 L 34.078125 81.5 L 37.8125 81.5 L 50.949219 105.15625 Z M 35.835938 86.117188 L 30.632812 96.066406 L 41.21875 96.066406 Z M 71.335938 106.082031 C 62.753906 106.082031 58.769531 101.460938 58.769531 95.320312 L 58.769531 81.5 L 63.226562 81.5 L 63.226562 95.386719 C 63.226562 99.753906 66.132812 102.351562 71.65625 102.351562 C 77.332031 102.351562 79.660156 99.753906 79.660156 95.386719 L 79.660156 81.5 L 84.148438 81.5 L 84.148438 95.300781 C 84.148438 101.179688 80.378906 106.082031 71.335938 106.082031 Z M 109.128906 85.195312 L 109.128906 105.175781 L 104.640625 105.175781 L 104.640625 85.195312 L 94.195312 85.195312 L 94.195312 81.5 L 119.574219 81.5 L 119.574219 85.195312 Z M 195.773438 105.15625 L 195.773438 86.4375 L 194.589844 88.5 L 184.574219 105.148438 L 182.390625 105.148438 L 172.484375 88.5 L 171.296875 86.4375 L 171.296875 105.15625 L 166.917969 105.15625 L 166.917969 81.5 L 173.128906 81.5 L 182.550781 97.730469 L 183.667969 99.726562 L 184.777344 97.730469 L 194.113281 81.5 L 200.25 81.5 L 200.25 105.15625 Z M 234.179688 105.15625 L 231.019531 99.292969 L 216.992188 99.292969 L 213.945312 105.15625 L 209.234375 105.15625 L 222.15625 81.5 L 225.882812 81.5 L 238.984375 105.15625 Z M 223.878906 86.117188 L 218.675781 96.066406 L 229.261719 96.066406 Z M 257.074219 85.195312 L 257.074219 105.175781 L 252.59375 105.175781 L 252.59375 85.195312 L 242.148438 85.195312 L 242.148438 81.5 L 267.519531 81.5 L 267.519531 85.195312 Z M 289.992188 85.195312 L 289.992188 105.175781 L 285.503906 105.175781 L 285.503906 85.195312 L 275.058594 85.195312 L 275.058594 81.5 L 300.441406 81.5 L 300.441406 85.195312 Z M 311.492188 105.15625 L 311.492188 83.738281 C 313.28125 83.738281 314.003906 82.78125 314.003906 81.5 L 315.921875 81.5 L 315.921875 105.15625 Z M 351.042969 88.179688 C 349.753906 86.964844 348.285156 86.03125 346.636719 85.375 C 344.988281 84.714844 343.273438 84.382812 341.492188 84.378906 C 335.109375 84.378906 331.515625 88.714844 331.515625 93.222656 L 331.515625 93.679688 C 331.515625 98.15625 335.140625 102.339844 341.816406 102.339844 C 343.5625 102.304688 345.246094 101.960938 346.859375 101.304688 C 348.476562 100.648438 349.917969 99.726562 351.183594 98.535156 L 353.875 101.339844 C 352.199219 102.886719 350.289062 104.070312 348.148438 104.890625 C 346.007812 105.710938 343.789062 106.109375 341.492188 106.082031 C 332.449219 106.082031 326.957031 100.253906 326.957031 93.859375 L 326.957031 93.082031 C 326.957031 86.6875 332.953125 80.648438 341.710938 80.648438 C 346.769531 80.648438 351.367188 82.746094 353.824219 85.371094 Z M 142.339844 89.421875 L 138.230469 95.722656 C 138.105469 95.910156 138.023438 96.121094 137.980469 96.34375 C 137.941406 96.566406 137.945312 96.792969 137.992188 97.015625 C 138.039062 97.238281 138.128906 97.441406 138.261719 97.628906 C 138.390625 97.816406 138.554688 97.972656 138.746094 98.097656 L 138.753906 98.097656 C 138.945312 98.222656 139.15625 98.304688 139.382812 98.347656 C 139.609375 98.386719 139.835938 98.382812 140.0625 98.335938 C 140.285156 98.289062 140.492188 98.199219 140.683594 98.070312 C 140.871094 97.941406 141.027344 97.78125 141.152344 97.589844 L 145.265625 91.289062 C 145.390625 91.097656 145.472656 90.890625 145.515625 90.664062 C 145.554688 90.441406 145.550781 90.21875 145.503906 89.996094 C 145.453125 89.773438 145.363281 89.566406 145.234375 89.378906 C 145.101562 89.191406 144.941406 89.035156 144.746094 88.914062 L 144.742188 88.910156 C 144.546875 88.785156 144.339844 88.703125 144.113281 88.664062 C 143.886719 88.621094 143.660156 88.625 143.433594 88.671875 C 143.210938 88.722656 143.003906 88.808594 142.8125 88.941406 C 142.625 89.070312 142.464844 89.230469 142.339844 89.421875 Z M 142.339844 89.421875 " fill-opacity="1" fill-rule="nonzero"/></g></svg>