<svg xmlns="http://www.w3.org/2000/svg" xmlns:xlink="http://www.w3.org/1999/xlink" width="500" zoomAndPan="magnify" viewBox="0 0 375 187.499995" height="250" preserveAspectRatio="xMidYMid meet" version="1.0"><defs><clipPath id="6efa326b49"><path d="M 19.21875 44.863281 L 88 44.863281 L 88 113 L 19.21875 113 Z M 19.21875 44.863281 " clip-rule="nonzero"/></clipPath><clipPath id="71875d3e0f"><path d="M 101 44.863281 L 169 44.863281 L 169 113 L 101 113 Z M 101 44.863281 " clip-rule="nonzero"/></clipPath><clipPath id="1de15fd9bf"><path d="M 182 44.863281 L 234 44.863281 L 234 113 L 182 113 Z M 182 44.863281 " clip-rule="nonzero"/></clipPath><clipPath id="8d1f2bf6aa"><path d="M 232 44.863281 L 292 44.863281 L 292 113 L 232 113 Z M 232 44.863281 " clip-rule="nonzero"/></clipPath><clipPath id="e5ad4458ff"><path d="M 304 44.863281 L 355.78125 44.863281 L 355.78125 113 L 304 113 Z M 304 44.863281 " clip-rule="nonzero"/></clipPath><clipPath id="cf63ee6f1d"><path d="M 177 131 L 189 131 L 189 142.105469 L 177 142.105469 Z M 177 131 " clip-rule="nonzero"/></clipPath><clipPath id="1c5a058c08"><path d="M 227 131 L 239 131 L 239 142.105469 L 227 142.105469 Z M 227 131 " clip-rule="nonzero"/></clipPath><clipPath id="30d605174e"><path d="M 247 131 L 260 131 L 260 142.105469 L 247 142.105469 Z M 247 131 " clip-rule="nonzero"/></clipPath><clipPath id="475851b18f"><path d="M 304 135 L 355.78125 135 L 355.78125 138 L 304 138 Z M 304 135 " clip-rule="nonzero"/></clipPath><clipPath id="7e5adcc5b8"><path d="M 19.21875 135 L 71 135 L 71 138 L 19.21875 138 Z M 19.21875 135 " clip-rule="nonzero"/></clipPath></defs><g clip-path="url(#6efa326b49)"><path fill="#212429" d="M 85.285156 44.863281 L 82.199219 44.863281 C 81.554688 44.863281 80.945312 45.136719 80.519531 45.621094 L 54.152344 75.453125 C 53.757812 75.902344 53 75.902344 52.605469 75.453125 L 26.277344 45.621094 C 25.847656 45.140625 25.238281 44.863281 24.59375 44.863281 L 21.507812 44.863281 C 20.277344 44.863281 19.273438 45.863281 19.273438 47.089844 L 19.273438 110.527344 C 19.273438 111.757812 20.277344 112.753906 21.507812 112.753906 L 32.839844 112.753906 C 34.078125 112.753906 35.078125 111.75 35.078125 110.527344 L 35.078125 79.789062 C 35.078125 79.148438 35.609375 78.757812 36.128906 78.757812 C 36.328125 78.757812 36.621094 78.820312 36.882812 79.097656 L 51.707031 95.5 C 52.554688 96.4375 54.191406 96.4375 55.035156 95.5 L 69.867188 79.09375 C 70.125 78.808594 70.417969 78.746094 70.625 78.746094 C 71.136719 78.746094 71.671875 79.136719 71.671875 79.777344 L 71.710938 110.519531 C 71.710938 111.746094 72.714844 112.746094 73.945312 112.746094 L 85.285156 112.746094 C 86.523438 112.746094 87.523438 111.746094 87.523438 110.519531 L 87.523438 47.089844 C 87.523438 45.859375 86.515625 44.863281 85.285156 44.863281 Z M 85.285156 44.863281 " fill-opacity="1" fill-rule="nonzero"/></g><g clip-path="url(#71875d3e0f)"><path fill="#212429" d="M 143.234375 46.257812 C 142.894531 45.410156 142.082031 44.863281 141.160156 44.863281 L 129.25 44.863281 C 128.328125 44.863281 127.519531 45.410156 127.175781 46.257812 L 101.683594 109.710938 C 101.410156 110.398438 101.496094 111.167969 101.910156 111.78125 C 102.324219 112.394531 103.011719 112.757812 103.757812 112.757812 L 115.839844 112.757812 C 116.765625 112.757812 117.582031 112.207031 117.917969 111.351562 L 121.039062 103.414062 C 121.191406 103.019531 121.570312 102.765625 121.996094 102.765625 L 148.433594 102.765625 C 148.859375 102.765625 149.234375 103.019531 149.390625 103.414062 L 152.511719 111.34375 C 152.847656 112.199219 153.664062 112.757812 154.597656 112.757812 L 166.636719 112.722656 C 167.375 112.722656 168.0625 112.351562 168.476562 111.746094 C 168.890625 111.136719 168.976562 110.363281 168.703125 109.675781 Z M 142.605469 86.574219 C 142.410156 86.859375 142.105469 87.019531 141.757812 87.019531 L 129.117188 87.019531 C 128.769531 87.019531 128.457031 86.855469 128.269531 86.570312 C 128.074219 86.285156 128.035156 85.9375 128.164062 85.617188 L 134.570312 69.675781 C 134.738281 69.273438 135.089844 69.03125 135.523438 69.03125 C 135.863281 69.03125 136.289062 69.203125 136.480469 69.679688 L 142.714844 85.621094 C 142.839844 85.945312 142.800781 86.285156 142.605469 86.570312 Z M 142.605469 86.574219 " fill-opacity="1" fill-rule="nonzero"/></g><g clip-path="url(#1de15fd9bf)"><path fill="#212429" d="M 231.101562 97.886719 L 199.445312 97.886719 C 198.878906 97.886719 198.414062 97.425781 198.414062 96.859375 L 198.414062 47.089844 C 198.414062 45.863281 197.410156 44.863281 196.175781 44.863281 L 184.839844 44.863281 C 183.609375 44.863281 182.601562 45.859375 182.601562 47.089844 L 182.601562 110.53125 C 182.601562 111.757812 183.609375 112.757812 184.839844 112.757812 L 231.105469 112.757812 C 232.34375 112.757812 233.34375 111.757812 233.34375 110.53125 L 233.34375 100.113281 C 233.34375 98.882812 232.339844 97.886719 231.105469 97.886719 Z M 231.101562 97.886719 " fill-opacity="1" fill-rule="nonzero"/></g><g clip-path="url(#8d1f2bf6aa)"><path fill="#212429" d="M 289.453125 44.863281 L 234.472656 44.863281 C 233.234375 44.863281 232.222656 45.863281 232.222656 47.101562 L 232.222656 57.503906 C 232.222656 58.734375 233.226562 59.742188 234.472656 59.742188 L 253.015625 59.742188 C 253.589844 59.742188 254.058594 60.210938 254.058594 60.78125 L 254.058594 110.527344 C 254.058594 111.757812 255.066406 112.765625 256.308594 112.765625 L 267.628906 112.765625 C 268.867188 112.765625 269.878906 111.761719 269.878906 110.527344 L 269.878906 60.765625 C 269.878906 60.195312 270.347656 59.730469 270.921875 59.730469 L 289.464844 59.730469 C 290.703125 59.730469 291.714844 58.730469 291.714844 57.492188 L 291.714844 47.101562 C 291.714844 45.871094 290.707031 44.863281 289.464844 44.863281 Z M 289.453125 44.863281 " fill-opacity="1" fill-rule="nonzero"/></g><g clip-path="url(#e5ad4458ff)"><path fill="#212429" d="M 321.722656 59.734375 L 353.5 59.734375 C 354.726562 59.734375 355.726562 58.742188 355.726562 57.519531 L 355.726562 47.078125 C 355.726562 45.859375 354.726562 44.863281 353.5 44.863281 L 307.117188 44.90625 C 305.894531 44.90625 304.898438 45.902344 304.898438 47.121094 L 304.898438 110.542969 C 304.898438 111.761719 305.898438 112.757812 307.125 112.757812 L 353.417969 112.757812 C 354.644531 112.757812 355.640625 111.761719 355.640625 110.542969 L 355.640625 100.101562 C 355.640625 98.882812 354.644531 97.886719 353.417969 97.886719 L 321.730469 97.886719 C 321.171875 97.886719 320.710938 97.429688 320.710938 96.871094 L 320.710938 86.78125 C 320.710938 86.222656 321.171875 85.769531 321.730469 85.769531 L 344.730469 85.769531 C 345.957031 85.769531 346.949219 84.773438 346.949219 83.554688 L 346.949219 73.152344 C 346.949219 71.933594 345.957031 70.9375 344.730469 70.9375 L 321.730469 70.9375 C 321.171875 70.9375 320.710938 70.484375 320.710938 69.925781 L 320.710938 60.742188 C 320.710938 60.183594 321.171875 59.730469 321.730469 59.730469 Z M 321.722656 59.734375 " fill-opacity="1" fill-rule="nonzero"/></g><path fill="#212429" d="M 96.5 141.765625 L 96.5 131.453125 L 100.347656 131.453125 C 102.1875 131.453125 103.425781 132.164062 103.425781 134.136719 C 103.425781 135.066406 103.121094 135.816406 102.285156 136.242188 L 102.285156 136.265625 C 103.769531 136.460938 104.402344 137.457031 104.402344 138.894531 C 104.402344 141.054688 102.550781 141.765625 100.652344 141.765625 Z M 99.195312 135.503906 L 99.5 135.503906 C 100.214844 135.503906 100.957031 135.378906 100.957031 134.507812 C 100.957031 133.558594 100.121094 133.511719 99.390625 133.511719 L 99.195312 133.511719 L 99.195312 135.507812 Z M 99.195312 139.714844 L 99.539062 139.714844 C 100.335938 139.714844 101.675781 139.753906 101.675781 138.621094 C 101.675781 137.378906 100.347656 137.5 99.464844 137.5 L 99.191406 137.5 L 99.191406 139.714844 Z M 99.195312 139.714844 " fill-opacity="1" fill-rule="nonzero"/><path fill="#212429" d="M 117.226562 133.722656 L 117.226562 135.449219 L 120.265625 135.449219 L 120.265625 137.714844 L 117.226562 137.714844 L 117.226562 139.496094 L 120.429688 139.496094 L 120.429688 141.765625 L 114.539062 141.765625 L 114.539062 131.453125 L 120.429688 131.453125 L 120.429688 133.722656 Z M 117.226562 133.722656 " fill-opacity="1" fill-rule="nonzero"/><path fill="#212429" d="M 133.515625 133.722656 L 133.515625 135.449219 L 136.554688 135.449219 L 136.554688 137.714844 L 133.515625 137.714844 L 133.515625 139.496094 L 136.71875 139.496094 L 136.71875 141.765625 L 130.828125 141.765625 L 130.828125 131.453125 L 136.71875 131.453125 L 136.71875 133.722656 Z M 133.515625 133.722656 " fill-opacity="1" fill-rule="nonzero"/><path fill="#212429" d="M 155.722656 141.765625 L 152.371094 141.765625 L 149.828125 137.800781 L 149.800781 137.800781 L 149.800781 141.765625 L 147.109375 141.765625 L 147.109375 131.453125 L 151.132812 131.453125 C 153.183594 131.453125 154.730469 132.425781 154.730469 134.628906 C 154.730469 136.046875 153.933594 137.28125 152.460938 137.539062 L 155.71875 141.765625 Z M 149.804688 136.078125 L 150.066406 136.078125 C 150.945312 136.078125 151.933594 135.914062 151.933594 134.792969 C 151.933594 133.667969 150.945312 133.503906 150.066406 133.503906 L 149.804688 133.503906 Z M 149.804688 136.078125 " fill-opacity="1" fill-rule="nonzero"/><g clip-path="url(#cf63ee6f1d)"><path fill="#212429" d="M 184.613281 140.804688 C 183.582031 141.503906 182.320312 142.039062 181.070312 142.039062 C 179.285156 142.039062 177.75 140.96875 177.75 139.082031 C 177.75 137.535156 178.667969 136.789062 179.972656 136.210938 L 180.222656 136.101562 L 180.003906 135.804688 C 179.675781 135.355469 179.261719 134.863281 179.261719 134.015625 C 179.261719 132.238281 180.816406 131.1875 182.472656 131.1875 C 184.132812 131.1875 185.714844 132.226562 185.714844 133.992188 C 185.714844 135.277344 184.863281 135.933594 183.792969 136.46875 L 185.097656 137.832031 C 185.605469 137.382812 186.074219 136.914062 186.460938 136.371094 L 187.984375 137.820312 L 186.679688 139.214844 L 186.558594 139.335938 L 188.878906 141.769531 L 185.515625 141.769531 L 184.625 140.8125 Z M 181.511719 137.457031 C 181.070312 137.730469 180.535156 138.113281 180.535156 138.6875 C 180.535156 139.308594 181.148438 139.632812 181.703125 139.632812 C 182.210938 139.632812 182.722656 139.457031 183.148438 139.210938 L 181.515625 137.460938 Z M 183.582031 133.953125 C 183.582031 133.433594 183.222656 132.996094 182.675781 132.996094 C 182.191406 132.996094 181.808594 133.34375 181.808594 133.84375 C 181.808594 134.347656 182.289062 134.839844 182.617188 135.210938 C 183.085938 134.949219 183.582031 134.511719 183.582031 133.953125 Z M 183.582031 133.953125 " fill-opacity="1" fill-rule="nonzero"/></g><path fill="#212429" d="M 214.097656 133.722656 L 214.097656 135.449219 L 217.050781 135.449219 L 217.050781 137.714844 L 214.097656 137.714844 L 214.097656 141.765625 L 211.402344 141.765625 L 211.402344 131.453125 L 217.347656 131.453125 L 217.347656 133.722656 L 214.09375 133.722656 Z M 214.097656 133.722656 " fill-opacity="1" fill-rule="nonzero"/><g clip-path="url(#1c5a058c08)"><path fill="#212429" d="M 238.511719 136.417969 C 238.511719 139.753906 236.113281 142.105469 232.785156 142.105469 C 229.453125 142.105469 227.058594 139.753906 227.058594 136.417969 C 227.058594 133.304688 229.808594 131.113281 232.785156 131.113281 C 235.757812 131.113281 238.511719 133.300781 238.511719 136.417969 Z M 229.863281 136.429688 C 229.863281 138.207031 231.179688 139.507812 232.789062 139.507812 C 234.398438 139.507812 235.714844 138.207031 235.714844 136.429688 C 235.714844 135.011719 234.398438 133.710938 232.789062 133.710938 C 231.179688 133.710938 229.863281 135.011719 229.863281 136.429688 Z M 229.863281 136.429688 " fill-opacity="1" fill-rule="nonzero"/></g><g clip-path="url(#30d605174e)"><path fill="#212429" d="M 259.433594 136.417969 C 259.433594 139.753906 257.03125 142.105469 253.710938 142.105469 C 250.386719 142.105469 247.988281 139.753906 247.988281 136.417969 C 247.988281 133.304688 250.734375 131.113281 253.710938 131.113281 C 256.6875 131.113281 259.433594 133.300781 259.433594 136.417969 Z M 250.785156 136.429688 C 250.785156 138.207031 252.101562 139.507812 253.710938 139.507812 C 255.320312 139.507812 256.636719 138.207031 256.636719 136.429688 C 256.636719 135.011719 255.320312 133.710938 253.710938 133.710938 C 252.101562 133.710938 250.785156 135.011719 250.785156 136.429688 Z M 250.785156 136.429688 " fill-opacity="1" fill-rule="nonzero"/></g><path fill="#212429" d="M 269.421875 131.460938 L 273.234375 131.460938 C 276.121094 131.460938 278.496094 133.71875 278.496094 136.613281 C 278.496094 139.507812 276.109375 141.765625 273.234375 141.765625 L 269.421875 141.765625 L 269.421875 131.453125 Z M 272.113281 139.5 L 272.71875 139.5 C 274.328125 139.5 275.699219 138.628906 275.699219 136.617188 C 275.699219 134.773438 274.472656 133.734375 272.75 133.734375 L 272.113281 133.734375 L 272.113281 139.507812 Z M 272.113281 139.5 " fill-opacity="1" fill-rule="nonzero"/><g clip-path="url(#475851b18f)"><path fill="#212429" d="M 355.125 137.269531 L 305.503906 137.269531 C 305.144531 137.269531 304.84375 136.976562 304.84375 136.613281 C 304.84375 136.25 305.144531 135.957031 305.503906 135.957031 L 355.125 135.957031 C 355.492188 135.957031 355.78125 136.25 355.78125 136.613281 C 355.78125 136.976562 355.492188 137.269531 355.125 137.269531 Z M 355.125 137.269531 " fill-opacity="1" fill-rule="nonzero"/></g><g clip-path="url(#7e5adcc5b8)"><path fill="#212429" d="M 69.496094 137.269531 L 19.875 137.269531 C 19.511719 137.269531 19.21875 136.976562 19.21875 136.613281 C 19.21875 136.25 19.511719 135.957031 19.875 135.957031 L 69.496094 135.957031 C 69.863281 135.957031 70.15625 136.25 70.15625 136.613281 C 70.15625 136.976562 69.863281 137.269531 69.496094 137.269531 Z M 69.496094 137.269531 " fill-opacity="1" fill-rule="nonzero"/></g></svg>