<svg xmlns="http://www.w3.org/2000/svg" xmlns:xlink="http://www.w3.org/1999/xlink" width="100%" zoomAndPan="magnify" viewBox="0 0 375 374.999991" height="100%" preserveAspectRatio="xMidYMid meet" version="1.0"><defs><clipPath id="3e0b0fb453"><path d="M 234.503906 225 L 347.003906 225 L 347.003906 337.5 L 234.503906 337.5 Z M 234.503906 225 " clip-rule="nonzero"/></clipPath><clipPath id="7fac1e27d1"><path d="M 0.503906 0 L 113.003906 0 L 113.003906 112.5 L 0.503906 112.5 Z M 0.503906 0 " clip-rule="nonzero"/></clipPath><clipPath id="a4c11c8396"><rect x="0" width="114" y="0" height="113"/></clipPath></defs><path fill="currentColor" d="M 31.363281 367.136719 L 31.363281 359.296875 L 15.679688 359.296875 L 15.71875 335.8125 L 15.757812 312.332031 L 23.558594 312.292969 L 31.363281 312.253906 L 31.363281 281.347656 L 15.679688 281.347656 L 15.679688 265.667969 L 31.363281 265.667969 L 31.363281 202.945312 L 15.679688 202.945312 L 15.679688 187.261719 L 0 187.261719 L 0 172.035156 L 15.679688 172.035156 L 15.679688 156.355469 L 23.484375 156.316406 L 31.285156 156.277344 L 31.324219 124.957031 L 31.363281 93.632812 L 15.679688 93.632812 L 15.679688 77.949219 L 0 77.949219 L 0 62.722656 L 15.679688 62.722656 L 15.679688 31.359375 L 31.359375 31.359375 L 31.359375 15.679688 L 62.722656 15.679688 L 62.722656 0 L 78.402344 0 L 78.402344 15.679688 L 93.632812 15.679688 L 93.632812 31.363281 L 124.953125 31.324219 L 156.277344 31.285156 L 156.316406 23.484375 L 156.355469 15.679688 L 172.035156 15.679688 L 172.035156 0 L 187.714844 0 L 187.714844 15.679688 L 202.945312 15.679688 L 202.945312 31.359375 L 265.667969 31.359375 L 265.667969 15.679688 L 281.347656 15.679688 L 281.347656 31.359375 L 312.253906 31.359375 L 312.332031 15.757812 L 335.816406 15.71875 L 359.296875 15.679688 L 359.296875 31.359375 L 374.980469 31.359375 L 374.980469 62.722656 L 359.296875 62.722656 L 359.296875 77.949219 L 343.617188 77.949219 L 343.617188 93.632812 L 327.9375 93.632812 L 327.9375 77.949219 L 312.257812 77.949219 L 312.257812 62.722656 L 327.9375 62.722656 L 327.9375 47.042969 L 343.617188 47.042969 L 343.617188 62.722656 L 359.296875 62.722656 L 359.296875 31.359375 L 312.257812 31.359375 L 312.257812 47.042969 L 281.351562 47.042969 L 281.3125 54.84375 L 281.273438 62.648438 L 273.46875 62.6875 L 265.667969 62.726562 L 265.667969 77.949219 L 202.945312 77.949219 L 202.945312 93.632812 L 187.71875 93.632812 L 187.679688 101.433594 L 187.640625 109.238281 L 179.835938 109.277344 L 172.035156 109.316406 L 172.035156 93.632812 L 156.355469 93.632812 L 156.316406 85.828125 L 156.277344 78.027344 L 148.476562 77.988281 L 140.671875 77.949219 L 140.671875 62.722656 L 124.992188 62.722656 L 124.992188 77.949219 L 78.402344 77.949219 L 78.367188 101.433594 L 78.328125 124.917969 L 70.523438 124.957031 L 62.722656 124.996094 L 62.722656 140.671875 L 70.523438 140.710938 L 78.328125 140.75 L 78.367188 148.550781 L 78.40625 156.355469 L 93.632812 156.355469 L 93.632812 172.035156 L 109.3125 172.035156 L 109.3125 187.261719 L 93.632812 187.261719 L 93.632812 202.945312 L 78.402344 202.945312 L 78.367188 234.265625 L 78.328125 265.589844 L 62.726562 265.667969 L 62.648438 281.269531 L 54.84375 281.308594 L 47.042969 281.347656 L 47.042969 312.253906 L 31.359375 312.253906 L 31.359375 359.296875 L 62.722656 359.296875 L 62.722656 343.617188 L 47.042969 343.617188 L 47.042969 327.9375 L 62.722656 327.9375 L 62.722656 312.253906 L 70.523438 312.292969 L 78.328125 312.332031 L 78.367188 320.132812 L 78.40625 327.9375 L 93.632812 327.9375 L 93.632812 343.617188 L 78.40625 343.617188 L 78.367188 351.417969 L 78.328125 359.222656 L 70.523438 359.261719 L 62.722656 359.300781 L 62.722656 374.976562 L 31.359375 374.976562 Z M 78.402344 335.777344 L 78.402344 327.9375 L 62.722656 327.9375 L 62.722656 343.617188 L 78.402344 343.617188 Z M 47.042969 273.507812 L 47.042969 265.667969 L 62.722656 265.667969 L 62.722656 202.945312 L 78.402344 202.945312 L 78.402344 187.261719 L 93.632812 187.261719 L 93.632812 172.035156 L 62.722656 172.035156 L 62.722656 140.671875 L 47.042969 140.671875 L 47.003906 156.316406 L 46.96875 171.960938 L 31.324219 171.996094 L 15.679688 172.035156 L 15.679688 187.261719 L 23.484375 187.300781 L 31.285156 187.339844 L 31.363281 202.941406 L 39.164062 202.980469 L 46.96875 203.019531 L 47.003906 234.34375 L 47.042969 265.667969 L 31.359375 265.667969 L 31.359375 281.347656 L 47.042969 281.347656 Z M 62.722656 93.859375 L 62.722656 62.722656 L 124.992188 62.722656 L 124.992188 47.042969 L 109.351562 47.003906 L 93.707031 46.964844 L 93.667969 39.164062 L 93.628906 31.359375 L 78.402344 31.359375 L 78.402344 15.679688 L 62.722656 15.679688 L 62.722656 31.359375 L 78.40625 31.359375 L 78.367188 39.164062 L 78.328125 46.964844 L 62.683594 47.003906 L 47.042969 47.042969 L 47.042969 31.359375 L 31.363281 31.359375 L 31.363281 47.042969 L 47.042969 47.042969 L 47.042969 77.949219 L 31.363281 77.949219 L 31.363281 62.722656 L 15.679688 62.722656 L 15.679688 77.949219 L 31.363281 77.949219 L 31.363281 93.628906 L 39.164062 93.667969 L 46.96875 93.707031 L 47.003906 109.351562 L 47.042969 124.992188 L 62.722656 124.992188 Z M 187.714844 85.792969 L 187.714844 77.949219 L 202.945312 77.949219 L 202.945312 62.722656 L 265.667969 62.722656 L 265.667969 47.042969 L 281.347656 47.042969 L 281.347656 31.359375 L 265.667969 31.359375 L 265.667969 47.042969 L 203.019531 46.964844 L 202.980469 39.164062 L 202.941406 31.359375 L 187.714844 31.359375 L 187.714844 15.679688 L 172.035156 15.679688 L 172 31.324219 L 171.960938 46.964844 L 156.316406 47.003906 L 140.675781 47.042969 L 140.675781 62.722656 L 172.035156 62.722656 L 172.035156 93.632812 L 187.714844 93.632812 Z M 343.617188 70.335938 L 343.617188 62.722656 L 327.9375 62.722656 L 327.9375 77.949219 L 343.617188 77.949219 Z M 343.617188 70.335938 " fill-opacity="1" fill-rule="nonzero"/></svg>
