<svg xmlns="http://www.w3.org/2000/svg" xmlns:xlink="http://www.w3.org/1999/xlink" width="500" zoomAndPan="magnify" viewBox="0 0 375 187.499995" height="250" preserveAspectRatio="xMidYMid meet" version="1.0"><defs><clipPath id="f7f81e18ab"><path d="M 215 49.128906 L 249 49.128906 L 249 85 L 215 85 Z M 215 49.128906 " clip-rule="nonzero"/></clipPath><clipPath id="b6118d1993"><path d="M 19.199219 97 L 54 97 L 54 138.144531 L 19.199219 138.144531 Z M 19.199219 97 " clip-rule="nonzero"/></clipPath><clipPath id="ae43f9294e"><path d="M 59 97 L 96 97 L 96 138.144531 L 59 138.144531 Z M 59 97 " clip-rule="nonzero"/></clipPath><clipPath id="d931b72265"><path d="M 99 97 L 136 97 L 136 138.144531 L 99 138.144531 Z M 99 97 " clip-rule="nonzero"/></clipPath><clipPath id="828bc287de"><path d="M 139 97 L 177 97 L 177 138.144531 L 139 138.144531 Z M 139 97 " clip-rule="nonzero"/></clipPath><clipPath id="428934584a"><path d="M 319 97 L 355.800781 97 L 355.800781 138.144531 L 319 138.144531 Z M 319 97 " clip-rule="nonzero"/></clipPath><clipPath id="e885cb9594"><path d="M 251 98 L 286 98 L 286 138.144531 L 251 138.144531 Z M 251 98 " clip-rule="nonzero"/></clipPath></defs><g clip-path="url(#f7f81e18ab)"><path fill="#a100ff" d="M 215.363281 54.175781 L 215.363281 59.214844 L 225 62.988281 C 230.300781 65.0625 234.640625 66.777344 234.640625 66.792969 C 234.640625 66.808594 230.300781 68.433594 225 70.410156 L 215.363281 74.003906 L 215.363281 79.171875 C 215.363281 82.019531 215.378906 84.347656 215.40625 84.347656 C 215.429688 84.347656 222.886719 81.320312 231.972656 77.628906 L 248.503906 70.914062 L 248.519531 66.722656 C 248.53125 63.40625 248.519531 62.53125 248.464844 62.507812 C 248.429688 62.5 241.234375 59.59375 232.484375 56.054688 C 223.734375 52.523438 216.300781 49.519531 215.972656 49.382812 L 215.363281 49.140625 Z M 215.363281 54.175781 " fill-opacity="1" fill-rule="nonzero"/></g><path fill="#000000" d="M 231.988281 88.820312 L 226.507812 91.058594 L 226.507812 98.335938 L 224.261719 98.347656 L 222.011719 98.363281 L 221.996094 102.425781 L 221.984375 106.492188 L 226.507812 106.492188 L 226.507812 116.144531 C 226.507812 121.457031 226.535156 126.304688 226.5625 126.914062 C 226.691406 129.761719 227.273438 131.808594 228.46875 133.578125 C 228.941406 134.285156 229.992188 135.324219 230.730469 135.816406 C 231.953125 136.625 233.421875 137.203125 235.113281 137.523438 C 237.992188 138.074219 241.769531 137.925781 244.679688 137.160156 L 245.136719 137.039062 L 245.136719 128.480469 L 244.824219 128.609375 C 243.960938 128.964844 242.875 129.140625 241.53125 129.140625 C 240.617188 129.140625 240.425781 129.128906 240.050781 129.027344 C 238.542969 128.609375 237.75 127.59375 237.546875 125.800781 C 237.515625 125.488281 237.492188 121.917969 237.492188 115.898438 L 237.492188 106.492188 L 244.921875 106.492188 L 244.921875 98.335938 L 237.492188 98.335938 L 237.480469 92.457031 L 237.464844 86.578125 Z M 231.988281 88.820312 " fill-opacity="1" fill-rule="nonzero"/><g clip-path="url(#b6118d1993)"><path fill="#000000" d="M 35.582031 97.558594 C 34.277344 97.664062 33.898438 97.707031 33.269531 97.800781 C 26.871094 98.75 22.523438 102.128906 20.949219 107.355469 C 20.710938 108.132812 20.398438 109.800781 20.398438 110.265625 L 20.398438 110.433594 L 30.824219 110.433594 L 30.890625 109.976562 C 31.164062 108.078125 32.308594 106.550781 33.96875 105.875 C 34.40625 105.699219 34.992188 105.546875 35.578125 105.460938 C 36.226562 105.367188 37.792969 105.425781 38.394531 105.566406 C 40.089844 105.957031 41.25 106.949219 41.851562 108.523438 C 42.21875 109.472656 42.367188 110.589844 42.367188 112.417969 L 42.367188 113.460938 L 39.289062 113.460938 C 35.378906 113.460938 33.886719 113.539062 31.761719 113.871094 C 24.238281 115.023438 20.019531 118.601562 19.296875 124.421875 C 19.199219 125.210938 19.183594 127.449219 19.273438 128.246094 C 19.753906 132.691406 22.367188 135.910156 26.640625 137.332031 C 28.457031 137.9375 30.226562 138.179688 32.378906 138.125 C 34.238281 138.078125 35.550781 137.828125 37.082031 137.246094 C 39.121094 136.457031 40.996094 135.0625 42.226562 133.40625 L 42.554688 132.964844 L 42.574219 135.144531 L 42.582031 137.332031 L 53.246094 137.332031 L 53.246094 123.949219 C 53.246094 115.316406 53.222656 110.308594 53.191406 109.84375 C 52.964844 106.878906 52.097656 104.492188 50.535156 102.546875 C 48.339844 99.808594 44.871094 98.183594 40.105469 97.660156 C 39.375 97.578125 36.1875 97.503906 35.582031 97.558594 Z M 42.367188 122.554688 C 42.367188 124.570312 42.320312 125.296875 42.152344 125.957031 C 41.652344 127.917969 40.164062 129.394531 37.984375 130.089844 C 36.398438 130.597656 34.269531 130.636719 32.898438 130.171875 C 31.492188 129.695312 30.566406 128.761719 30.203125 127.453125 C 29.972656 126.605469 29.941406 125.417969 30.128906 124.476562 C 30.585938 122.175781 32.714844 120.941406 36.617188 120.703125 C 37.011719 120.679688 38.464844 120.652344 39.855469 120.648438 L 42.367188 120.644531 Z M 42.367188 122.554688 " fill-opacity="1" fill-rule="nonzero"/></g><g clip-path="url(#ae43f9294e)"><path fill="#000000" d="M 76.476562 97.558594 C 76.359375 97.570312 75.980469 97.605469 75.644531 97.640625 C 72.378906 97.945312 69.164062 99.136719 66.679688 100.957031 C 62.511719 104.007812 60.023438 108.683594 59.351562 114.753906 C 59.230469 115.808594 59.1875 119.03125 59.269531 120.25 C 59.445312 122.78125 59.910156 125.070312 60.648438 127.070312 C 61.011719 128.0625 61.886719 129.792969 62.441406 130.636719 C 64.863281 134.292969 68.40625 136.664062 72.921875 137.644531 C 74.621094 138.019531 75.648438 138.117188 77.824219 138.117188 C 80.136719 138.109375 81.300781 137.984375 83.152344 137.527344 C 89.113281 136.050781 93.226562 131.878906 94.644531 125.871094 C 94.933594 124.652344 95.164062 122.976562 95.058594 122.933594 C 95.027344 122.921875 92.796875 122.917969 90.097656 122.921875 L 85.199219 122.9375 L 85.074219 123.558594 C 84.546875 126.195312 83.164062 128.203125 81.1875 129.203125 C 80.246094 129.679688 79.289062 129.894531 78.121094 129.894531 C 75.308594 129.890625 73.3125 128.816406 71.996094 126.589844 C 70.839844 124.628906 70.3125 121.929688 70.3125 117.914062 C 70.3125 114.398438 70.726562 112.058594 71.710938 110.066406 C 72.53125 108.410156 73.554688 107.351562 75.011719 106.652344 C 76.042969 106.15625 77.015625 105.972656 78.382812 106.019531 C 79.367188 106.054688 79.949219 106.167969 80.714844 106.484375 C 82.492188 107.230469 83.765625 109.046875 84.320312 111.632812 L 84.445312 112.214844 L 94.863281 112.214844 L 94.863281 112.011719 C 94.863281 111.902344 94.816406 111.472656 94.75 111.054688 C 94.21875 107.367188 92.816406 104.390625 90.566406 102.128906 C 88.082031 99.636719 84.742188 98.15625 80.488281 97.65625 C 79.804688 97.578125 76.988281 97.507812 76.476562 97.558594 Z M 76.476562 97.558594 " fill-opacity="1" fill-rule="nonzero"/></g><g clip-path="url(#d931b72265)"><path fill="#000000" d="M 116.859375 97.5625 C 115.351562 97.683594 114.230469 97.859375 113.101562 98.152344 C 105.195312 100.195312 100.296875 106.597656 99.65625 115.726562 C 99.585938 116.75 99.585938 119.304688 99.65625 120.308594 C 100.164062 127.382812 102.957031 132.535156 107.921875 135.550781 C 110.074219 136.851562 112.546875 137.652344 115.539062 138.019531 C 116.660156 138.152344 119.710938 138.152344 120.816406 138.019531 C 125.140625 137.476562 128.371094 136.019531 130.9375 133.445312 C 132.097656 132.28125 132.980469 131.027344 133.738281 129.472656 C 134.308594 128.3125 134.636719 127.414062 134.949219 126.179688 C 135.285156 124.871094 135.5625 122.980469 135.441406 122.933594 C 135.40625 122.921875 133.179688 122.917969 130.488281 122.921875 L 125.585938 122.9375 L 125.46875 123.503906 C 125.21875 124.695312 124.902344 125.59375 124.445312 126.394531 C 123.019531 128.878906 120.65625 130.121094 117.824219 129.878906 C 116.804688 129.792969 116.125 129.636719 115.378906 129.3125 C 112.71875 128.167969 111.238281 125.421875 110.789062 120.832031 C 110.699219 119.875 110.699219 116.03125 110.789062 115.132812 C 111.140625 111.726562 112.054688 109.425781 113.691406 107.824219 C 114.667969 106.875 115.953125 106.265625 117.417969 106.054688 C 118.140625 105.953125 119.539062 106.015625 120.175781 106.183594 C 121.910156 106.636719 123.046875 107.582031 123.894531 109.273438 C 124.214844 109.90625 124.589844 111.019531 124.726562 111.71875 L 124.820312 112.214844 L 135.246094 112.214844 L 135.246094 112.027344 C 135.246094 111.742188 135.09375 110.699219 134.945312 109.921875 C 133.496094 102.613281 128.113281 98.171875 119.980469 97.578125 C 119.292969 97.53125 117.382812 97.519531 116.859375 97.5625 Z M 116.859375 97.5625 " fill-opacity="1" fill-rule="nonzero"/></g><g clip-path="url(#828bc287de)"><path fill="#000000" d="M 157.078125 97.558594 C 156.960938 97.570312 156.601562 97.605469 156.269531 97.632812 C 151.246094 98.125 146.855469 100.511719 143.996094 104.304688 C 141.679688 107.371094 140.355469 111.210938 140.042969 115.769531 C 139.96875 116.828125 139.96875 119.363281 140.039062 120.4375 C 140.410156 125.941406 142.171875 130.199219 145.375 133.308594 C 148.304688 136.148438 152.175781 137.738281 157.046875 138.09375 C 158.152344 138.175781 160.628906 138.125 161.628906 138.011719 C 165.441406 137.558594 168.515625 136.359375 171.050781 134.328125 C 171.664062 133.839844 172.714844 132.777344 173.214844 132.148438 C 174.636719 130.355469 175.664062 128.128906 176.132812 125.828125 C 176.203125 125.488281 176.242188 125.191406 176.226562 125.164062 C 176.203125 125.140625 173.941406 125.132812 171.195312 125.136719 L 166.199219 125.152344 L 166.039062 125.640625 C 165.21875 128.074219 163.441406 129.570312 160.75 130.078125 C 160.0625 130.207031 158.089844 130.207031 157.402344 130.085938 C 154.746094 129.585938 153.0625 128.171875 152.011719 125.570312 C 151.542969 124.402344 151.214844 122.839844 151.042969 120.984375 L 151.003906 120.589844 L 163.625 120.578125 L 176.246094 120.5625 L 176.261719 118.265625 C 176.289062 114.125 176.132812 112.210938 175.570312 109.910156 C 174.320312 104.796875 171.1875 101.007812 166.582031 99.046875 C 164.941406 98.351562 163.179688 97.902344 161.089844 97.65625 C 160.40625 97.574219 157.601562 97.503906 157.078125 97.558594 Z M 159.988281 105.277344 C 161.414062 105.492188 162.566406 106.039062 163.449219 106.914062 C 164.726562 108.175781 165.402344 110.035156 165.640625 112.875 L 165.675781 113.296875 L 151.171875 113.296875 L 151.203125 113.039062 C 151.558594 110.558594 152.523438 108.296875 153.761719 107.042969 C 154.683594 106.109375 155.855469 105.503906 157.179688 105.28125 C 157.785156 105.179688 159.320312 105.171875 159.988281 105.277344 Z M 159.988281 105.277344 " fill-opacity="1" fill-rule="nonzero"/></g><path fill="#000000" d="M 203.988281 97.578125 C 199.894531 97.972656 196.632812 99.816406 194.460938 102.953125 C 194.292969 103.191406 194.078125 103.53125 193.984375 103.710938 L 193.800781 104.035156 L 193.785156 101.183594 L 193.773438 98.335938 L 182.894531 98.335938 L 182.894531 137.332031 L 193.773438 137.332031 L 193.785156 124.839844 C 193.800781 112.96875 193.804688 112.324219 193.902344 111.839844 C 194.359375 109.457031 195.585938 107.792969 197.503906 106.960938 C 198.457031 106.550781 199.363281 106.382812 200.625 106.382812 C 202.542969 106.382812 203.792969 106.804688 204.761719 107.78125 C 205.398438 108.425781 205.789062 109.148438 206.042969 110.175781 C 206.324219 111.292969 206.316406 110.859375 206.316406 124.570312 L 206.316406 137.332031 L 217.246094 137.332031 L 217.246094 124.082031 C 217.246094 115.933594 217.226562 110.476562 217.195312 109.894531 C 217.003906 106.648438 216.285156 104.097656 215.003906 102.144531 C 213.332031 99.605469 210.941406 98.164062 207.582031 97.65625 C 206.949219 97.558594 204.6875 97.507812 203.988281 97.578125 Z M 203.988281 97.578125 " fill-opacity="1" fill-rule="nonzero"/><g clip-path="url(#428934584a)"><path fill="#000000" d="M 336.265625 97.585938 C 330.644531 98.03125 325.945312 100.667969 322.976562 105.03125 C 321.09375 107.804688 320.011719 111.019531 319.589844 115.078125 C 319.496094 116.007812 319.496094 120.265625 319.589844 121.183594 C 319.917969 124.332031 320.578125 126.722656 321.730469 129.015625 C 322.507812 130.554688 323.339844 131.71875 324.527344 132.953125 C 325.847656 134.308594 327.15625 135.265625 328.890625 136.117188 C 331.835938 137.574219 334.988281 138.207031 338.925781 138.125 C 342.441406 138.054688 345.160156 137.429688 347.820312 136.085938 C 349.296875 135.339844 350.539062 134.441406 351.664062 133.308594 C 353.238281 131.738281 354.335938 129.976562 355.085938 127.847656 C 355.328125 127.152344 355.660156 125.867188 355.714844 125.40625 L 355.746094 125.125 L 350.722656 125.136719 L 345.703125 125.152344 L 345.53125 125.664062 C 344.707031 128.089844 342.9375 129.578125 340.261719 130.078125 C 339.550781 130.207031 337.601562 130.214844 336.886719 130.078125 C 334.511719 129.640625 332.921875 128.453125 331.855469 126.324219 C 331.238281 125.078125 330.824219 123.527344 330.613281 121.613281 C 330.570312 121.214844 330.53125 120.820312 330.53125 120.738281 L 330.53125 120.589844 L 343.148438 120.578125 L 355.757812 120.5625 L 355.75 117.535156 C 355.746094 114.425781 355.714844 113.644531 355.507812 112.164062 C 355.050781 108.867188 353.925781 106 352.191406 103.726562 C 351.671875 103.046875 350.648438 101.96875 349.96875 101.402344 C 347.6875 99.476562 344.472656 98.152344 341.058594 97.714844 C 339.597656 97.53125 337.613281 97.476562 336.265625 97.585938 Z M 339.496094 105.277344 C 342.449219 105.722656 344.21875 107.566406 344.882812 110.882812 C 344.992188 111.476562 345.046875 111.871094 345.148438 112.957031 L 345.183594 113.296875 L 337.933594 113.296875 C 330.789062 113.296875 330.695312 113.296875 330.695312 113.195312 C 330.695312 113.136719 330.742188 112.820312 330.808594 112.503906 C 331.625 108.191406 333.574219 105.804688 336.691406 105.28125 C 337.292969 105.179688 338.828125 105.179688 339.496094 105.277344 Z M 339.496094 105.277344 " fill-opacity="1" fill-rule="nonzero"/></g><path fill="#000000" d="M 315 97.847656 C 311.945312 98.027344 309.484375 99.015625 307.550781 100.847656 C 306.582031 101.761719 305.65625 103.039062 304.910156 104.492188 L 304.476562 105.332031 L 304.445312 98.363281 L 299.023438 98.347656 L 293.597656 98.335938 L 293.597656 137.332031 L 304.472656 137.332031 L 304.472656 126.90625 C 304.472656 119.929688 304.492188 116.304688 304.53125 115.953125 C 305.054688 111.125 308.339844 108.835938 315.042969 108.613281 L 316.101562 108.582031 L 316.101562 97.796875 L 315.902344 97.804688 C 315.789062 97.804688 315.386719 97.828125 315 97.847656 Z M 315 97.847656 " fill-opacity="1" fill-rule="nonzero"/><g clip-path="url(#e885cb9594)"><path fill="#000000" d="M 251.507812 112.496094 C 251.523438 128.070312 251.503906 126.871094 251.847656 128.640625 C 252.492188 131.992188 254.097656 134.5625 256.558594 136.226562 C 257.125 136.609375 258.355469 137.214844 259.023438 137.433594 C 260.40625 137.894531 261.539062 138.082031 263.179688 138.125 C 266.226562 138.207031 268.742188 137.566406 270.902344 136.15625 C 272.414062 135.167969 273.925781 133.496094 274.746094 131.902344 L 274.855469 131.6875 L 274.859375 134.507812 L 274.859375 137.332031 L 285.734375 137.332031 L 285.734375 98.335938 L 280.3125 98.347656 L 274.886719 98.363281 L 274.859375 111 C 274.832031 122.804688 274.820312 123.671875 274.734375 124.117188 C 274.421875 125.671875 273.847656 126.84375 272.953125 127.746094 C 271.8125 128.902344 270.28125 129.515625 268.371094 129.59375 C 265.296875 129.714844 263.457031 128.507812 262.765625 125.910156 C 262.4375 124.667969 262.453125 125.464844 262.4375 111.28125 L 262.417969 98.335938 L 251.492188 98.335938 Z M 251.507812 112.496094 " fill-opacity="1" fill-rule="nonzero"/></g></svg>