<svg xmlns="http://www.w3.org/2000/svg" xmlns:xlink="http://www.w3.org/1999/xlink" width="500" zoomAndPan="magnify" viewBox="0 0 375 112.499997" height="150" preserveAspectRatio="xMidYMid meet" version="1.0"><defs><clipPath id="f777461762"><path d="M 125 45.414062 L 155 45.414062 L 155 72.296875 L 125 72.296875 Z M 125 45.414062 " clip-rule="nonzero"/></clipPath><clipPath id="02f4c672fa"><path d="M 14 45.414062 L 361 45.414062 L 361 72.296875 L 14 72.296875 Z M 14 45.414062 " clip-rule="nonzero"/></clipPath></defs><g clip-path="url(#f777461762)"><path fill="#3499cd" d="M 139.835938 72.296875 C 131.007812 72.296875 125.28125 65.910156 125.28125 59.265625 L 125.28125 58.445312 C 125.28125 51.6875 131.007812 45.414062 139.835938 45.414062 C 148.664062 45.414062 154.4375 51.6875 154.4375 58.445312 L 154.4375 59.265625 C 154.4375 65.910156 148.710938 72.296875 139.835938 72.296875 Z M 149.714844 58.515625 C 149.714844 53.671875 146.207031 49.363281 139.835938 49.363281 C 133.464844 49.363281 130.011719 53.679688 130.011719 58.515625 L 130.011719 59.121094 C 130.011719 63.960938 133.519531 68.355469 139.835938 68.355469 C 146.152344 68.355469 149.714844 63.960938 149.714844 59.121094 Z M 149.714844 58.515625 " fill-opacity="1" fill-rule="nonzero"/></g><g clip-path="url(#02f4c672fa)"><path fill="#010101" d="M 40.097656 71.316406 L 36.808594 65.125 L 22.171875 65.125 L 18.964844 71.316406 L 14.050781 71.316406 L 27.523438 46.316406 L 31.417969 46.316406 L 45.117188 71.316406 Z M 29.355469 51.195312 L 23.929688 61.710938 L 34.96875 61.710938 Z M 66.371094 72.296875 C 57.425781 72.296875 53.269531 67.410156 53.269531 60.921875 L 53.269531 46.316406 L 57.917969 46.316406 L 57.917969 60.992188 C 57.917969 65.609375 60.949219 68.355469 66.707031 68.355469 C 72.625 68.355469 75.050781 65.609375 75.050781 60.992188 L 75.050781 46.316406 L 79.734375 46.316406 L 79.734375 60.902344 C 79.734375 67.117188 75.804688 72.296875 66.371094 72.296875 Z M 105.78125 50.222656 L 105.78125 71.339844 L 101.101562 71.339844 L 101.101562 50.222656 L 90.210938 50.222656 L 90.210938 46.316406 L 116.671875 46.316406 L 116.671875 50.222656 Z M 196.128906 71.316406 L 196.128906 51.53125 L 194.894531 53.714844 L 184.449219 71.3125 L 182.171875 71.3125 L 171.839844 53.714844 L 170.605469 51.53125 L 170.605469 71.316406 L 166.039062 71.316406 L 166.039062 46.316406 L 172.515625 46.316406 L 182.339844 63.46875 L 183.503906 65.582031 L 184.660156 63.46875 L 194.394531 46.316406 L 200.792969 46.316406 L 200.792969 71.316406 Z M 236.175781 71.316406 L 232.878906 65.125 L 218.253906 65.125 L 215.074219 71.316406 L 210.164062 71.316406 L 223.636719 46.316406 L 227.523438 46.316406 L 241.183594 71.316406 Z M 225.433594 51.195312 L 220.007812 61.710938 L 231.046875 61.710938 Z M 260.046875 50.222656 L 260.046875 71.339844 L 255.375 71.339844 L 255.375 50.222656 L 244.484375 50.222656 L 244.484375 46.316406 L 270.9375 46.316406 L 270.9375 50.222656 Z M 294.367188 50.222656 L 294.367188 71.339844 L 289.6875 71.339844 L 289.6875 50.222656 L 278.796875 50.222656 L 278.796875 46.316406 L 305.265625 46.316406 L 305.265625 50.222656 Z M 316.789062 71.316406 L 316.789062 48.679688 C 318.65625 48.679688 319.40625 47.667969 319.40625 46.316406 L 321.40625 46.316406 L 321.40625 71.316406 Z M 358.03125 53.375 C 356.6875 52.09375 355.15625 51.105469 353.433594 50.410156 C 351.714844 49.714844 349.925781 49.363281 348.070312 49.355469 C 341.414062 49.355469 337.664062 53.9375 337.664062 58.703125 L 337.664062 59.191406 C 337.664062 63.921875 341.449219 68.339844 348.410156 68.339844 C 350.230469 68.304688 351.984375 67.941406 353.667969 67.25 C 355.351562 66.554688 356.855469 65.578125 358.175781 64.320312 L 360.984375 67.285156 C 359.234375 68.921875 357.242188 70.171875 355.007812 71.039062 C 352.777344 71.90625 350.464844 72.324219 348.070312 72.296875 C 338.640625 72.296875 332.914062 66.136719 332.914062 59.378906 L 332.914062 58.554688 C 332.914062 51.800781 339.167969 45.414062 348.296875 45.414062 C 353.574219 45.414062 358.367188 47.632812 360.925781 50.40625 Z M 140.414062 54.6875 L 136.125 61.347656 C 135.996094 61.546875 135.910156 61.769531 135.867188 62.003906 C 135.824219 62.242188 135.828125 62.476562 135.878906 62.714844 C 135.929688 62.949219 136.019531 63.164062 136.15625 63.363281 C 136.292969 63.5625 136.464844 63.726562 136.664062 63.855469 L 136.671875 63.859375 C 136.871094 63.992188 137.09375 64.078125 137.328125 64.121094 C 137.5625 64.164062 137.800781 64.160156 138.035156 64.109375 C 138.269531 64.058594 138.484375 63.964844 138.683594 63.828125 C 138.878906 63.691406 139.042969 63.523438 139.175781 63.320312 L 143.460938 56.660156 C 143.589844 56.457031 143.675781 56.238281 143.71875 56.003906 C 143.761719 55.765625 143.757812 55.53125 143.710938 55.292969 C 143.660156 55.058594 143.566406 54.84375 143.429688 54.644531 C 143.292969 54.445312 143.125 54.28125 142.921875 54.152344 L 142.914062 54.148438 C 142.714844 54.015625 142.496094 53.929688 142.257812 53.886719 C 142.023438 53.84375 141.785156 53.847656 141.550781 53.898438 C 141.316406 53.949219 141.101562 54.042969 140.902344 54.179688 C 140.707031 54.316406 140.542969 54.484375 140.414062 54.6875 Z M 140.414062 54.6875 " fill-opacity="1" fill-rule="nonzero"/></g></svg>