<svg xmlns="http://www.w3.org/2000/svg" xmlns:xlink="http://www.w3.org/1999/xlink" width="500" zoomAndPan="magnify" viewBox="0 0 375 112.499997" height="150" preserveAspectRatio="xMidYMid meet" version="1.0"><defs><clipPath id="d3e9145894"><path d="M 164 32.496094 L 212 32.496094 L 212 79.539062 L 164 79.539062 Z M 164 32.496094 " clip-rule="nonzero"/></clipPath><clipPath id="45c11ec8c9"><path d="M 238 32.496094 L 285 32.496094 L 285 79.539062 L 238 79.539062 Z M 238 32.496094 " clip-rule="nonzero"/></clipPath><clipPath id="61c17b719d"><path d="M 53 32.496094 L 100 32.496094 L 100 79 L 53 79 Z M 53 32.496094 " clip-rule="nonzero"/></clipPath><clipPath id="447a026f41"><path d="M 331 32.496094 L 362.96875 32.496094 L 362.96875 79 L 331 79 Z M 331 32.496094 " clip-rule="nonzero"/></clipPath><clipPath id="0b7f193a43"><path d="M 135 32.496094 L 164 32.496094 L 164 79 L 135 79 Z M 135 32.496094 " clip-rule="nonzero"/></clipPath><clipPath id="d1139a648a"><path d="M 215 32.496094 L 239 32.496094 L 239 79 L 215 79 Z M 215 32.496094 " clip-rule="nonzero"/></clipPath><clipPath id="6794d5698d"><path d="M 12.03125 33 L 55 33 L 55 79.539062 L 12.03125 79.539062 Z M 12.03125 33 " clip-rule="nonzero"/></clipPath><clipPath id="e3bbd2072f"><path d="M 287 33 L 331 33 L 331 79.539062 L 287 79.539062 Z M 287 33 " clip-rule="nonzero"/></clipPath></defs><g clip-path="url(#d3e9145894)"><path fill="#0e74bb" d="M 186.023438 32.765625 C 180.394531 33.410156 175.613281 35.722656 171.585938 39.753906 C 168.039062 43.304688 165.957031 47.214844 165.042969 52.027344 C 164.707031 53.785156 164.707031 58.304688 165.042969 59.984375 C 165.59375 62.777344 166.695312 65.800781 167.917969 67.914062 C 171.0625 73.371094 176.96875 77.65625 182.960938 78.851562 C 187.230469 79.699219 191.355469 79.445312 195.558594 78.046875 C 205.914062 74.621094 212.480469 64.605469 211.324219 54.027344 C 210.839844 49.582031 209.148438 45.078125 206.851562 42.121094 C 205.65625 40.574219 203.320312 38.304688 201.695312 37.09375 C 198.914062 35.050781 195.4375 33.546875 192.066406 32.96875 C 190.574219 32.710938 187.460938 32.605469 186.023438 32.765625 Z M 191.757812 37.875 C 198.21875 39.230469 203.335938 43.734375 205.550781 50.011719 C 206.867188 53.746094 206.894531 58.046875 205.628906 61.890625 C 204.074219 66.59375 200.824219 70.398438 196.523438 72.5625 C 189.78125 75.964844 181.886719 75.0625 176.097656 70.25 C 173.464844 68.046875 171.15625 64.527344 170.308594 61.394531 C 169.636719 58.867188 169.382812 55.253906 169.71875 52.847656 C 170.015625 50.65625 171.261719 47.777344 172.886719 45.496094 C 173.894531 44.082031 175.921875 42.027344 177.320312 41.003906 C 179.457031 39.433594 182.558594 38.089844 184.882812 37.753906 C 185.433594 37.671875 186.035156 37.578125 186.222656 37.550781 C 187.03125 37.402344 190.507812 37.605469 191.757812 37.875 Z M 191.757812 37.875 " fill-opacity="1" fill-rule="nonzero"/></g><g clip-path="url(#45c11ec8c9)"><path fill="#0e74bb" d="M 259.417969 32.78125 C 255.765625 33.128906 251.84375 34.566406 248.609375 36.730469 C 243.183594 40.359375 239.542969 45.871094 238.453125 52.105469 C 238.132812 53.949219 238.066406 57.46875 238.320312 59.175781 C 238.855469 62.683594 240.386719 66.714844 242.121094 69.214844 C 244.566406 72.738281 248.097656 75.695312 251.9375 77.457031 C 255.066406 78.878906 259.527344 79.605469 263.046875 79.28125 C 266.441406 78.960938 269.167969 78.195312 272.109375 76.714844 C 278.503906 73.53125 282.855469 67.941406 284.425781 60.898438 C 284.695312 59.753906 284.734375 59.175781 284.734375 56.488281 C 284.734375 52.914062 284.535156 51.625 283.527344 48.558594 C 282.34375 44.941406 280.878906 42.550781 278.222656 39.875 C 275.84375 37.484375 273.910156 36.074219 271.304688 34.835938 C 267.585938 33.0625 263.609375 32.375 259.417969 32.78125 Z M 265.058594 37.859375 C 269.667969 38.789062 273.789062 41.449219 276.460938 45.210938 C 277.523438 46.703125 278.773438 49.257812 279.230469 50.84375 C 280.492188 55.210938 280.113281 59.929688 278.207031 63.949219 C 275.980469 68.636719 272.40625 71.878906 267.664062 73.53125 C 259.914062 76.230469 251.550781 73.71875 246.671875 67.214844 C 244.109375 63.785156 243.035156 60.414062 243.007812 55.683594 C 242.992188 53.234375 243.15625 52.027344 243.734375 50.375 C 244.726562 47.578125 246.191406 45.320312 248.527344 42.980469 C 251.574219 39.945312 254.652344 38.332031 258.679688 37.671875 C 260.25 37.417969 263.3125 37.511719 265.058594 37.859375 Z M 265.058594 37.859375 " fill-opacity="1" fill-rule="nonzero"/></g><g clip-path="url(#61c17b719d)"><path fill="#0e74bb" d="M 96.550781 32.875 L 95.328125 32.914062 L 74.390625 55.707031 C 62.878906 68.25 53.414062 78.585938 53.359375 78.691406 C 53.265625 78.839844 53.800781 78.867188 56.378906 78.867188 L 59.523438 78.867188 L 76.96875 60.050781 L 94.429688 41.246094 L 94.46875 60.117188 L 94.496094 79 L 99.195312 79 L 99.195312 32.925781 L 98.484375 32.875 C 98.109375 32.859375 97.234375 32.847656 96.550781 32.875 Z M 96.550781 32.875 " fill-opacity="1" fill-rule="nonzero"/></g><g clip-path="url(#447a026f41)"><path fill="#0e74bb" d="M 331.457031 33.464844 C 331.632812 33.855469 334.734375 40.574219 338.375 48.398438 L 344.96875 62.605469 L 344.96875 78.867188 L 349.804688 78.867188 L 349.804688 62.402344 L 356.320312 48.746094 L 362.832031 35.105469 L 362.832031 32.765625 L 360.722656 32.765625 L 358.601562 32.78125 L 353.027344 44.460938 C 349.964844 50.882812 347.425781 56.152344 347.386719 56.152344 C 347.347656 56.152344 344.847656 50.882812 341.8125 44.460938 L 336.308594 32.765625 L 331.136719 32.765625 Z M 331.457031 33.464844 " fill-opacity="1" fill-rule="nonzero"/></g><g clip-path="url(#0b7f193a43)"><path fill="#0e74bb" d="M 135.996094 35.253906 L 135.996094 37.605469 L 147.277344 37.605469 L 147.277344 78.867188 L 151.976562 78.867188 L 151.976562 37.605469 L 163.394531 37.605469 L 163.394531 32.902344 L 135.996094 32.902344 Z M 135.996094 35.253906 " fill-opacity="1" fill-rule="nonzero"/></g><g clip-path="url(#d1139a648a)"><path fill="#0e74bb" d="M 215.234375 55.882812 L 215.234375 78.867188 L 238.066406 78.867188 L 238.066406 74.296875 L 220.070312 74.296875 L 220.070312 32.902344 L 215.234375 32.902344 Z M 215.234375 55.882812 " fill-opacity="1" fill-rule="nonzero"/></g><g clip-path="url(#6794d5698d)"><path fill="#0e74bb" d="M 31.0625 33.304688 C 27.882812 33.816406 24.699219 35.066406 22.171875 36.8125 C 17.742188 39.890625 14.332031 44.863281 12.933594 50.304688 C 12.328125 52.699219 12.234375 53.503906 12.25 56.554688 C 12.25 59 12.300781 59.648438 12.542969 60.777344 C 13.1875 63.679688 14.625 67.148438 16.128906 69.378906 C 18.050781 72.265625 21.179688 75.078125 24.390625 76.824219 C 29.144531 79.402344 35.105469 79.835938 40.71875 77.992188 C 46.160156 76.207031 50.484375 72.429688 53.128906 67.171875 C 54.058594 65.320312 54.472656 64.070312 54.472656 63.15625 L 54.472656 62.375 L 52.527344 61.664062 C 51.453125 61.273438 50.539062 60.976562 50.511719 61.019531 C 50.484375 61.042969 50.230469 61.703125 49.972656 62.46875 C 49.007812 65.25 47.609375 67.484375 45.554688 69.527344 C 43.488281 71.582031 40.816406 73.207031 38.355469 73.878906 C 35.414062 74.699219 31.695312 74.511719 28.6875 73.394531 C 22.816406 71.21875 18.707031 66.300781 17.3125 59.78125 C 17.125 58.894531 17.070312 58.0625 17.070312 56.019531 C 17.082031 53.667969 17.125 53.234375 17.433594 51.890625 C 18.707031 46.503906 21.90625 42.1875 26.402344 39.78125 C 30.660156 37.496094 36.113281 37.308594 40.652344 39.273438 C 44.425781 40.910156 47.960938 44.726562 49.71875 49.070312 C 50 49.769531 50.203125 50.050781 50.511719 50.210938 C 51.140625 50.535156 52.136719 50.480469 52.929688 50.0625 C 53.304688 49.875 53.761719 49.648438 53.976562 49.582031 C 54.3125 49.445312 54.339844 49.390625 54.339844 48.667969 C 54.339844 46.261719 51.074219 41.152344 47.691406 38.261719 C 44.761719 35.761719 41.902344 34.324219 38.328125 33.558594 C 36.90625 33.25 32.40625 33.089844 31.0625 33.304688 Z M 31.0625 33.304688 " fill-opacity="1" fill-rule="nonzero"/></g><path fill="#0e74bb" d="M 103.628906 56.019531 L 103.628906 78.867188 L 108.460938 78.867188 L 108.460938 38.007812 L 114.585938 38.007812 C 119.570312 38.007812 120.859375 38.046875 121.492188 38.210938 C 124.847656 39.082031 128.273438 42.09375 130.019531 45.722656 C 130.824219 47.402344 130.957031 48.128906 130.945312 50.777344 C 130.945312 53.503906 130.796875 54.191406 129.882812 56.003906 C 127.535156 60.667969 123.785156 63.167969 118.386719 63.664062 C 117.542969 63.746094 116.816406 63.8125 116.761719 63.8125 C 116.695312 63.8125 116.65625 64.808594 116.65625 66.019531 L 116.65625 68.222656 L 117.367188 68.328125 C 118.628906 68.503906 120.550781 68.421875 121.757812 68.140625 C 126.929688 66.90625 130.933594 63.894531 133.605469 59.242188 C 135.164062 56.527344 136.007812 52.457031 135.710938 49.054688 C 135.335938 44.753906 133.632812 41.125 130.648438 38.25 C 128.058594 35.761719 124.96875 34.097656 121.785156 33.4375 C 120.523438 33.183594 119.960938 33.167969 112.035156 33.167969 L 103.628906 33.167969 Z M 103.628906 56.019531 " fill-opacity="1" fill-rule="nonzero"/><g clip-path="url(#e3bbd2072f)"><path fill="#0e74bb" d="M 307.769531 33.265625 C 302.597656 33.773438 298.566406 35.628906 295.0625 39.136719 C 292.109375 42.09375 290.390625 44.890625 289.113281 48.773438 C 286.964844 55.332031 287.863281 62.914062 291.515625 68.855469 C 294.070312 73.019531 298.234375 76.394531 302.785156 77.980469 C 305.324219 78.867188 306.53125 79.054688 309.714844 79.054688 C 312.1875 79.066406 312.710938 79.027344 313.933594 78.757812 C 320.339844 77.320312 325.601562 73.222656 328.960938 67.039062 C 329.980469 65.183594 330.238281 64.3125 330.25 62.804688 C 330.265625 62.066406 330.210938 61.234375 330.15625 60.949219 L 330.046875 60.453125 L 313.945312 60.453125 L 313.945312 65.023438 L 319.265625 65.023438 C 323.617188 65.023438 324.570312 65.050781 324.515625 65.199219 C 324.273438 65.84375 322.515625 68.289062 321.640625 69.203125 C 319.789062 71.152344 317.625 72.496094 314.886719 73.410156 C 310.050781 75.023438 304.679688 74.390625 300.757812 71.730469 C 298.367188 70.101562 296.003906 67.402344 294.6875 64.78125 C 294.109375 63.640625 293.382812 61.515625 293.0625 60.050781 C 292.765625 58.691406 292.644531 54.769531 292.859375 53.316406 C 293.238281 50.710938 294.015625 48.53125 295.304688 46.488281 C 296.824219 44.054688 298.863281 41.769531 300.382812 40.804688 C 301.375 40.171875 303.496094 39.109375 304.410156 38.789062 C 306.050781 38.222656 307.660156 37.996094 310.117188 37.996094 C 311.691406 37.996094 312.214844 38.046875 313.316406 38.332031 C 318.820312 39.742188 323.496094 43.921875 325.507812 49.257812 C 325.804688 50.050781 325.84375 50.089844 326.476562 50.292969 C 327.28125 50.5625 327.296875 50.5625 328.140625 50.304688 C 328.53125 50.183594 329.070312 49.875 329.445312 49.554688 C 329.980469 49.082031 330.0625 48.933594 330.0625 48.476562 C 330.0625 47.054688 328.410156 43.773438 326.367188 41.167969 C 322.945312 36.773438 317.652344 33.921875 311.769531 33.304688 C 310.574219 33.183594 308.773438 33.15625 307.769531 33.265625 Z M 307.769531 33.265625 " fill-opacity="1" fill-rule="nonzero"/></g></svg>