<svg xmlns="http://www.w3.org/2000/svg" xmlns:xlink="http://www.w3.org/1999/xlink" width="500" zoomAndPan="magnify" viewBox="0 0 375 112.499997" height="150" preserveAspectRatio="xMidYMid meet" version="1.0"><path fill="#000000" d="M 93.777344 99.703125 C 86.671875 99.703125 81.222656 97.925781 77.390625 94.410156 C 73.59375 90.894531 71.695312 85.84375 71.695312 79.339844 C 71.695312 72.957031 73.472656 67.867188 76.984375 64.070312 C 80.539062 60.273438 85.460938 58.371094 91.839844 58.371094 C 97.613281 58.371094 101.972656 59.988281 104.878906 63.222656 C 107.785156 66.453125 109.238281 71.058594 109.238281 77.078125 L 109.238281 81.441406 L 83.523438 81.441406 C 83.644531 83.257812 84.007812 84.753906 84.613281 85.964844 C 85.261719 87.179688 86.066406 88.148438 87.078125 88.875 C 88.085938 89.601562 89.257812 90.128906 90.589844 90.410156 C 91.921875 90.734375 93.414062 90.855469 94.988281 90.855469 C 96.363281 90.855469 97.695312 90.695312 99.027344 90.410156 C 100.359375 90.085938 101.570312 89.683594 102.660156 89.15625 C 103.628906 88.714844 104.515625 88.230469 105.324219 87.746094 C 106.128906 87.21875 106.816406 86.773438 107.339844 86.371094 L 108.59375 86.371094 L 108.59375 96.429688 C 107.625 96.835938 106.734375 97.199219 105.96875 97.519531 C 105.160156 97.84375 104.070312 98.207031 102.699219 98.53125 C 101.40625 98.894531 100.117188 99.136719 98.742188 99.339844 C 97.371094 99.582031 95.714844 99.703125 93.777344 99.703125 Z M 97.695312 74.089844 C 97.613281 71.503906 97.046875 69.5625 95.957031 68.191406 C 94.867188 66.855469 93.210938 66.171875 90.953125 66.171875 C 88.691406 66.171875 86.875 66.898438 85.582031 68.3125 C 84.292969 69.726562 83.566406 71.664062 83.445312 74.089844 Z M 97.695312 74.089844 " fill-opacity="1" fill-rule="nonzero"/><path fill="#000000" d="M 152.714844 98.652344 L 140.886719 98.652344 L 140.886719 79.261719 C 140.886719 77.683594 140.804688 76.109375 140.683594 74.53125 C 140.5625 72.957031 140.320312 71.828125 140 71.058594 C 139.59375 70.167969 139.03125 69.5625 138.261719 69.160156 C 137.496094 68.796875 136.484375 68.59375 135.195312 68.59375 C 134.226562 68.59375 133.257812 68.796875 132.289062 69.160156 C 131.320312 69.523438 130.269531 70.128906 129.140625 70.9375 L 129.140625 98.652344 L 117.394531 98.652344 L 117.394531 59.585938 L 129.140625 59.585938 L 129.140625 63.90625 C 131.078125 62.210938 132.933594 60.878906 134.75 59.949219 C 136.566406 59.019531 138.585938 58.535156 140.804688 58.535156 C 144.640625 58.535156 147.585938 59.785156 149.644531 62.292969 C 151.703125 64.796875 152.714844 68.472656 152.714844 73.242188 Z M 152.714844 98.652344 " fill-opacity="1" fill-rule="nonzero"/><path fill="#000000" d="M 197.964844 79.140625 C 197.964844 85.5625 196.269531 90.652344 192.878906 94.328125 C 189.488281 98.046875 184.683594 99.863281 178.46875 99.863281 C 172.332031 99.863281 167.527344 98.007812 164.136719 94.328125 C 160.746094 90.613281 159.011719 85.5625 159.011719 79.140625 C 159.011719 72.632812 160.707031 67.542969 164.136719 63.867188 C 167.570312 60.191406 172.332031 58.332031 178.46875 58.332031 C 184.644531 58.332031 189.449219 60.191406 192.839844 63.867188 C 196.269531 67.625 197.964844 72.675781 197.964844 79.140625 Z M 185.894531 79.21875 C 185.894531 76.917969 185.695312 74.976562 185.332031 73.441406 C 184.96875 71.90625 184.441406 70.65625 183.796875 69.726562 C 183.109375 68.753906 182.304688 68.070312 181.457031 67.707031 C 180.566406 67.339844 179.597656 67.140625 178.46875 67.140625 C 177.417969 67.140625 176.449219 67.300781 175.601562 67.664062 C 174.753906 67.988281 173.988281 68.632812 173.261719 69.605469 C 172.574219 70.492188 172.050781 71.746094 171.644531 73.320312 C 171.242188 74.898438 171.039062 76.875 171.039062 79.261719 C 171.039062 81.644531 171.242188 83.582031 171.605469 85.039062 C 171.96875 86.53125 172.492188 87.703125 173.097656 88.550781 C 173.703125 89.441406 174.511719 90.128906 175.441406 90.53125 C 176.367188 90.9375 177.417969 91.136719 178.550781 91.136719 C 179.476562 91.136719 180.445312 90.9375 181.414062 90.53125 C 182.382812 90.128906 183.152344 89.480469 183.757812 88.671875 C 184.441406 87.664062 184.96875 86.492188 185.332031 85.078125 C 185.734375 83.625 185.894531 81.683594 185.894531 79.21875 Z M 185.894531 79.21875 " fill-opacity="1" fill-rule="nonzero"/><path fill="#000000" d="M 229.734375 38.898438 L 229.734375 61.441406 C 228.039062 60.554688 225.335938 59.222656 223.839844 58.816406 C 222.550781 58.492188 220.976562 58.171875 218.996094 58.171875 C 216.816406 58.171875 214.757812 58.65625 212.820312 59.664062 C 210.882812 60.636719 209.226562 61.96875 207.855469 63.664062 C 207.53125 64.070312 207.210938 64.515625 206.925781 64.917969 C 204.222656 68.472656 202.851562 73.117188 202.851562 78.9375 C 202.851562 85.359375 204.546875 90.410156 207.976562 94.128906 C 211.40625 97.84375 216.171875 99.664062 222.347656 99.664062 C 228.5625 99.664062 233.328125 97.804688 236.71875 94.128906 C 239.988281 90.53125 241.722656 85.683594 241.84375 79.503906 L 241.84375 38.898438 Z M 229.25 84.875 C 228.886719 86.289062 228.363281 87.460938 227.675781 88.472656 C 227.109375 89.320312 226.304688 89.925781 225.335938 90.328125 C 224.367188 90.734375 223.398438 90.976562 222.46875 90.976562 C 221.339844 90.976562 220.289062 90.773438 219.359375 90.328125 C 218.429688 89.925781 217.625 89.238281 217.019531 88.351562 C 216.414062 87.460938 215.929688 86.289062 215.566406 84.835938 C 215.203125 83.382812 215 81.441406 215 79.058594 C 215 76.675781 215.203125 74.695312 215.605469 73.117188 C 216.007812 71.542969 216.535156 70.292969 217.21875 69.402344 C 217.945312 68.433594 218.714844 67.785156 219.5625 67.464844 C 220.410156 67.140625 221.339844 66.976562 222.429688 66.976562 C 223.558594 66.976562 224.527344 67.179688 225.414062 67.542969 C 226.304688 67.90625 227.070312 68.59375 227.757812 69.5625 C 228.402344 70.492188 228.925781 71.746094 229.289062 73.28125 C 229.652344 74.816406 229.855469 76.753906 229.855469 79.058594 C 229.773438 81.523438 229.574219 83.460938 229.25 84.875 Z M 229.25 84.875 " fill-opacity="1" fill-rule="nonzero"/><path fill="#000000" d="M 53.492188 38.898438 L 53.492188 61.441406 C 51.796875 60.554688 49.089844 59.222656 47.597656 58.816406 C 46.304688 58.492188 44.730469 58.171875 42.753906 58.171875 C 40.574219 58.171875 38.515625 58.65625 36.578125 59.664062 C 34.640625 60.636719 32.984375 61.96875 31.613281 63.664062 C 31.289062 64.070312 30.964844 64.515625 30.683594 64.917969 C 27.980469 68.511719 26.605469 73.160156 26.605469 78.976562 C 26.605469 85.402344 28.300781 90.449219 31.734375 94.167969 C 35.164062 97.886719 39.929688 99.703125 46.105469 99.703125 C 52.320312 99.703125 57.085938 97.84375 60.476562 94.167969 C 63.746094 90.570312 65.480469 85.722656 65.601562 79.542969 L 65.601562 38.898438 Z M 52.964844 84.875 C 52.601562 86.289062 52.078125 87.460938 51.390625 88.472656 C 50.828125 89.320312 50.019531 89.925781 49.050781 90.328125 C 48.082031 90.734375 47.113281 90.976562 46.183594 90.976562 C 45.054688 90.976562 44.003906 90.773438 43.078125 90.328125 C 42.148438 89.925781 41.339844 89.238281 40.734375 88.351562 C 40.128906 87.460938 39.644531 86.289062 39.242188 84.835938 C 38.839844 83.382812 38.675781 81.441406 38.675781 79.058594 C 38.675781 76.675781 38.878906 74.695312 39.28125 73.117188 C 39.6875 71.542969 40.210938 70.292969 40.898438 69.402344 C 41.625 68.433594 42.390625 67.785156 43.238281 67.464844 C 44.085938 67.140625 45.015625 66.976562 46.105469 66.976562 C 47.234375 66.976562 48.203125 67.179688 49.089844 67.542969 C 49.980469 67.90625 50.746094 68.59375 51.433594 69.5625 C 52.078125 70.492188 52.601562 71.746094 52.964844 73.28125 C 53.328125 74.816406 53.53125 76.753906 53.53125 79.058594 C 53.492188 81.523438 53.328125 83.460938 52.964844 84.875 Z M 52.964844 84.875 " fill-opacity="1" fill-rule="nonzero"/><path fill="#000000" d="M 287.097656 78.976562 C 287.097656 85.402344 285.402344 90.449219 282.007812 94.167969 C 278.617188 97.886719 273.816406 99.703125 267.597656 99.703125 C 261.460938 99.703125 256.660156 97.84375 253.226562 94.167969 C 249.796875 90.449219 248.101562 85.402344 248.101562 78.976562 C 248.101562 72.472656 249.796875 67.382812 253.226562 63.707031 C 256.660156 60.027344 261.421875 58.171875 267.597656 58.171875 C 273.773438 58.171875 278.578125 60.027344 281.96875 63.707031 C 285.402344 67.421875 287.097656 72.511719 287.097656 78.976562 Z M 275.066406 79.019531 C 275.066406 76.714844 274.863281 74.777344 274.5 73.242188 C 274.136719 71.703125 273.613281 70.453125 272.96875 69.523438 C 272.28125 68.554688 271.472656 67.867188 270.625 67.503906 C 269.738281 67.140625 268.769531 66.9375 267.640625 66.9375 C 266.589844 66.9375 265.621094 67.097656 264.773438 67.464844 C 263.925781 67.785156 263.117188 68.433594 262.433594 69.402344 C 261.746094 70.292969 261.21875 71.542969 260.816406 73.117188 C 260.414062 74.695312 260.210938 76.675781 260.210938 79.058594 C 260.210938 81.441406 260.414062 83.382812 260.777344 84.835938 C 261.140625 86.332031 261.664062 87.5 262.269531 88.351562 C 262.875 89.238281 263.683594 89.925781 264.613281 90.328125 C 265.539062 90.734375 266.589844 90.9375 267.71875 90.9375 C 268.648438 90.9375 269.617188 90.734375 270.585938 90.328125 C 271.554688 89.925781 272.320312 89.28125 272.925781 88.429688 C 273.613281 87.421875 274.136719 86.25 274.5 84.835938 C 274.863281 83.460938 275.066406 81.523438 275.066406 79.019531 Z M 275.066406 79.019531 " fill-opacity="1" fill-rule="nonzero"/><path fill="#e94734" d="M 297.429688 48.71875 L 303.484375 59.058594 L 292.988281 65.039062 L 286.933594 54.695312 Z M 297.429688 48.71875 " fill-opacity="1" fill-rule="nonzero"/><path fill="#e94734" d="M 310.144531 62.855469 L 322.253906 62.855469 L 322.253906 74.855469 L 310.144531 74.855469 Z M 310.144531 62.855469 " fill-opacity="1" fill-rule="nonzero"/><path fill="#e94734" d="M 328.957031 59.058594 L 335.011719 48.71875 L 345.507812 54.695312 L 339.453125 65.039062 Z M 328.957031 59.058594 " fill-opacity="1" fill-rule="nonzero"/><path fill="#e94734" d="M 335.011719 41.082031 L 328.957031 30.699219 L 339.453125 24.71875 L 345.507812 35.101562 Z M 335.011719 41.082031 " fill-opacity="1" fill-rule="nonzero"/><path fill="#231f20" d="M 310.144531 38.898438 L 322.253906 38.898438 L 322.253906 50.898438 L 310.144531 50.898438 Z M 310.144531 38.898438 " fill-opacity="1" fill-rule="nonzero"/><path fill="#e94734" d="M 310.144531 14.941406 L 322.253906 14.941406 L 322.253906 26.941406 L 310.144531 26.941406 Z M 310.144531 14.941406 " fill-opacity="1" fill-rule="nonzero"/><path fill="#e94734" d="M 303.484375 30.699219 L 297.429688 41.082031 L 286.933594 35.101562 L 292.988281 24.71875 Z M 303.484375 30.699219 " fill-opacity="1" fill-rule="nonzero"/></svg>