<svg xmlns="http://www.w3.org/2000/svg" xmlns:xlink="http://www.w3.org/1999/xlink" width="500" zoomAndPan="magnify" viewBox="0 0 375 112.499997" height="150" preserveAspectRatio="xMidYMid meet" version="1.0"><path fill="#2f4050" d="M 361.164062 61.394531 L 361.164062 43.359375 C 361.164062 41.957031 359.96875 41.628906 358.632812 41.210938 C 356.121094 40.457031 353.550781 40.082031 350.925781 40.085938 C 349.179688 40.085938 347.445312 40.242188 345.726562 40.554688 C 344.523438 40.722656 343.371094 41.066406 342.269531 41.582031 C 341.167969 42.097656 340.167969 42.765625 339.265625 43.582031 C 338.367188 44.398438 337.605469 45.328125 336.984375 46.375 C 336.367188 47.421875 335.914062 48.535156 335.628906 49.71875 C 334.535156 53.941406 334.570312 58.160156 335.730469 62.363281 C 335.992188 63.355469 336.378906 64.292969 336.882812 65.183594 C 337.386719 66.070312 338 66.882812 338.714844 67.613281 C 339.429688 68.34375 340.222656 68.972656 341.101562 69.5 C 341.980469 70.023438 342.910156 70.429688 343.890625 70.714844 C 345.160156 71.128906 346.457031 71.382812 347.789062 71.476562 C 348.535156 71.476562 349.367188 71.476562 350.351562 71.476562 C 351.523438 71.503906 352.679688 71.382812 353.816406 71.113281 C 355.066406 70.800781 355.65625 70.28125 355.65625 71.113281 C 355.65625 73.574219 353.195312 76.625 346.992188 76.136719 C 345.726562 76.035156 345.261719 76.136719 345.261719 76.953125 L 345.261719 79.8125 C 345.261719 80.710938 346.039062 80.78125 346.992188 80.886719 C 355.117188 81.785156 361.164062 75.859375 361.164062 69.363281 Z M 355.707031 65.03125 C 355.707031 66.28125 355.601562 66.851562 354.390625 67.128906 C 352.929688 67.449219 351.449219 67.59375 349.953125 67.5625 C 349.289062 67.5625 348.625 67.527344 347.960938 67.457031 C 347.269531 67.328125 346.605469 67.117188 345.964844 66.820312 C 345.328125 66.523438 344.734375 66.152344 344.1875 65.707031 C 343.640625 65.261719 343.160156 64.757812 342.738281 64.191406 C 342.320312 63.625 341.976562 63.015625 341.707031 62.363281 C 341.070312 60.859375 340.660156 59.292969 340.480469 57.667969 C 340.300781 56.042969 340.359375 54.425781 340.652344 52.820312 C 340.792969 51.972656 341.023438 51.152344 341.34375 50.359375 C 341.597656 49.550781 341.96875 48.796875 342.460938 48.105469 C 342.949219 47.410156 343.535156 46.8125 344.214844 46.300781 C 344.894531 45.792969 345.632812 45.402344 346.4375 45.128906 C 347.242188 44.851562 348.066406 44.707031 348.914062 44.695312 C 350.589844 44.570312 352.246094 44.695312 353.886719 45.058594 C 354.859375 45.28125 355.621094 45.527344 355.621094 46.425781 L 355.621094 65.03125 Z M 355.707031 65.03125 " fill-opacity="1" fill-rule="nonzero"/><path fill="#2f4050" d="M 269.984375 61.964844 C 269.878906 60.734375 269.5 59.589844 268.851562 58.539062 C 268.203125 57.484375 267.347656 56.636719 266.292969 55.988281 C 265.203125 55.332031 264.046875 54.8125 262.828125 54.429688 C 260.28125 53.9375 257.8125 53.191406 255.414062 52.195312 C 255.015625 51.914062 254.703125 51.558594 254.472656 51.128906 C 254.246094 50.699219 254.125 50.238281 254.117188 49.753906 C 254.082031 49.289062 254.125 48.835938 254.25 48.386719 C 254.371094 47.941406 254.566406 47.527344 254.835938 47.148438 C 255.101562 46.769531 255.425781 46.445312 255.804688 46.179688 C 256.183594 45.914062 256.597656 45.71875 257.042969 45.59375 C 258.816406 45.175781 260.546875 45.300781 262.242188 45.976562 C 264.335938 46.617188 265.496094 47.273438 266.398438 47.570312 C 266.96875 47.761719 267.457031 47.777344 267.664062 47.085938 C 267.765625 46.722656 268.496094 44.746094 268.617188 44.382812 C 268.824219 43.6875 268.617188 43.429688 267.835938 43.101562 C 265.058594 41.726562 262.117188 41.011719 259.019531 40.953125 C 258.242188 40.941406 257.464844 40.996094 256.695312 41.109375 C 254.585938 41.457031 252.773438 42.386719 251.257812 43.898438 C 250.632812 44.621094 250.140625 45.421875 249.78125 46.308594 C 249.421875 47.195312 249.214844 48.113281 249.160156 49.070312 C 249.105469 50.023438 249.203125 50.960938 249.460938 51.882812 C 249.714844 52.804688 250.113281 53.65625 250.652344 54.449219 C 251.859375 55.941406 253.382812 56.972656 255.222656 57.53125 C 258.011719 58.414062 261.632812 58.777344 262.863281 59.628906 C 263.238281 59.796875 263.570312 60.027344 263.863281 60.316406 C 264.152344 60.605469 264.386719 60.933594 264.558594 61.304688 C 264.734375 61.675781 264.839844 62.066406 264.875 62.476562 C 264.914062 62.882812 264.875 63.285156 264.769531 63.679688 C 264.675781 64.195312 264.464844 64.65625 264.140625 65.0625 C 263.8125 65.472656 263.414062 65.777344 262.933594 65.984375 C 262.300781 66.25 261.648438 66.453125 260.976562 66.59375 C 260.3125 66.714844 259.640625 66.785156 258.964844 66.800781 C 257.484375 66.773438 256.035156 66.542969 254.617188 66.105469 C 253.890625 65.898438 250.910156 64.84375 250.667969 64.773438 C 249.941406 64.546875 249.800781 64.964844 249.609375 65.484375 L 248.691406 68.359375 C 248.449219 69.121094 248.691406 69.3125 249.886719 69.761719 C 252.707031 70.933594 255.640625 71.5625 258.6875 71.652344 C 260.480469 71.671875 262.242188 71.457031 263.972656 71.011719 C 265.148438 70.761719 266.195312 70.25 267.117188 69.476562 C 268.035156 68.703125 268.722656 67.757812 269.171875 66.644531 C 269.835938 65.152344 270.109375 63.59375 269.984375 61.964844 Z M 269.984375 61.964844 " fill-opacity="1" fill-rule="nonzero"/><path fill="#2f4050" d="M 114.238281 32.636719 L 117.910156 32.636719 C 118.164062 32.636719 118.378906 32.726562 118.558594 32.90625 C 118.738281 33.085938 118.828125 33.300781 118.828125 33.554688 L 118.828125 37.226562 C 118.828125 37.480469 118.738281 37.695312 118.558594 37.875 C 118.378906 38.054688 118.164062 38.144531 117.910156 38.144531 L 114.238281 38.144531 C 113.984375 38.144531 113.765625 38.054688 113.589844 37.875 C 113.410156 37.695312 113.320312 37.480469 113.320312 37.226562 L 113.320312 33.554688 C 113.320312 33.300781 113.410156 33.085938 113.589844 32.90625 C 113.765625 32.726562 113.984375 32.636719 114.238281 32.636719 Z M 114.238281 32.636719 " fill-opacity="1" fill-rule="nonzero"/><path fill="#2f4050" d="M 114.238281 42.492188 L 117.910156 42.492188 C 118.164062 42.492188 118.378906 42.582031 118.558594 42.761719 C 118.738281 42.941406 118.828125 43.160156 118.828125 43.410156 L 118.828125 70.351562 C 118.828125 70.605469 118.738281 70.820312 118.558594 71 C 118.378906 71.179688 118.164062 71.269531 117.910156 71.269531 L 114.238281 71.269531 C 113.984375 71.269531 113.765625 71.179688 113.589844 71 C 113.410156 70.820312 113.320312 70.605469 113.320312 70.351562 L 113.320312 43.410156 C 113.320312 43.160156 113.410156 42.941406 113.589844 42.761719 C 113.765625 42.582031 113.984375 42.492188 114.238281 42.492188 Z M 114.238281 42.492188 " fill-opacity="1" fill-rule="nonzero"/><path fill="#2f4050" d="M 294.464844 32.636719 L 298.136719 32.636719 C 298.390625 32.636719 298.605469 32.726562 298.785156 32.90625 C 298.964844 33.085938 299.054688 33.300781 299.054688 33.554688 L 299.054688 37.226562 C 299.054688 37.480469 298.964844 37.695312 298.785156 37.875 C 298.605469 38.054688 298.390625 38.144531 298.136719 38.144531 L 294.464844 38.144531 C 294.210938 38.144531 293.996094 38.054688 293.816406 37.875 C 293.636719 37.695312 293.546875 37.480469 293.546875 37.226562 L 293.546875 33.554688 C 293.546875 33.300781 293.636719 33.085938 293.816406 32.90625 C 293.996094 32.726562 294.210938 32.636719 294.464844 32.636719 Z M 294.464844 32.636719 " fill-opacity="1" fill-rule="nonzero"/><path fill="#2f4050" d="M 294.464844 42.425781 L 298.136719 42.425781 C 298.390625 42.425781 298.605469 42.515625 298.785156 42.691406 C 298.964844 42.871094 299.054688 43.089844 299.054688 43.34375 L 299.054688 70.28125 C 299.054688 70.535156 298.964844 70.753906 298.785156 70.929688 C 298.605469 71.109375 298.390625 71.199219 298.136719 71.199219 L 294.464844 71.199219 C 294.210938 71.199219 293.996094 71.109375 293.816406 70.929688 C 293.636719 70.753906 293.546875 70.535156 293.546875 70.28125 L 293.546875 43.34375 C 293.546875 43.089844 293.636719 42.871094 293.816406 42.691406 C 293.996094 42.515625 294.210938 42.425781 294.464844 42.425781 Z M 294.464844 42.425781 " fill-opacity="1" fill-rule="nonzero"/><path fill="#2f4050" d="M 230.867188 41.507812 C 223.085938 41.507812 216.78125 46.703125 216.78125 56.507812 C 216.78125 66.316406 223.085938 71.496094 230.867188 71.496094 C 238.644531 71.496094 244.933594 66.609375 244.933594 56.507812 C 244.933594 47.015625 238.816406 41.507812 230.867188 41.507812 Z M 230.867188 67.492188 C 225.964844 67.492188 222.601562 63.007812 222.601562 56.578125 C 222.601562 49.820312 225.964844 45.648438 230.867188 45.648438 C 235.769531 45.648438 239.128906 49.820312 239.128906 56.578125 C 239.128906 63.578125 235.769531 67.421875 230.867188 67.421875 Z M 230.867188 67.492188 " fill-opacity="1" fill-rule="nonzero"/><path fill="#2f4050" d="M 212.777344 57.460938 C 212.78125 55.960938 212.6875 54.464844 212.503906 52.976562 C 212.453125 52.28125 212.34375 51.59375 212.171875 50.921875 C 212.003906 50.246094 211.777344 49.589844 211.492188 48.953125 C 211.210938 48.316406 210.871094 47.710938 210.484375 47.132812 C 210.09375 46.558594 209.65625 46.019531 209.171875 45.519531 C 208.6875 45.015625 208.164062 44.5625 207.601562 44.152344 C 207.035156 43.746094 206.441406 43.386719 205.816406 43.082031 C 205.191406 42.777344 204.542969 42.527344 203.871094 42.335938 C 203.203125 42.144531 202.523438 42.011719 201.828125 41.9375 C 200.316406 41.679688 198.792969 41.550781 197.257812 41.558594 C 195.699219 41.5625 194.152344 41.6875 192.613281 41.9375 C 192.519531 41.949219 192.441406 41.921875 192.371094 41.859375 C 192.300781 41.796875 192.265625 41.722656 192.265625 41.628906 L 192.265625 33.605469 C 192.265625 33.351562 192.175781 33.136719 191.996094 32.957031 C 191.820312 32.777344 191.601562 32.6875 191.347656 32.6875 L 187.660156 32.6875 C 187.40625 32.6875 187.1875 32.777344 187.007812 32.957031 C 186.828125 33.136719 186.742188 33.351562 186.742188 33.605469 L 186.742188 70.335938 C 186.742188 70.585938 186.828125 70.804688 187.007812 70.984375 C 187.1875 71.164062 187.40625 71.253906 187.660156 71.253906 L 191.332031 71.253906 C 191.585938 71.253906 191.800781 71.164062 191.980469 70.984375 C 192.160156 70.804688 192.25 70.585938 192.25 70.335938 L 192.25 47.8125 C 192.25 46.773438 192.542969 46.601562 193.359375 46.445312 C 194.847656 46.1875 196.351562 46.054688 197.863281 46.046875 C 198.875 46.035156 199.878906 46.109375 200.878906 46.269531 C 201.542969 46.460938 202.175781 46.734375 202.773438 47.089844 C 203.371094 47.445312 203.917969 47.867188 204.40625 48.359375 C 204.894531 48.851562 205.316406 49.398438 205.664062 50 C 206.015625 50.597656 206.285156 51.230469 206.472656 51.902344 C 207.035156 53.636719 207.289062 55.414062 207.234375 57.238281 C 207.234375 60.027344 207.234375 70.351562 207.234375 70.351562 C 207.234375 70.605469 207.324219 70.820312 207.503906 71 C 207.683594 71.179688 207.898438 71.269531 208.152344 71.269531 L 211.914062 71.269531 C 212.167969 71.269531 212.382812 71.179688 212.5625 71 C 212.742188 70.820312 212.832031 70.605469 212.832031 70.351562 Z M 212.777344 57.460938 " fill-opacity="1" fill-rule="nonzero"/><path fill="#2f4050" d="M 281.039062 47.605469 L 288.382812 47.605469 C 288.636719 47.605469 288.851562 47.515625 289.03125 47.335938 C 289.210938 47.15625 289.300781 46.941406 289.300781 46.6875 L 289.300781 43.34375 C 289.300781 43.089844 289.210938 42.871094 289.03125 42.691406 C 288.851562 42.515625 288.636719 42.425781 288.382812 42.425781 L 281.039062 42.425781 C 280.785156 42.425781 280.566406 42.335938 280.386719 42.15625 C 280.210938 41.976562 280.121094 41.761719 280.121094 41.507812 L 280.121094 33.554688 C 280.121094 33.300781 280.03125 33.085938 279.851562 32.90625 C 279.671875 32.726562 279.453125 32.636719 279.203125 32.636719 L 275.527344 32.636719 C 275.273438 32.636719 275.058594 32.726562 274.878906 32.90625 C 274.699219 33.085938 274.609375 33.300781 274.609375 33.554688 L 274.609375 52.90625 C 274.609375 59.472656 273.691406 71.269531 286.546875 71.269531 L 288.382812 71.269531 C 288.636719 71.269531 288.851562 71.179688 289.03125 71 C 289.210938 70.820312 289.300781 70.605469 289.300781 70.351562 L 289.300781 66.886719 C 289.300781 66.632812 289.210938 66.417969 289.03125 66.238281 C 288.851562 66.058594 288.636719 65.96875 288.382812 65.96875 L 286.546875 65.96875 C 279.773438 65.96875 280.101562 60.925781 280.101562 54.1875 L 280.101562 48.523438 C 280.101562 48.265625 280.195312 48.046875 280.378906 47.867188 C 280.5625 47.6875 280.78125 47.601562 281.039062 47.605469 Z M 281.039062 47.605469 " fill-opacity="1" fill-rule="nonzero"/><path fill="#2f4050" d="M 151.746094 56.875 C 151.746094 55.367188 151.652344 53.863281 151.46875 52.367188 C 150.652344 46.183594 146.964844 42.683594 140.796875 41.644531 C 139.28125 41.398438 137.757812 41.277344 136.222656 41.28125 C 133.15625 41.3125 130.140625 41.722656 127.179688 42.511719 C 125.898438 42.859375 125.742188 43.222656 125.722656 44.46875 L 125.722656 70.230469 C 125.722656 70.484375 125.8125 70.699219 125.992188 70.878906 C 126.171875 71.058594 126.386719 71.148438 126.640625 71.148438 L 130.3125 71.148438 C 130.566406 71.148438 130.785156 71.058594 130.964844 70.878906 C 131.144531 70.699219 131.234375 70.484375 131.234375 70.230469 L 131.234375 47.34375 C 131.234375 46.289062 131.421875 46.0625 132.375 45.957031 C 133.785156 45.695312 135.203125 45.554688 136.636719 45.542969 C 137.671875 45.535156 138.699219 45.617188 139.722656 45.785156 C 140.390625 45.945312 141.03125 46.191406 141.636719 46.519531 C 142.242188 46.84375 142.796875 47.246094 143.296875 47.71875 C 143.796875 48.191406 144.230469 48.71875 144.59375 49.304688 C 144.957031 49.890625 145.238281 50.515625 145.4375 51.171875 C 146.011719 52.941406 146.269531 54.753906 146.21875 56.613281 C 146.21875 59.472656 146.21875 66.921875 146.21875 66.921875 L 146.21875 70.386719 C 146.21875 70.640625 146.308594 70.855469 146.488281 71.035156 C 146.667969 71.214844 146.882812 71.304688 147.136719 71.304688 L 150.808594 71.304688 C 151.0625 71.304688 151.277344 71.214844 151.457031 71.035156 C 151.636719 70.855469 151.726562 70.640625 151.726562 70.386719 L 151.726562 56.875 Z M 151.746094 56.875 " fill-opacity="1" fill-rule="nonzero"/><path fill="#2f4050" d="M 105.316406 32.636719 L 102.214844 32.636719 C 102.054688 32.636719 101.902344 32.671875 101.757812 32.734375 C 101.613281 32.796875 101.484375 32.882812 101.375 33 C 101.261719 33.113281 101.179688 33.242188 101.121094 33.390625 C 101.0625 33.539062 101.035156 33.691406 101.035156 33.847656 L 101.035156 42.390625 C 101.039062 42.5 101 42.589844 100.910156 42.660156 C 100.824219 42.726562 100.726562 42.75 100.621094 42.71875 C 98.40625 42.191406 96.15625 41.945312 93.882812 41.972656 C 86.222656 41.972656 80.230469 47.03125 80.230469 56.839844 C 80.230469 66.644531 86.34375 71.789062 94.609375 71.824219 C 96.878906 71.863281 99.136719 71.71875 101.382812 71.390625 C 102.746094 71.207031 104.070312 70.863281 105.351562 70.351562 C 105.957031 70.039062 106.546875 69.640625 106.546875 68.964844 L 106.546875 33.847656 C 106.546875 33.6875 106.519531 33.527344 106.457031 33.378906 C 106.394531 33.226562 106.304688 33.09375 106.1875 32.980469 C 106.074219 32.863281 105.9375 32.777344 105.789062 32.71875 C 105.636719 32.660156 105.476562 32.632812 105.316406 32.636719 Z M 94.78125 67.527344 C 93.523438 67.636719 92.3125 67.445312 91.152344 66.953125 C 89.988281 66.457031 89.007812 65.722656 88.214844 64.738281 C 87.3125 63.621094 86.640625 62.382812 86.195312 61.019531 C 85.75 59.652344 85.5625 58.253906 85.632812 56.820312 C 85.632812 52.976562 86.640625 50.324219 88.632812 48.558594 C 89.40625 47.75 90.3125 47.132812 91.34375 46.703125 C 92.378906 46.277344 93.457031 46.074219 94.574219 46.097656 C 99.945312 46.097656 101 47.449219 101 48.558594 L 101 65.03125 C 101.035156 66.902344 100.136719 67.527344 94.78125 67.527344 Z M 94.78125 67.527344 " fill-opacity="1" fill-rule="nonzero"/><path fill="#2f4050" d="M 181.058594 53.164062 C 181.058594 47.050781 178.09375 43.566406 174.128906 42.335938 C 172.910156 41.921875 171.664062 41.625 170.386719 41.453125 C 169.382812 41.351562 168.378906 41.316406 167.371094 41.351562 C 166.296875 41.351562 165.066406 41.472656 164.027344 41.59375 C 162.765625 41.769531 161.53125 42.058594 160.320312 42.460938 C 159.628906 42.667969 158.761719 43.046875 158.34375 43.203125 C 158.117188 43.277344 158.019531 43.433594 158.050781 43.671875 C 158.222656 44.242188 158.847656 46.355469 159.089844 47.136719 C 159.140625 47.226562 159.214844 47.285156 159.308594 47.316406 C 159.40625 47.34375 159.5 47.335938 159.59375 47.292969 L 161.1875 46.808594 C 163.308594 46.105469 165.484375 45.753906 167.71875 45.75 L 169.121094 45.75 C 170.433594 45.808594 171.671875 46.152344 172.828125 46.773438 C 173.328125 47.039062 173.773438 47.375 174.167969 47.777344 C 174.5625 48.179688 174.890625 48.632812 175.144531 49.136719 C 175.402344 49.640625 175.574219 50.171875 175.667969 50.730469 C 175.757812 51.285156 175.765625 51.84375 175.6875 52.402344 C 175.6875 52.492188 175.671875 52.574219 175.636719 52.652344 C 175.597656 52.734375 175.546875 52.800781 175.480469 52.855469 C 175.410156 52.914062 175.335938 52.953125 175.25 52.972656 C 175.164062 52.992188 175.078125 52.992188 174.996094 52.976562 C 173.421875 52.570312 171.820312 52.378906 170.195312 52.402344 C 160.71875 52.402344 155.953125 56.664062 155.953125 62.191406 C 155.953125 67.71875 161.152344 71.996094 170.957031 71.996094 C 174.257812 72.101562 177.433594 71.523438 180.484375 70.265625 C 180.835938 70.097656 181.007812 69.820312 181.007812 69.433594 L 181.007812 53.164062 Z M 175.703125 66.4375 C 175.714844 66.660156 175.652344 66.863281 175.507812 67.039062 C 175.367188 67.214844 175.183594 67.320312 174.960938 67.355469 C 174.429688 67.507812 173.894531 67.617188 173.347656 67.683594 C 172.085938 67.871094 170.8125 67.96875 169.539062 67.976562 C 168.242188 67.988281 166.964844 67.835938 165.707031 67.527344 C 164.398438 67.265625 163.296875 66.644531 162.398438 65.65625 C 161.574219 64.648438 161.167969 63.496094 161.1875 62.191406 C 161.097656 60.953125 161.429688 59.84375 162.191406 58.867188 C 163.222656 57.71875 164.492188 57 166.003906 56.699219 C 167.222656 56.382812 168.464844 56.238281 169.726562 56.265625 C 171.417969 56.296875 173.070312 56.5625 174.683594 57.0625 C 174.957031 57.15625 175.1875 57.316406 175.371094 57.542969 C 175.554688 57.765625 175.667969 58.023438 175.703125 58.3125 Z M 175.703125 66.4375 " fill-opacity="1" fill-rule="nonzero"/><path fill="#2f4050" d="M 331.261719 56.820312 C 331.257812 55.316406 331.171875 53.8125 331 52.316406 C 330.171875 46.132812 326.480469 42.613281 320.3125 41.59375 C 318.800781 41.332031 317.273438 41.207031 315.738281 41.210938 C 312.675781 41.242188 309.667969 41.660156 306.710938 42.460938 C 305.414062 42.804688 305.273438 43.152344 305.242188 44.398438 L 305.242188 70.230469 C 305.242188 70.484375 305.328125 70.699219 305.507812 70.878906 C 305.6875 71.058594 305.90625 71.148438 306.160156 71.148438 L 309.832031 71.148438 C 310.085938 71.148438 310.300781 71.058594 310.480469 70.878906 C 310.660156 70.699219 310.75 70.484375 310.75 70.230469 L 310.75 47.292969 C 310.75 46.234375 310.941406 46.011719 311.894531 45.890625 C 313.308594 45.625 314.734375 45.492188 316.171875 45.492188 C 317.199219 45.472656 318.222656 45.546875 319.238281 45.714844 C 319.914062 45.882812 320.554688 46.128906 321.164062 46.460938 C 321.773438 46.796875 322.328125 47.203125 322.832031 47.679688 C 323.335938 48.160156 323.769531 48.695312 324.132812 49.285156 C 324.496094 49.878906 324.773438 50.507812 324.972656 51.171875 C 325.535156 52.949219 325.792969 54.769531 325.753906 56.628906 L 325.753906 70.230469 C 325.753906 70.484375 325.84375 70.699219 326.019531 70.878906 C 326.199219 71.058594 326.417969 71.148438 326.671875 71.148438 L 330.34375 71.148438 C 330.597656 71.148438 330.8125 71.058594 330.992188 70.878906 C 331.171875 70.699219 331.261719 70.484375 331.261719 70.230469 Z M 331.261719 56.820312 " fill-opacity="1" fill-rule="nonzero"/><path fill="#fc6d0e" d="M 63.214844 66.59375 L 44.351562 33.933594 C 44.066406 33.4375 43.71875 32.988281 43.316406 32.582031 C 42.910156 32.175781 42.460938 31.828125 41.964844 31.542969 C 41.46875 31.257812 40.945312 31.039062 40.390625 30.890625 C 39.839844 30.742188 39.273438 30.667969 38.703125 30.667969 C 38.128906 30.667969 37.566406 30.742188 37.011719 30.890625 C 36.460938 31.039062 35.933594 31.257812 35.441406 31.542969 C 34.945312 31.828125 34.492188 32.175781 34.089844 32.582031 C 33.683594 32.988281 33.339844 33.4375 33.054688 33.933594 L 14.207031 66.59375 C 14.0625 66.839844 13.9375 67.09375 13.828125 67.359375 C 13.71875 67.621094 13.628906 67.890625 13.554688 68.164062 C 13.484375 68.441406 13.425781 68.71875 13.390625 69.003906 C 13.351562 69.285156 13.335938 69.570312 13.335938 69.851562 C 13.335938 70.136719 13.355469 70.421875 13.390625 70.703125 C 13.429688 70.988281 13.484375 71.265625 13.558594 71.539062 C 13.632812 71.816406 13.722656 72.085938 13.832031 72.347656 C 13.941406 72.613281 14.066406 72.867188 14.210938 73.113281 C 14.351562 73.359375 14.507812 73.597656 14.683594 73.824219 C 14.855469 74.046875 15.042969 74.261719 15.246094 74.464844 C 15.445312 74.664062 15.660156 74.851562 15.886719 75.027344 C 16.113281 75.199219 16.347656 75.359375 16.59375 75.5 C 16.839844 75.644531 17.097656 75.769531 17.359375 75.878906 C 17.621094 75.988281 17.890625 76.082031 18.164062 76.15625 C 18.441406 76.230469 18.71875 76.285156 19.003906 76.324219 C 19.285156 76.359375 19.566406 76.378906 19.851562 76.378906 L 57.550781 76.378906 C 57.835938 76.378906 58.121094 76.363281 58.402344 76.324219 C 58.6875 76.289062 58.964844 76.234375 59.242188 76.160156 C 59.515625 76.085938 59.785156 75.996094 60.050781 75.886719 C 60.3125 75.777344 60.570312 75.652344 60.816406 75.507812 C 61.0625 75.367188 61.300781 75.207031 61.527344 75.035156 C 61.753906 74.859375 61.96875 74.671875 62.167969 74.472656 C 62.371094 74.269531 62.558594 74.054688 62.734375 73.832031 C 62.90625 73.605469 63.066406 73.367188 63.207031 73.121094 C 63.351562 72.875 63.476562 72.617188 63.585938 72.355469 C 63.695312 72.09375 63.789062 71.824219 63.863281 71.546875 C 63.9375 71.273438 63.992188 70.992188 64.03125 70.710938 C 64.066406 70.425781 64.085938 70.144531 64.085938 69.859375 C 64.085938 69.574219 64.070312 69.289062 64.03125 69.003906 C 63.996094 68.722656 63.941406 68.441406 63.867188 68.167969 C 63.792969 67.890625 63.703125 67.621094 63.59375 67.359375 C 63.484375 67.09375 63.359375 66.839844 63.214844 66.59375 Z M 52.421875 70.957031 L 25 70.957031 C 24.265625 70.960938 23.578125 70.78125 22.941406 70.414062 C 22.304688 70.050781 21.804688 69.550781 21.4375 68.914062 C 21.070312 68.277344 20.886719 67.59375 20.890625 66.859375 C 20.890625 66.125 21.078125 65.441406 21.445312 64.808594 L 35.203125 41.039062 C 35.292969 40.882812 35.390625 40.734375 35.5 40.59375 C 35.609375 40.453125 35.730469 40.316406 35.855469 40.191406 C 35.980469 40.066406 36.117188 39.945312 36.257812 39.839844 C 36.402344 39.730469 36.550781 39.628906 36.703125 39.539062 C 36.859375 39.453125 37.019531 39.371094 37.1875 39.304688 C 37.351562 39.234375 37.519531 39.179688 37.695312 39.132812 C 37.867188 39.085938 38.042969 39.050781 38.21875 39.027344 C 38.398438 39.003906 38.574219 38.992188 38.753906 38.992188 C 38.933594 38.992188 39.113281 39.003906 39.289062 39.027344 C 39.464844 39.050781 39.640625 39.085938 39.816406 39.132812 C 39.988281 39.179688 40.15625 39.234375 40.324219 39.304688 C 40.488281 39.371094 40.648438 39.453125 40.804688 39.539062 C 40.957031 39.628906 41.105469 39.730469 41.25 39.839844 C 41.390625 39.945312 41.527344 40.066406 41.652344 40.191406 C 41.78125 40.316406 41.898438 40.453125 42.007812 40.59375 C 42.117188 40.734375 42.214844 40.882812 42.304688 41.039062 L 55.992188 64.808594 C 56.082031 64.964844 56.160156 65.125 56.226562 65.289062 C 56.296875 65.457031 56.355469 65.625 56.398438 65.796875 C 56.445312 65.972656 56.480469 66.148438 56.503906 66.324219 C 56.527344 66.503906 56.539062 66.683594 56.539062 66.863281 C 56.535156 67.039062 56.523438 67.21875 56.5 67.398438 C 56.476562 67.574219 56.441406 67.75 56.394531 67.921875 C 56.347656 68.097656 56.289062 68.265625 56.222656 68.433594 C 56.152344 68.597656 56.074219 68.757812 55.984375 68.914062 C 55.894531 69.066406 55.792969 69.214844 55.683594 69.359375 C 55.574219 69.5 55.457031 69.636719 55.328125 69.761719 C 55.203125 69.886719 55.066406 70.003906 54.925781 70.113281 C 54.78125 70.222656 54.632812 70.324219 54.476562 70.410156 C 54.320312 70.5 54.160156 70.582031 53.996094 70.648438 C 53.828125 70.71875 53.660156 70.773438 53.484375 70.820312 C 53.3125 70.867188 53.136719 70.902344 52.960938 70.925781 C 52.78125 70.945312 52.601562 70.957031 52.421875 70.957031 Z M 52.421875 70.957031 " fill-opacity="1" fill-rule="nonzero"/></svg>