<svg xmlns="http://www.w3.org/2000/svg" xmlns:xlink="http://www.w3.org/1999/xlink" width="500" zoomAndPan="magnify" viewBox="0 0 375 112.499997" height="150" preserveAspectRatio="xMidYMid meet" version="1.0"><defs><clipPath id="020923d0cc"><path d="M 12.03125 24 L 79 24 L 79 87 L 12.03125 87 Z M 12.03125 24 " clip-rule="nonzero"/></clipPath><clipPath id="128f1e3b77"><path d="M 102 31 L 362.96875 31 L 362.96875 80 L 102 80 Z M 102 31 " clip-rule="nonzero"/></clipPath></defs><g clip-path="url(#020923d0cc)"><path fill="#3f84fb" d="M 12.03125 86.078125 L 12.03125 64.558594 L 78.300781 64.558594 L 78.300781 86.078125 Z M 12.03125 24.195312 L 30.414062 24.195312 C 30.414062 25.164062 30.507812 26.125 30.699219 27.074219 C 30.886719 28.027344 31.167969 28.949219 31.535156 29.847656 C 31.90625 30.742188 32.363281 31.59375 32.898438 32.398438 C 33.4375 33.207031 34.046875 33.953125 34.734375 34.640625 C 35.417969 35.324219 36.164062 35.9375 36.96875 36.476562 C 37.773438 37.015625 38.625 37.472656 39.519531 37.84375 C 40.414062 38.21875 41.335938 38.5 42.285156 38.6875 C 43.238281 38.878906 44.195312 38.976562 45.164062 38.976562 C 46.132812 38.976562 47.09375 38.878906 48.042969 38.6875 C 48.992188 38.5 49.917969 38.21875 50.8125 37.84375 C 51.707031 37.472656 52.554688 37.015625 53.363281 36.476562 C 54.167969 35.9375 54.910156 35.324219 55.597656 34.640625 C 56.28125 33.953125 56.894531 33.207031 57.429688 32.398438 C 57.96875 31.59375 58.421875 30.742188 58.792969 29.847656 C 59.164062 28.949219 59.445312 28.027344 59.632812 27.074219 C 59.820312 26.125 59.914062 25.164062 59.914062 24.195312 L 78.300781 24.195312 C 78.296875 25.28125 78.242188 26.363281 78.136719 27.441406 C 78.027344 28.523438 77.867188 29.597656 77.652344 30.660156 C 77.441406 31.726562 77.175781 32.777344 76.859375 33.816406 C 76.542969 34.851562 76.175781 35.875 75.761719 36.875 C 75.34375 37.878906 74.882812 38.859375 74.371094 39.816406 C 73.855469 40.773438 73.300781 41.703125 72.695312 42.605469 C 72.09375 43.507812 71.449219 44.378906 70.761719 45.21875 C 70.070312 46.058594 69.34375 46.859375 68.578125 47.628906 C 67.8125 48.398438 67.007812 49.125 66.171875 49.816406 C 65.332031 50.503906 64.460938 51.148438 63.558594 51.753906 C 62.660156 52.359375 61.730469 52.917969 60.773438 53.429688 C 59.816406 53.941406 58.839844 54.40625 57.835938 54.824219 C 56.835938 55.242188 55.816406 55.609375 54.777344 55.925781 C 53.742188 56.242188 52.691406 56.507812 51.625 56.722656 C 50.5625 56.933594 49.492188 57.097656 48.410156 57.207031 C 47.332031 57.3125 46.25 57.371094 45.164062 57.375 C 44.082031 57.371094 42.996094 57.3125 41.917969 57.207031 C 40.839844 57.097656 39.769531 56.933594 38.703125 56.722656 C 37.640625 56.507812 36.589844 56.242188 35.550781 55.925781 C 34.515625 55.609375 33.496094 55.242188 32.492188 54.824219 C 31.492188 54.40625 30.511719 53.941406 29.554688 53.429688 C 28.601562 52.917969 27.671875 52.359375 26.769531 51.753906 C 25.867188 51.148438 25 50.503906 24.160156 49.816406 C 23.320312 49.125 22.519531 48.398438 21.753906 47.628906 C 20.984375 46.859375 20.257812 46.058594 19.570312 45.21875 C 18.882812 44.378906 18.234375 43.507812 17.632812 42.605469 C 17.03125 41.703125 16.472656 40.773438 15.960938 39.816406 C 15.449219 38.859375 14.984375 37.878906 14.570312 36.875 C 14.152344 35.875 13.785156 34.851562 13.472656 33.816406 C 13.15625 32.777344 12.890625 31.726562 12.675781 30.660156 C 12.464844 29.597656 12.304688 28.523438 12.195312 27.441406 C 12.085938 26.363281 12.03125 25.28125 12.03125 24.195312 Z M 12.03125 24.195312 " fill-opacity="1" fill-rule="nonzero"/></g><path fill="#ffd23b" d="M 51.292969 24.625 L 51.292969 24.753906 C 51.289062 25.152344 51.242188 25.550781 51.160156 25.941406 C 51.078125 26.332031 50.957031 26.714844 50.796875 27.082031 C 50.640625 27.449219 50.449219 27.796875 50.222656 28.128906 C 49.996094 28.457031 49.738281 28.761719 49.453125 29.042969 C 49.164062 29.320312 48.855469 29.570312 48.519531 29.789062 C 48.183594 30.007812 47.832031 30.191406 47.460938 30.339844 C 47.085938 30.488281 46.707031 30.601562 46.3125 30.675781 C 45.917969 30.75 45.523438 30.78125 45.121094 30.777344 C 44.726562 30.773438 44.339844 30.730469 43.953125 30.648438 C 43.566406 30.566406 43.195312 30.449219 42.832031 30.296875 C 42.46875 30.144531 42.125 29.957031 41.796875 29.738281 C 41.46875 29.515625 41.167969 29.269531 40.890625 28.988281 C 40.609375 28.710938 40.363281 28.40625 40.140625 28.082031 C 39.921875 27.753906 39.734375 27.410156 39.582031 27.046875 C 39.429688 26.683594 39.3125 26.308594 39.230469 25.921875 C 39.148438 25.539062 39.105469 25.148438 39.101562 24.753906 L 39.101562 24.625 Z M 51.292969 24.625 " fill-opacity="1" fill-rule="nonzero"/><g clip-path="url(#128f1e3b77)"><path fill="#2e3033" d="M 289.175781 62.277344 C 289.175781 51.519531 295.988281 44.203125 306.375 44.203125 C 316.761719 44.203125 323.578125 51.113281 323.578125 61.527344 C 323.578125 62.742188 323.492188 63.957031 323.320312 65.164062 L 298.355469 65.164062 C 298.980469 70.003906 301.539062 73.058594 306.589844 73.058594 C 307.402344 73.0625 308.203125 72.976562 308.996094 72.796875 C 309.789062 72.617188 310.550781 72.347656 311.28125 71.996094 C 312.011719 71.640625 312.691406 71.207031 313.324219 70.695312 C 313.953125 70.1875 314.519531 69.609375 315.019531 68.96875 L 321.664062 72.371094 C 320.824219 73.578125 319.847656 74.660156 318.734375 75.625 C 317.625 76.585938 316.410156 77.394531 315.097656 78.054688 C 313.78125 78.710938 312.40625 79.195312 310.96875 79.507812 C 309.535156 79.820312 308.082031 79.953125 306.613281 79.902344 C 296.183594 79.902344 289.175781 72.886719 289.175781 62.277344 Z M 298.355469 59.265625 L 314.375 59.265625 C 313.730469 54.039062 310.976562 51.027344 306.332031 51.027344 C 301.6875 51.027344 299.042969 54.039062 298.355469 59.265625 Z M 266.875 69.054688 L 266.875 34.757812 L 275.476562 34.757812 L 275.476562 44.851562 L 285.625 44.851562 L 285.625 51.929688 L 275.476562 51.929688 L 275.476562 67.226562 C 275.445312 67.558594 275.445312 67.886719 275.480469 68.214844 C 275.515625 68.546875 275.585938 68.867188 275.691406 69.183594 C 275.796875 69.496094 275.929688 69.796875 276.097656 70.082031 C 276.265625 70.367188 276.460938 70.632812 276.683594 70.878906 C 276.90625 71.121094 277.152344 71.339844 277.421875 71.535156 C 277.691406 71.726562 277.980469 71.890625 278.28125 72.023438 C 278.585938 72.152344 278.898438 72.253906 279.222656 72.320312 C 279.546875 72.386719 279.875 72.417969 280.207031 72.414062 C 282.265625 72.441406 284.246094 72.054688 286.140625 71.25 L 286.140625 78.289062 C 283.335938 79.394531 280.425781 79.925781 277.414062 79.878906 C 276.699219 79.914062 275.992188 79.871094 275.292969 79.753906 C 274.589844 79.640625 273.90625 79.453125 273.242188 79.191406 C 272.578125 78.933594 271.953125 78.605469 271.355469 78.214844 C 270.761719 77.820312 270.214844 77.371094 269.714844 76.863281 C 269.214844 76.359375 268.773438 75.804688 268.390625 75.203125 C 268.007812 74.601562 267.691406 73.96875 267.441406 73.300781 C 267.191406 72.636719 267.011719 71.949219 266.90625 71.246094 C 266.800781 70.539062 266.769531 69.832031 266.8125 69.121094 Z M 226.023438 66.429688 L 226.023438 44.851562 L 234.621094 44.851562 L 234.621094 65.074219 C 234.628906 65.542969 234.683594 66.003906 234.777344 66.457031 C 234.871094 66.914062 235.007812 67.355469 235.183594 67.789062 C 235.363281 68.21875 235.578125 68.628906 235.832031 69.019531 C 236.085938 69.40625 236.375 69.769531 236.699219 70.105469 C 237.019531 70.441406 237.371094 70.746094 237.75 71.015625 C 238.132812 71.285156 238.53125 71.515625 238.953125 71.710938 C 239.378906 71.90625 239.816406 72.058594 240.265625 72.171875 C 240.71875 72.28125 241.175781 72.351562 241.640625 72.378906 C 242.105469 72.40625 242.566406 72.386719 243.03125 72.328125 C 243.492188 72.265625 243.941406 72.164062 244.382812 72.019531 C 244.828125 71.871094 245.25 71.6875 245.660156 71.460938 C 246.066406 71.238281 246.449219 70.976562 246.808594 70.679688 C 247.164062 70.382812 247.492188 70.054688 247.789062 69.695312 C 248.085938 69.335938 248.347656 68.953125 248.574219 68.546875 C 248.796875 68.136719 248.984375 67.714844 249.128906 67.269531 C 249.273438 66.828125 249.378906 66.375 249.4375 65.914062 C 249.460938 65.636719 249.460938 65.355469 249.4375 65.074219 L 249.4375 44.851562 L 258.039062 44.851562 L 258.039062 79.277344 L 249.675781 79.277344 L 249.546875 74.972656 C 248.914062 75.765625 248.199219 76.476562 247.402344 77.101562 C 246.605469 77.726562 245.746094 78.25 244.824219 78.671875 C 243.90625 79.09375 242.945312 79.402344 241.953125 79.601562 C 240.960938 79.796875 239.957031 79.875 238.945312 79.835938 C 231.183594 79.835938 225.890625 74.480469 225.890625 66.367188 Z M 190.132812 62.019531 C 190.132812 51.261719 197.550781 44.203125 208.648438 44.203125 C 210.78125 44.179688 212.863281 44.503906 214.886719 45.183594 C 216.910156 45.863281 218.765625 46.855469 220.453125 48.164062 L 215.550781 54.039062 C 214.613281 53.222656 213.5625 52.601562 212.390625 52.183594 C 211.222656 51.761719 210.019531 51.570312 208.777344 51.605469 C 203.035156 51.605469 199.144531 55.757812 199.144531 62.019531 C 199.144531 68.28125 202.972656 72.433594 208.839844 72.433594 C 210.296875 72.515625 211.707031 72.289062 213.066406 71.753906 C 214.425781 71.222656 215.609375 70.429688 216.625 69.378906 L 221.550781 75.125 C 219.777344 76.769531 217.753906 78.007812 215.484375 78.839844 C 213.210938 79.671875 210.871094 80.035156 208.453125 79.921875 C 197.488281 79.902344 190.132812 72.757812 190.132812 62.019531 Z M 149.085938 62.019531 C 149.085938 51.261719 156.503906 44.203125 167.535156 44.203125 C 178.566406 44.203125 185.917969 51.347656 185.917969 62.019531 C 185.917969 72.691406 178.5 79.902344 167.535156 79.902344 C 156.570312 79.902344 149.085938 72.757812 149.085938 62.019531 Z M 158.074219 62.019531 C 158.074219 68.28125 161.859375 72.433594 167.535156 72.433594 C 173.210938 72.433594 176.910156 68.28125 176.910156 62.019531 C 176.910156 55.757812 173.148438 51.605469 167.535156 51.605469 C 161.921875 51.605469 158.074219 55.757812 158.074219 62.019531 Z M 354.28125 79.234375 L 354.28125 59.007812 C 354.28125 54.554688 351.101562 51.605469 346.242188 51.605469 C 341.382812 51.605469 338.199219 54.554688 338.199219 59.007812 L 338.199219 79.253906 L 329.597656 79.253906 L 329.597656 44.851562 L 337.960938 44.851562 L 338.09375 49.152344 C 338.78125 48.339844 339.550781 47.613281 340.402344 46.976562 C 341.253906 46.339844 342.167969 45.804688 343.144531 45.375 C 344.117188 44.941406 345.128906 44.628906 346.171875 44.425781 C 347.21875 44.226562 348.273438 44.144531 349.335938 44.183594 C 357.550781 44.183594 363.054688 49.542969 363.054688 57.589844 L 363.054688 79.253906 Z M 102.707031 79.234375 L 102.707031 31.898438 L 121.285156 31.898438 C 135.261719 31.898438 144.570312 41.34375 144.570312 55.566406 C 144.570312 69.789062 135.261719 79.234375 121.285156 79.234375 Z M 111.714844 71.769531 L 121.285156 71.769531 C 129.648438 71.769531 135.195312 65.3125 135.195312 55.609375 C 135.195312 45.90625 129.648438 39.472656 121.285156 39.472656 L 111.605469 39.472656 Z M 111.714844 71.769531 " fill-opacity="1" fill-rule="nonzero"/></g></svg>