<svg xmlns="http://www.w3.org/2000/svg" xmlns:xlink="http://www.w3.org/1999/xlink" width="500" zoomAndPan="magnify" viewBox="0 0 375 187.499995" height="250" preserveAspectRatio="xMidYMid meet" version="1.0"><defs><clipPath id="892c0398f4"><path d="M 21.453125 62.742188 L 85 62.742188 L 85 122 L 21.453125 122 Z M 21.453125 62.742188 " clip-rule="nonzero"/></clipPath><clipPath id="3abd3d4398"><path d="M 107 70 L 353.566406 70 L 353.566406 116 L 107 116 Z M 107 70 " clip-rule="nonzero"/></clipPath></defs><g clip-path="url(#892c0398f4)"><path fill="#3f84fb" d="M 21.453125 121.289062 L 21.453125 101.011719 L 84.167969 101.011719 L 84.167969 121.289062 Z M 21.453125 62.972656 L 38.851562 62.972656 C 38.851562 63.886719 38.941406 64.792969 39.121094 65.6875 C 39.296875 66.585938 39.5625 67.453125 39.914062 68.300781 C 40.265625 69.144531 40.695312 69.945312 41.203125 70.707031 C 41.710938 71.464844 42.292969 72.167969 42.9375 72.816406 C 43.585938 73.460938 44.292969 74.039062 45.054688 74.546875 C 45.816406 75.058594 46.621094 75.488281 47.46875 75.835938 C 48.316406 76.1875 49.1875 76.453125 50.085938 76.632812 C 50.984375 76.8125 51.894531 76.902344 52.8125 76.902344 C 53.726562 76.902344 54.636719 76.8125 55.535156 76.632812 C 56.433594 76.453125 57.308594 76.1875 58.15625 75.835938 C 59 75.488281 59.804688 75.058594 60.566406 74.546875 C 61.332031 74.039062 62.035156 73.460938 62.683594 72.816406 C 63.332031 72.167969 63.910156 71.464844 64.417969 70.707031 C 64.929688 69.945312 65.359375 69.144531 65.707031 68.300781 C 66.058594 67.453125 66.324219 66.585938 66.503906 65.6875 C 66.679688 64.792969 66.769531 63.886719 66.769531 62.972656 L 84.167969 62.972656 C 84.167969 63.996094 84.113281 65.015625 84.011719 66.035156 C 83.910156 67.054688 83.757812 68.0625 83.554688 69.066406 C 83.355469 70.070312 83.105469 71.058594 82.804688 72.039062 C 82.507812 73.019531 82.160156 73.980469 81.765625 74.925781 C 81.371094 75.867188 80.933594 76.792969 80.449219 77.695312 C 79.964844 78.597656 79.4375 79.472656 78.867188 80.324219 C 78.296875 81.171875 77.683594 81.996094 77.035156 82.785156 C 76.382812 83.574219 75.695312 84.332031 74.96875 85.058594 C 74.242188 85.78125 73.484375 86.46875 72.6875 87.117188 C 71.894531 87.765625 71.074219 88.375 70.21875 88.945312 C 69.367188 89.511719 68.488281 90.039062 67.582031 90.523438 C 66.675781 91.007812 65.75 91.445312 64.804688 91.835938 C 63.855469 92.230469 62.890625 92.574219 61.910156 92.875 C 60.925781 93.171875 59.933594 93.421875 58.925781 93.625 C 57.917969 93.828125 56.90625 93.980469 55.882812 94.082031 C 54.863281 94.183594 53.835938 94.238281 52.8125 94.238281 C 51.785156 94.238281 50.761719 94.183594 49.738281 94.082031 C 48.71875 93.980469 47.703125 93.828125 46.695312 93.625 C 45.691406 93.421875 44.695312 93.171875 43.714844 92.875 C 42.730469 92.574219 41.765625 92.230469 40.820312 91.835938 C 39.871094 91.445312 38.945312 91.007812 38.039062 90.523438 C 37.136719 90.039062 36.253906 89.511719 35.402344 88.945312 C 34.550781 88.375 33.726562 87.765625 32.933594 87.117188 C 32.140625 86.46875 31.378906 85.78125 30.65625 85.058594 C 29.929688 84.332031 29.242188 83.574219 28.589844 82.785156 C 27.9375 81.996094 27.328125 81.171875 26.757812 80.324219 C 26.183594 79.472656 25.65625 78.597656 25.171875 77.695312 C 24.6875 76.792969 24.25 75.867188 23.855469 74.925781 C 23.460938 73.980469 23.117188 73.019531 22.816406 72.039062 C 22.519531 71.058594 22.269531 70.070312 22.066406 69.066406 C 21.863281 68.0625 21.710938 67.054688 21.609375 66.035156 C 21.507812 65.015625 21.457031 63.996094 21.453125 62.972656 Z M 21.453125 62.972656 " fill-opacity="1" fill-rule="nonzero"/></g><path fill="#ffd23b" d="M 58.609375 63.378906 L 58.609375 63.5 C 58.605469 63.878906 58.5625 64.25 58.484375 64.621094 C 58.40625 64.988281 58.292969 65.347656 58.140625 65.695312 C 57.992188 66.039062 57.808594 66.367188 57.597656 66.679688 C 57.382812 66.992188 57.140625 67.277344 56.867188 67.542969 C 56.597656 67.804688 56.300781 68.039062 55.984375 68.246094 C 55.667969 68.453125 55.332031 68.625 54.980469 68.765625 C 54.628906 68.90625 54.269531 69.011719 53.898438 69.078125 C 53.523438 69.148438 53.148438 69.183594 52.769531 69.179688 C 52.398438 69.171875 52.027344 69.132812 51.664062 69.054688 C 51.300781 68.980469 50.945312 68.867188 50.601562 68.722656 C 50.257812 68.582031 49.933594 68.402344 49.625 68.195312 C 49.316406 67.988281 49.027344 67.753906 48.765625 67.492188 C 48.5 67.230469 48.265625 66.945312 48.058594 66.636719 C 47.847656 66.328125 47.671875 66.003906 47.527344 65.660156 C 47.382812 65.320312 47.273438 64.964844 47.195312 64.601562 C 47.117188 64.238281 47.078125 63.871094 47.074219 63.5 L 47.074219 63.378906 Z M 58.609375 63.378906 " fill-opacity="1" fill-rule="nonzero"/><g clip-path="url(#3abd3d4398)"><path fill="#2e3033" d="M 283.730469 98.863281 C 283.730469 88.722656 290.179688 81.832031 300.007812 81.832031 C 309.839844 81.832031 316.289062 88.339844 316.289062 98.152344 C 316.289062 99.300781 316.207031 100.441406 316.042969 101.578125 L 292.417969 101.578125 C 293.007812 106.140625 295.429688 109.019531 300.214844 109.019531 C 301.769531 109.027344 303.25 108.695312 304.652344 108.019531 C 306.050781 107.339844 307.230469 106.390625 308.191406 105.167969 L 314.476562 108.371094 C 313.683594 109.507812 312.757812 110.53125 311.707031 111.4375 C 310.65625 112.34375 309.507812 113.109375 308.261719 113.726562 C 307.019531 114.347656 305.714844 114.804688 304.359375 115.097656 C 303 115.394531 301.625 115.515625 300.234375 115.46875 C 290.363281 115.46875 283.730469 108.859375 283.730469 98.863281 Z M 292.417969 96.023438 L 307.578125 96.023438 C 306.96875 91.097656 304.363281 88.257812 299.96875 88.257812 C 295.574219 88.257812 293.070312 91.097656 292.417969 96.023438 Z M 262.628906 105.25 L 262.628906 72.929688 L 270.769531 72.929688 L 270.769531 82.4375 L 280.371094 82.4375 L 280.371094 89.109375 L 270.769531 89.109375 L 270.769531 103.527344 C 270.738281 103.835938 270.738281 104.148438 270.773438 104.457031 C 270.804688 104.765625 270.871094 105.070312 270.972656 105.367188 C 271.070312 105.664062 271.199219 105.945312 271.355469 106.214844 C 271.515625 106.484375 271.699219 106.734375 271.910156 106.964844 C 272.121094 107.195312 272.355469 107.402344 272.609375 107.582031 C 272.863281 107.765625 273.136719 107.917969 273.421875 108.042969 C 273.710938 108.167969 274.007812 108.261719 274.316406 108.324219 C 274.621094 108.386719 274.933594 108.414062 275.246094 108.414062 C 277.195312 108.4375 279.066406 108.074219 280.859375 107.316406 L 280.859375 113.949219 C 278.207031 114.992188 275.453125 115.492188 272.601562 115.449219 C 271.925781 115.480469 271.257812 115.441406 270.59375 115.332031 C 269.929688 115.222656 269.28125 115.042969 268.652344 114.800781 C 268.027344 114.554688 267.433594 114.25 266.867188 113.878906 C 266.304688 113.507812 265.789062 113.085938 265.316406 112.605469 C 264.84375 112.128906 264.425781 111.605469 264.0625 111.042969 C 263.699219 110.476562 263.398438 109.878906 263.164062 109.25 C 262.925781 108.621094 262.757812 107.976562 262.65625 107.3125 C 262.558594 106.648438 262.527344 105.980469 262.566406 105.308594 Z M 223.964844 102.777344 L 223.964844 82.4375 L 232.105469 82.4375 L 232.105469 101.496094 C 232.113281 101.9375 232.160156 102.371094 232.25 102.800781 C 232.339844 103.230469 232.46875 103.648438 232.636719 104.054688 C 232.804688 104.457031 233.011719 104.84375 233.25 105.210938 C 233.492188 105.578125 233.765625 105.921875 234.070312 106.238281 C 234.375 106.554688 234.707031 106.839844 235.066406 107.09375 C 235.425781 107.347656 235.804688 107.566406 236.207031 107.75 C 236.605469 107.933594 237.019531 108.078125 237.445312 108.183594 C 237.875 108.289062 238.308594 108.355469 238.746094 108.378906 C 239.1875 108.402344 239.625 108.386719 240.0625 108.332031 C 240.5 108.273438 240.925781 108.175781 241.34375 108.039062 C 241.761719 107.902344 242.164062 107.726562 242.550781 107.515625 C 242.933594 107.304688 243.296875 107.058594 243.636719 106.777344 C 243.976562 106.496094 244.285156 106.1875 244.566406 105.851562 C 244.847656 105.511719 245.09375 105.152344 245.308594 104.769531 C 245.519531 104.382812 245.695312 103.984375 245.832031 103.566406 C 245.972656 103.148438 246.066406 102.722656 246.125 102.289062 C 246.144531 102.023438 246.144531 101.761719 246.125 101.496094 L 246.125 82.4375 L 254.265625 82.4375 L 254.265625 114.878906 L 246.347656 114.878906 L 246.226562 110.824219 C 245.628906 111.574219 244.953125 112.242188 244.199219 112.828125 C 243.445312 113.417969 242.632812 113.910156 241.761719 114.308594 C 240.890625 114.707031 239.984375 115 239.042969 115.183594 C 238.101562 115.371094 237.152344 115.445312 236.195312 115.40625 C 228.847656 115.40625 223.84375 110.359375 223.84375 102.714844 Z M 190.003906 98.617188 C 190.003906 88.480469 197.023438 81.832031 207.523438 81.832031 C 209.542969 81.804688 211.511719 82.113281 213.425781 82.75 C 215.34375 83.390625 217.097656 84.328125 218.695312 85.5625 L 214.054688 91.097656 C 213.171875 90.328125 212.175781 89.742188 211.066406 89.347656 C 209.960938 88.953125 208.820312 88.773438 207.644531 88.804688 C 202.210938 88.804688 198.53125 92.71875 198.53125 98.617188 C 198.53125 104.519531 202.152344 108.433594 207.707031 108.433594 C 209.085938 108.507812 210.417969 108.292969 211.703125 107.792969 C 212.992188 107.289062 214.113281 106.542969 215.074219 105.554688 L 219.734375 110.96875 C 218.054688 112.519531 216.140625 113.683594 213.992188 114.46875 C 211.84375 115.253906 209.625 115.59375 207.339844 115.488281 C 196.960938 115.46875 190.003906 108.738281 190.003906 98.617188 Z M 151.15625 98.617188 C 151.15625 88.480469 158.179688 81.832031 168.617188 81.832031 C 179.054688 81.832031 186.015625 88.5625 186.015625 98.617188 C 186.015625 108.675781 178.996094 115.46875 168.617188 115.46875 C 158.238281 115.46875 151.15625 108.738281 151.15625 98.617188 Z M 159.664062 98.617188 C 159.664062 104.519531 163.246094 108.433594 168.617188 108.433594 C 173.988281 108.433594 177.488281 104.519531 177.488281 98.617188 C 177.488281 92.71875 173.929688 88.804688 168.617188 88.804688 C 163.304688 88.804688 159.664062 92.71875 159.664062 98.617188 Z M 345.347656 114.839844 L 345.347656 95.78125 C 345.347656 91.582031 342.335938 88.804688 337.738281 88.804688 C 333.136719 88.804688 330.125 91.582031 330.125 95.78125 L 330.125 114.859375 L 321.988281 114.859375 L 321.988281 82.4375 L 329.902344 82.4375 L 330.023438 86.492188 C 330.675781 85.726562 331.402344 85.042969 332.210938 84.441406 C 333.019531 83.839844 333.882812 83.335938 334.804688 82.929688 C 335.726562 82.527344 336.683594 82.226562 337.671875 82.039062 C 338.660156 81.851562 339.660156 81.773438 340.667969 81.808594 C 348.441406 81.808594 353.648438 86.859375 353.648438 94.441406 L 353.648438 114.859375 Z M 107.265625 114.839844 L 107.265625 70.230469 L 124.847656 70.230469 C 138.074219 70.230469 146.882812 79.132812 146.882812 92.535156 C 146.882812 105.9375 138.074219 114.839844 124.847656 114.839844 Z M 115.789062 107.804688 L 124.847656 107.804688 C 132.761719 107.804688 138.011719 101.722656 138.011719 92.578125 C 138.011719 83.433594 132.761719 77.371094 124.847656 77.371094 L 115.6875 77.371094 Z M 115.789062 107.804688 " fill-opacity="1" fill-rule="nonzero"/></g></svg>