<svg xmlns="http://www.w3.org/2000/svg" xmlns:xlink="http://www.w3.org/1999/xlink" width="500" zoomAndPan="magnify" viewBox="40 0 315 112.499997" height="200" preserveAspectRatio="xMidYMid meet" version="1.0"><defs><clipPath id="e1e4890629"><path d="M 223 10.785156 L 282 10.785156 L 282 62 L 223 62 Z M 223 10.785156 " clip-rule="nonzero"/></clipPath></defs><g clip-path="url(#e1e4890629)"><path fill="#eb2028" d="M 243.609375 10.785156 C 243.433594 12.140625 243.261719 13.183594 243.171875 14.230469 C 242.75 18.984375 244.84375 22.566406 248.46875 25.398438 C 251.839844 28.035156 255.796875 29.34375 259.878906 30.375 C 265.246094 31.726562 270.421875 33.53125 274.886719 36.949219 C 276.519531 38.175781 277.925781 39.621094 279.109375 41.285156 C 280.289062 42.949219 281.1875 44.753906 281.804688 46.699219 C 279.71875 45.636719 277.507812 45.179688 275.171875 45.332031 C 271.339844 45.65625 267.75 46.765625 264.40625 48.664062 C 260.535156 50.75 256.789062 53.074219 253.0625 55.414062 C 248.34375 58.375 243.367188 60.652344 237.808594 61.359375 C 232.632812 62.019531 227.761719 61.359375 223.886719 57.367188 C 223.738281 57.214844 223.621094 57.039062 223.425781 56.789062 C 223.609375 56.714844 223.796875 56.664062 223.992188 56.636719 C 229.042969 56.824219 231.882812 53.648438 233.246094 49.808594 C 234.792969 45.445312 234.863281 40.917969 234.757812 36.371094 C 234.617188 30.3125 234.765625 24.292969 237.386719 18.648438 C 238.828125 15.527344 240.902344 12.90625 243.609375 10.785156 Z M 243.609375 10.785156 " fill-opacity="1" fill-rule="nonzero"/></g><path fill="#000000" d="M 113.015625 68.433594 L 113.015625 64.523438 L 118.777344 64.523438 L 118.777344 65.964844 C 118.777344 73.324219 118.777344 80.683594 118.777344 88.042969 C 118.777344 95.019531 114.761719 99.605469 107.769531 100.617188 C 102.996094 101.308594 97.445312 99.964844 93.984375 97.203125 C 94.765625 95.878906 95.5625 94.535156 96.40625 93.101562 C 99.113281 95.035156 101.976562 96.082031 105.25 95.976562 C 110.125 95.8125 113.007812 92.921875 113.007812 88.035156 C 113.007812 87.308594 113.007812 86.578125 113.007812 85.5 C 111.398438 87.484375 109.703125 88.734375 107.542969 89.285156 C 99.585938 91.316406 92.605469 86.0625 92.328125 77.824219 C 92.1875 73.644531 93.136719 69.878906 96.371094 66.945312 C 100.039062 63.609375 108.433594 62.546875 113.015625 68.433594 Z M 113.007812 76.96875 C 113 72.195312 109.929688 68.9375 105.4375 68.9375 C 100.964844 68.9375 97.683594 72.40625 97.742188 77.070312 C 97.804688 81.777344 100.964844 85.097656 105.394531 85.117188 C 109.90625 85.136719 113.015625 81.804688 113.007812 76.964844 Z M 113.007812 76.96875 " fill-opacity="1" fill-rule="nonzero"/><path fill="#000000" d="M 188.941406 68.550781 L 188.941406 54.003906 L 194.636719 54.003906 L 194.636719 90.816406 L 188.988281 90.816406 L 188.988281 86.9375 C 188.800781 87.027344 188.625 87.136719 188.460938 87.261719 C 182.535156 93.976562 171.359375 92.011719 168.035156 83.632812 C 167.277344 81.773438 166.886719 79.84375 166.859375 77.835938 C 166.835938 75.832031 167.179688 73.890625 167.890625 72.015625 C 171.066406 63.398438 182.339844 61.347656 188.488281 68.222656 C 188.632812 68.34375 188.78125 68.453125 188.941406 68.550781 Z M 188.945312 77.757812 C 188.925781 72.628906 185.617188 69.144531 180.785156 69.15625 C 176.050781 69.171875 172.660156 72.84375 172.71875 77.894531 C 172.777344 82.859375 176.21875 86.429688 180.910156 86.394531 C 185.613281 86.359375 188.96875 82.75 188.945312 77.757812 Z M 188.945312 77.757812 " fill-opacity="1" fill-rule="nonzero"/><path fill="#000000" d="M 232.132812 90.859375 L 226.585938 90.859375 C 226.546875 89.945312 226.507812 89.089844 226.460938 88 C 223.539062 90.886719 220.050781 91.4375 216.351562 91.136719 C 210.753906 90.679688 207.238281 85.828125 208.753906 80.65625 C 209.714844 77.390625 212.21875 75.898438 215.339844 75.308594 C 216.730469 75.085938 218.132812 74.984375 219.542969 74.996094 C 221.785156 74.949219 224.027344 74.984375 226.246094 74.984375 C 226.328125 74.703125 226.382812 74.414062 226.410156 74.121094 C 226.4375 73.828125 226.4375 73.539062 226.40625 73.246094 C 226.375 72.953125 226.316406 72.667969 226.230469 72.386719 C 226.144531 72.105469 226.03125 71.835938 225.890625 71.578125 C 225.75 71.320312 225.589844 71.078125 225.402344 70.851562 C 225.214844 70.625 225.007812 70.417969 224.78125 70.234375 C 224.550781 70.046875 224.308594 69.886719 224.050781 69.746094 C 223.789062 69.609375 223.519531 69.496094 223.238281 69.414062 C 219.964844 68.308594 216.902344 69.097656 213.960938 70.628906 C 213.421875 70.914062 212.902344 71.238281 212.316406 71.574219 C 211.53125 70.246094 210.78125 68.96875 209.988281 67.625 C 213.089844 65.535156 216.394531 64.292969 220.039062 64.269531 C 222.066406 64.222656 224.0625 64.441406 226.03125 64.929688 C 229.84375 65.964844 232.007812 68.828125 232.117188 72.921875 C 232.265625 78.730469 232.207031 84.542969 232.238281 90.355469 C 232.214844 90.527344 232.183594 90.695312 232.132812 90.859375 Z M 226.367188 79.398438 C 223.195312 79.398438 220.109375 79.238281 217.050781 79.453125 C 214.898438 79.605469 213.976562 80.769531 213.902344 82.519531 C 213.828125 84.398438 214.878906 86.019531 216.875 86.292969 C 218.65625 86.566406 220.421875 86.488281 222.175781 86.070312 C 225.5625 85.171875 226.816406 82.929688 226.367188 79.398438 Z M 226.367188 79.398438 " fill-opacity="1" fill-rule="nonzero"/><path fill="#000000" d="M 157.742188 74.980469 C 158.300781 71.527344 156.140625 69.117188 152.496094 68.941406 C 149.535156 68.800781 148.265625 69.171875 143.726562 71.550781 L 141.421875 67.625 C 144.535156 65.507812 147.878906 64.261719 151.566406 64.273438 C 153.632812 64.238281 155.667969 64.484375 157.671875 65.007812 C 161.28125 66.039062 163.441406 68.894531 163.507812 72.628906 C 163.613281 78.652344 163.535156 84.683594 163.535156 90.816406 L 157.96875 90.816406 L 157.96875 87.917969 C 154.988281 90.871094 151.503906 91.492188 147.8125 91.128906 C 140.148438 90.371094 138.515625 83.453125 140.78125 79.234375 C 142.417969 76.183594 145.382812 75.265625 148.5625 75.0625 C 151.152344 74.894531 153.757812 74.996094 156.355469 74.980469 C 156.828125 74.980469 157.300781 74.980469 157.742188 74.980469 Z M 157.785156 79.511719 C 154.488281 79.511719 151.1875 79.277344 147.941406 79.589844 C 145.460938 79.828125 144.429688 82.78125 145.972656 84.75 C 146.648438 85.515625 147.46875 86.046875 148.441406 86.347656 C 150.296875 86.972656 152.1875 86.65625 154 85.992188 C 157.070312 84.867188 158.289062 82.703125 157.785156 79.511719 Z M 157.785156 79.511719 " fill-opacity="1" fill-rule="nonzero"/><path fill="#000000" d="M 261.992188 90.871094 L 256.328125 90.871094 C 256.300781 90.371094 256.253906 89.90625 256.253906 89.445312 C 256.246094 85.214844 256.246094 80.984375 256.25 76.757812 C 256.246094 72.597656 254.488281 70.1875 251.148438 69.746094 C 247.027344 69.203125 243.613281 71.445312 242.660156 75.371094 C 242.488281 76.101562 242.402344 76.839844 242.402344 77.589844 C 242.375 81.507812 242.390625 85.429688 242.390625 89.351562 L 242.390625 90.847656 L 236.671875 90.847656 L 236.671875 68.304688 C 238.019531 68.132812 239.453125 68.132812 240.765625 67.738281 C 243.582031 66.894531 246.347656 65.882812 249.113281 64.878906 C 253.15625 63.410156 257.675781 64.558594 260.082031 67.765625 C 260.734375 68.667969 261.222656 69.648438 261.550781 70.710938 C 261.875 71.773438 262.023438 72.859375 261.988281 73.972656 C 262.003906 79.558594 261.992188 85.148438 261.992188 90.871094 Z M 261.992188 90.871094 " fill-opacity="1" fill-rule="nonzero"/><path fill="#000000" d="M 280.9375 69.691406 L 273.429688 69.691406 C 273.324219 69.890625 273.210938 70 273.210938 70.105469 C 273.210938 74.375 273.140625 78.648438 273.265625 82.914062 C 273.339844 85.503906 274.542969 86.34375 277.089844 85.851562 C 278.097656 85.601562 279.085938 85.292969 280.054688 84.933594 C 280.515625 86.34375 280.976562 87.75 281.46875 89.257812 C 278.386719 91.066406 275.1875 91.894531 271.753906 90.640625 C 268.832031 89.574219 267.585938 87.195312 267.515625 84.242188 C 267.40625 79.933594 267.460938 75.613281 267.449219 71.300781 C 267.449219 70.824219 267.449219 70.351562 267.449219 69.765625 L 263.84375 69.765625 L 263.84375 65.511719 L 267.382812 65.511719 L 267.382812 58.238281 L 273.183594 58.238281 L 273.183594 65.46875 L 280.9375 65.46875 Z M 280.9375 69.691406 " fill-opacity="1" fill-rule="nonzero"/><path fill="#000000" d="M 129.226562 90.84375 L 123.613281 90.84375 L 123.613281 64.546875 L 129.203125 64.546875 L 129.203125 68.964844 C 131.484375 65.851562 134.40625 64.253906 138.300781 64.238281 L 138.300781 69.617188 C 138.03125 69.667969 137.761719 69.707031 137.488281 69.730469 C 132.300781 69.957031 129.238281 73.15625 129.226562 78.382812 C 129.222656 82.039062 129.222656 85.695312 129.226562 89.347656 Z M 129.226562 90.84375 " fill-opacity="1" fill-rule="nonzero"/><path fill="#000000" d="M 199.316406 64.539062 L 204.890625 64.539062 L 204.890625 90.875 L 199.316406 90.875 Z M 199.316406 64.539062 " fill-opacity="1" fill-rule="nonzero"/><path fill="#000000" d="M 202.054688 60.332031 C 201.605469 60.308594 201.175781 60.203125 200.765625 60.011719 C 200.359375 59.824219 200 59.566406 199.691406 59.238281 C 199.382812 58.910156 199.148438 58.535156 198.980469 58.113281 C 198.816406 57.695312 198.738281 57.261719 198.742188 56.808594 C 198.746094 56.359375 198.832031 55.925781 199.003906 55.511719 C 199.175781 55.09375 199.417969 54.722656 199.734375 54.402344 C 200.046875 54.078125 200.410156 53.824219 200.824219 53.644531 C 201.234375 53.460938 201.667969 53.363281 202.117188 53.347656 C 202.585938 53.347656 203.03125 53.441406 203.460938 53.628906 C 203.890625 53.8125 204.265625 54.078125 204.589844 54.417969 C 204.910156 54.757812 205.152344 55.144531 205.3125 55.585938 C 205.472656 56.023438 205.542969 56.476562 205.519531 56.945312 C 205.523438 57.402344 205.4375 57.839844 205.261719 58.261719 C 205.085938 58.683594 204.832031 59.054688 204.507812 59.375 C 204.179688 59.695312 203.804688 59.9375 203.378906 60.105469 C 202.953125 60.269531 202.511719 60.347656 202.054688 60.332031 Z M 202.054688 60.332031 " fill-opacity="1" fill-rule="nonzero"/></svg>
