<svg xmlns="http://www.w3.org/2000/svg" xmlns:xlink="http://www.w3.org/1999/xlink" width="500" zoomAndPan="magnify" viewBox="0 0 375 187.499995" height="250" preserveAspectRatio="xMidYMid meet" version="1.0"><defs><clipPath id="735aa9f110"><path d="M 245 21.984375 L 338.414062 21.984375 L 338.414062 103 L 245 103 Z M 245 21.984375 " clip-rule="nonzero"/></clipPath><clipPath id="ffef63d701"><path d="M 36.21875 106 L 80 106 L 80 164.855469 L 36.21875 164.855469 Z M 36.21875 106 " clip-rule="nonzero"/></clipPath></defs><g clip-path="url(#735aa9f110)"><path fill="#eb2028" d="M 277.351562 21.984375 C 277.074219 24.140625 276.800781 25.792969 276.652344 27.460938 C 275.984375 35.015625 279.3125 40.707031 285.070312 45.207031 C 290.425781 49.390625 296.710938 51.476562 303.199219 53.109375 C 311.730469 55.257812 319.957031 58.128906 327.050781 63.558594 C 329.644531 65.503906 331.878906 67.800781 333.757812 70.445312 C 335.632812 73.089844 337.0625 75.960938 338.042969 79.050781 C 334.726562 77.363281 331.214844 76.636719 327.503906 76.878906 C 321.414062 77.390625 315.710938 79.15625 310.394531 82.171875 C 304.246094 85.488281 298.292969 89.179688 292.371094 92.898438 C 284.875 97.601562 276.964844 101.21875 268.132812 102.34375 C 259.90625 103.390625 252.167969 102.34375 246.011719 96 C 245.777344 95.761719 245.59375 95.476562 245.28125 95.085938 C 245.570312 94.964844 245.867188 94.886719 246.179688 94.84375 C 254.207031 95.136719 258.714844 90.09375 260.882812 83.988281 C 263.339844 77.058594 263.449219 69.863281 263.28125 62.640625 C 263.0625 53.011719 263.296875 43.445312 267.460938 34.480469 C 269.753906 29.523438 273.050781 25.355469 277.351562 21.984375 Z M 277.351562 21.984375 " fill-opacity="1" fill-rule="nonzero"/></g><g clip-path="url(#ffef63d701)"><path fill="#000000" d="M 69.84375 113.585938 L 69.84375 107.367188 L 79.003906 107.367188 L 79.003906 109.664062 C 79.003906 121.355469 79.003906 133.050781 79.003906 144.742188 C 79.003906 155.832031 72.621094 163.117188 61.507812 164.722656 C 53.921875 165.820312 45.101562 163.683594 39.605469 159.296875 C 40.847656 157.195312 42.109375 155.0625 43.457031 152.78125 C 47.753906 155.851562 52.300781 157.519531 57.503906 157.347656 C 65.253906 157.089844 69.828125 152.496094 69.835938 144.734375 C 69.835938 143.574219 69.835938 142.414062 69.835938 140.703125 C 67.277344 143.859375 64.578125 145.839844 61.152344 146.714844 C 48.503906 149.945312 37.414062 141.59375 36.972656 128.507812 C 36.75 121.863281 38.257812 115.882812 43.394531 111.21875 C 49.226562 105.921875 62.566406 104.230469 69.84375 113.585938 Z M 69.832031 127.144531 C 69.820312 119.558594 64.941406 114.382812 57.804688 114.382812 C 50.695312 114.382812 45.484375 119.894531 45.578125 127.308594 C 45.675781 134.789062 50.691406 140.066406 57.738281 140.09375 C 64.902344 140.125 69.847656 134.832031 69.832031 127.144531 Z M 69.832031 127.144531 " fill-opacity="1" fill-rule="nonzero"/></g><path fill="#000000" d="M 190.488281 113.769531 L 190.488281 90.65625 L 199.535156 90.65625 L 199.535156 149.148438 L 190.5625 149.148438 L 190.5625 142.988281 C 190.265625 143.128906 189.984375 143.300781 189.722656 143.503906 C 180.304688 154.167969 162.546875 151.050781 157.265625 137.734375 C 156.667969 136.273438 156.214844 134.765625 155.898438 133.21875 C 155.585938 131.671875 155.417969 130.105469 155.398438 128.527344 C 155.378906 126.949219 155.507812 125.378906 155.785156 123.824219 C 156.058594 122.269531 156.476562 120.753906 157.039062 119.277344 C 162.082031 105.585938 179.996094 102.324219 189.765625 113.25 C 189.992188 113.445312 190.234375 113.617188 190.488281 113.769531 Z M 190.496094 128.398438 C 190.460938 120.25 185.203125 114.710938 177.527344 114.734375 C 170.003906 114.757812 164.617188 120.589844 164.710938 128.613281 C 164.800781 136.507812 170.269531 142.183594 177.726562 142.125 C 185.195312 142.066406 190.527344 136.335938 190.496094 128.398438 Z M 190.496094 128.398438 " fill-opacity="1" fill-rule="nonzero"/><path fill="#000000" d="M 259.117188 149.21875 L 250.304688 149.21875 C 250.238281 147.765625 250.179688 146.40625 250.101562 144.675781 C 245.460938 149.261719 239.917969 150.136719 234.039062 149.65625 C 225.140625 148.933594 219.558594 141.222656 221.96875 133.007812 C 223.492188 127.820312 227.46875 125.445312 232.429688 124.507812 C 234.644531 124.15625 236.871094 123.992188 239.109375 124.011719 C 242.671875 123.9375 246.234375 123.992188 249.761719 123.992188 C 249.894531 123.542969 249.980469 123.085938 250.023438 122.621094 C 250.066406 122.160156 250.0625 121.695312 250.015625 121.230469 C 249.96875 120.765625 249.875 120.3125 249.734375 119.863281 C 249.597656 119.417969 249.417969 118.992188 249.199219 118.582031 C 248.976562 118.171875 248.714844 117.785156 248.417969 117.425781 C 248.121094 117.066406 247.792969 116.738281 247.429688 116.441406 C 247.070312 116.148438 246.683594 115.890625 246.269531 115.671875 C 245.859375 115.453125 245.429688 115.277344 244.984375 115.140625 C 239.777344 113.382812 234.917969 114.636719 230.242188 117.074219 C 229.382812 117.523438 228.558594 118.039062 227.628906 118.578125 C 226.382812 116.464844 225.1875 114.433594 223.929688 112.300781 C 228.855469 108.976562 234.109375 107.003906 239.898438 106.96875 C 243.117188 106.894531 246.292969 107.242188 249.417969 108.019531 C 255.476562 109.664062 258.917969 114.207031 259.089844 120.71875 C 259.328125 129.945312 259.234375 139.183594 259.28125 148.414062 C 259.246094 148.6875 259.191406 148.957031 259.117188 149.21875 Z M 249.953125 131.007812 C 244.914062 131.007812 240.011719 130.753906 235.148438 131.097656 C 231.730469 131.335938 230.261719 133.183594 230.148438 135.96875 C 230.027344 138.953125 231.699219 141.527344 234.867188 141.964844 C 237.699219 142.394531 240.507812 142.273438 243.292969 141.605469 C 248.671875 140.179688 250.664062 136.621094 249.953125 131.007812 Z M 249.953125 131.007812 " fill-opacity="1" fill-rule="nonzero"/><path fill="#000000" d="M 140.910156 123.992188 C 141.800781 118.5 138.363281 114.667969 132.574219 114.390625 C 127.871094 114.167969 125.851562 114.761719 118.644531 118.535156 L 114.980469 112.300781 C 119.925781 108.933594 125.238281 106.957031 131.097656 106.972656 C 134.382812 106.917969 137.621094 107.308594 140.800781 108.144531 C 146.535156 109.777344 149.964844 114.316406 150.070312 120.25 C 150.242188 129.824219 150.117188 139.402344 150.117188 149.152344 L 141.273438 149.152344 L 141.273438 144.542969 C 136.539062 149.234375 130.996094 150.222656 125.132812 149.644531 C 112.953125 148.441406 110.359375 137.449219 113.960938 130.746094 C 116.566406 125.902344 121.269531 124.441406 126.324219 124.113281 C 130.4375 123.847656 134.582031 124.015625 138.710938 123.988281 C 139.460938 123.988281 140.210938 123.992188 140.910156 123.992188 Z M 140.984375 131.191406 C 135.742188 131.191406 130.5 130.816406 125.339844 131.3125 C 121.394531 131.691406 119.757812 136.382812 122.214844 139.507812 C 123.28125 140.726562 124.589844 141.574219 126.136719 142.050781 C 129.082031 143.042969 132.089844 142.539062 134.964844 141.484375 C 139.84375 139.699219 141.78125 136.257812 140.980469 131.191406 Z M 140.984375 131.191406 " fill-opacity="1" fill-rule="nonzero"/><path fill="#000000" d="M 306.5625 149.238281 L 297.558594 149.238281 C 297.515625 148.441406 297.441406 147.707031 297.441406 146.96875 C 297.429688 140.25 297.425781 133.53125 297.433594 126.808594 C 297.425781 120.203125 294.632812 116.371094 289.328125 115.667969 C 282.78125 114.804688 277.359375 118.371094 275.84375 124.605469 C 275.570312 125.765625 275.433594 126.941406 275.429688 128.132812 C 275.390625 134.363281 275.410156 140.59375 275.410156 146.820312 L 275.410156 149.199219 L 266.328125 149.199219 L 266.328125 113.378906 C 268.46875 113.105469 270.746094 113.105469 272.832031 112.480469 C 277.308594 111.140625 281.703125 109.535156 286.09375 107.933594 C 292.519531 105.601562 299.703125 107.425781 303.527344 112.527344 C 304.5625 113.957031 305.335938 115.515625 305.855469 117.203125 C 306.375 118.890625 306.605469 120.617188 306.554688 122.382812 C 306.578125 131.261719 306.5625 140.140625 306.5625 149.238281 Z M 306.5625 149.238281 " fill-opacity="1" fill-rule="nonzero"/><path fill="#000000" d="M 336.660156 115.585938 L 324.734375 115.585938 C 324.5625 115.898438 324.386719 116.070312 324.386719 116.242188 C 324.386719 123.027344 324.273438 129.816406 324.472656 136.59375 C 324.59375 140.707031 326.503906 142.042969 330.550781 141.261719 C 332.148438 140.863281 333.71875 140.375 335.261719 139.804688 C 335.992188 142.042969 336.722656 144.277344 337.503906 146.671875 C 332.605469 149.550781 327.527344 150.863281 322.066406 148.867188 C 317.429688 147.175781 315.449219 143.394531 315.335938 138.707031 C 315.164062 131.855469 315.25 124.992188 315.230469 118.136719 C 315.230469 117.382812 315.230469 116.628906 315.230469 115.699219 L 309.5 115.699219 L 309.5 108.941406 L 315.125 108.941406 L 315.125 97.386719 L 324.34375 97.386719 L 324.34375 108.875 L 336.660156 108.875 Z M 336.660156 115.585938 " fill-opacity="1" fill-rule="nonzero"/><path fill="#000000" d="M 95.601562 149.195312 L 86.679688 149.195312 L 86.679688 107.40625 L 95.5625 107.40625 L 95.5625 114.429688 C 99.191406 109.480469 103.835938 106.941406 110.019531 106.917969 L 110.019531 115.46875 C 109.59375 115.546875 109.164062 115.605469 108.734375 115.644531 C 100.484375 116.003906 95.621094 121.085938 95.605469 129.394531 C 95.59375 135.203125 95.59375 141.011719 95.605469 146.816406 Z M 95.601562 149.195312 " fill-opacity="1" fill-rule="nonzero"/><path fill="#000000" d="M 206.972656 107.394531 L 215.828125 107.394531 L 215.828125 149.242188 L 206.972656 149.242188 Z M 206.972656 107.394531 " fill-opacity="1" fill-rule="nonzero"/><path fill="#000000" d="M 211.324219 100.714844 C 210.96875 100.695312 210.621094 100.640625 210.277344 100.558594 C 209.929688 100.472656 209.597656 100.355469 209.277344 100.203125 C 208.957031 100.054688 208.652344 99.878906 208.363281 99.667969 C 208.074219 99.460938 207.808594 99.230469 207.566406 98.972656 C 207.324219 98.714844 207.109375 98.433594 206.917969 98.132812 C 206.730469 97.835938 206.570312 97.519531 206.441406 97.1875 C 206.3125 96.859375 206.214844 96.519531 206.148438 96.171875 C 206.085938 95.820312 206.054688 95.46875 206.058594 95.117188 C 206.0625 94.761719 206.097656 94.410156 206.167969 94.0625 C 206.238281 93.714844 206.339844 93.378906 206.476562 93.050781 C 206.613281 92.722656 206.777344 92.410156 206.972656 92.113281 C 207.167969 91.816406 207.386719 91.542969 207.632812 91.289062 C 207.882812 91.035156 208.152344 90.804688 208.441406 90.601562 C 208.734375 90.402344 209.042969 90.226562 209.367188 90.085938 C 209.691406 89.941406 210.023438 89.828125 210.371094 89.75 C 210.714844 89.671875 211.066406 89.625 211.421875 89.613281 C 211.789062 89.613281 212.152344 89.652344 212.511719 89.726562 C 212.871094 89.800781 213.222656 89.914062 213.558594 90.058594 C 213.894531 90.207031 214.214844 90.382812 214.515625 90.59375 C 214.816406 90.804688 215.09375 91.042969 215.347656 91.3125 C 215.601562 91.578125 215.824219 91.871094 216.015625 92.183594 C 216.210938 92.496094 216.371094 92.824219 216.5 93.167969 C 216.625 93.515625 216.714844 93.867188 216.769531 94.230469 C 216.828125 94.597656 216.84375 94.960938 216.824219 95.328125 C 216.828125 95.6875 216.792969 96.042969 216.726562 96.398438 C 216.65625 96.75 216.554688 97.089844 216.414062 97.421875 C 216.277344 97.753906 216.109375 98.070312 215.90625 98.367188 C 215.703125 98.664062 215.476562 98.941406 215.21875 99.191406 C 214.960938 99.441406 214.683594 99.664062 214.378906 99.859375 C 214.078125 100.054688 213.761719 100.21875 213.425781 100.347656 C 213.089844 100.480469 212.746094 100.574219 212.394531 100.636719 C 212.039062 100.699219 211.683594 100.722656 211.324219 100.714844 Z M 211.324219 100.714844 " fill-opacity="1" fill-rule="nonzero"/></svg>