<svg xmlns="http://www.w3.org/2000/svg" xmlns:xlink="http://www.w3.org/1999/xlink" width="500" zoomAndPan="magnify" viewBox="0 0 375 187.499995" height="250" preserveAspectRatio="xMidYMid meet" version="1.0"><path fill="#ff4f52" d="M 30.746094 95.910156 L 30.746094 143.539062 L 48.835938 143.539062 L 48.835938 109.292969 L 60.53125 126.417969 L 72.226562 143.539062 L 93.691406 143.539062 L 90.796875 139.558594 C 89.226562 137.511719 83.320312 129.550781 77.894531 122.074219 L 67.886719 108.570312 L 78.496094 96.152344 C 84.285156 89.398438 89.832031 82.886719 90.796875 81.683594 C 92.484375 79.753906 92 79.632812 81.269531 79.632812 L 69.9375 79.753906 L 59.6875 93.617188 L 49.4375 107.484375 L 49.074219 77.824219 L 48.835938 48.28125 L 30.746094 48.28125 Z M 30.746094 95.910156 " fill-opacity="1" fill-rule="nonzero"/><path fill="#ff4f52" d="M 163.382812 95.910156 L 163.382812 143.539062 L 181.472656 143.539062 L 181.472656 48.28125 L 163.382812 48.28125 Z M 163.382812 95.910156 " fill-opacity="1" fill-rule="nonzero"/><path fill="#ff4f52" d="M 115.515625 79.753906 C 90.3125 84.574219 81.027344 116.289062 99.234375 135.097656 C 108.039062 144.140625 119.855469 146.792969 133.359375 142.816406 C 140.714844 140.644531 148.554688 133.53125 150.964844 126.898438 L 152.289062 123.039062 L 143.367188 123.039062 C 135.167969 123.039062 134.082031 123.28125 131.671875 126.054688 C 126.726562 131.84375 113.222656 129.914062 109.726562 122.917969 C 108.761719 121.109375 107.917969 118.941406 107.917969 118.21875 C 107.917969 117.492188 115.636719 117.011719 130.828125 117.011719 L 153.738281 117.011719 L 153.738281 112.429688 C 153.738281 105.675781 150.601562 96.390625 146.382812 90.605469 C 140.355469 82.285156 126.96875 77.460938 115.515625 79.753906 Z M 128.777344 95.429688 C 131.550781 96.753906 135.652344 102.300781 135.652344 104.832031 C 135.652344 105.675781 131.070312 106.160156 121.785156 106.160156 C 106.953125 106.160156 106.472656 105.917969 109.605469 100.25 C 112.742188 94.703125 122.027344 92.292969 128.777344 95.429688 Z M 128.777344 95.429688 " fill-opacity="1" fill-rule="nonzero"/><path fill="#ff4f52" d="M 214.269531 79.753906 C 199.800781 82.527344 190.03125 95.308594 189.910156 111.101562 C 189.910156 125.332031 195.578125 135.460938 207.035156 141.246094 C 221.382812 148.601562 242.484375 142.9375 249.117188 130.15625 C 250.320312 127.621094 251.40625 124.96875 251.40625 124.246094 C 251.40625 123.523438 247.789062 123.039062 242.363281 123.039062 C 234.644531 123.039062 233.199219 123.402344 232.113281 125.453125 C 229.460938 130.394531 216.800781 130.757812 211.617188 126.054688 C 210.410156 124.96875 208.84375 122.4375 208.117188 120.507812 L 206.914062 117.011719 L 229.703125 117.011719 C 255.746094 117.011719 254.542969 117.613281 252.734375 105.917969 C 251.285156 97.71875 249.117188 93.257812 243.929688 87.953125 C 236.816406 80.957031 224.878906 77.582031 214.269531 79.753906 Z M 230.789062 97.355469 C 232.71875 99.285156 234.644531 101.9375 235.128906 103.386719 C 235.851562 106.160156 235.851562 106.160156 221.382812 106.160156 L 206.914062 106.160156 L 208.238281 102.421875 C 211.132812 94.101562 224.15625 91.207031 230.789062 97.355469 Z M 230.789062 97.355469 " fill-opacity="1" fill-rule="nonzero"/><path fill="#ff4f52" d="M 282.394531 79.632812 C 275.882812 80.835938 268.167969 85.300781 265.273438 89.761719 C 264.1875 91.328125 262.980469 94.582031 262.621094 96.996094 L 261.898438 101.335938 L 271.0625 101.335938 C 279.621094 101.335938 280.226562 101.214844 280.585938 98.5625 C 280.828125 96.875 282.515625 95.1875 285.289062 93.738281 C 289.148438 91.929688 290.234375 91.808594 294.332031 93.136719 C 298.3125 94.464844 299.035156 95.308594 299.398438 98.5625 C 299.878906 103.386719 298.792969 103.988281 282.878906 107.363281 C 269.613281 110.136719 265.152344 112.429688 262.136719 118.21875 C 257.195312 127.382812 261.171875 138.957031 270.699219 142.574219 C 280.707031 146.3125 290.355469 144.625 297.589844 137.871094 L 300.84375 134.617188 L 300.84375 143.539062 L 317.726562 143.539062 L 317.726562 118.335938 C 317.726562 94.34375 317.605469 93.015625 314.953125 89.15625 C 309.886719 81.441406 295.78125 77.339844 282.394531 79.632812 Z M 300.84375 116.046875 C 300.84375 120.386719 298.070312 126.65625 295.539062 128.347656 C 293.851562 129.308594 290.472656 130.515625 287.820312 131 C 283.964844 131.601562 282.515625 131.238281 280.464844 129.191406 C 275.402344 124.125 278.175781 120.75 290.59375 117.253906 C 301.207031 114.238281 300.84375 114.359375 300.84375 116.046875 Z M 300.84375 116.046875 " fill-opacity="1" fill-rule="nonzero"/><path fill="#ff4f52" d="M 331.472656 125.691406 C 328.816406 126.898438 326.164062 131.359375 326.164062 134.496094 C 326.164062 143.175781 338.464844 147.636719 343.890625 141.007812 C 350.882812 132.203125 341.601562 120.75 331.472656 125.691406 Z M 331.472656 125.691406 " fill-opacity="1" fill-rule="nonzero"/></svg>