<svg xmlns="http://www.w3.org/2000/svg" xmlns:xlink="http://www.w3.org/1999/xlink" width="500" zoomAndPan="magnify" viewBox="0 0 375 112.499997" height="150" preserveAspectRatio="xMidYMid meet" version="1.0"><path fill="#ff4f52" d="M 63.941406 85.164062 C 63.941406 89.460938 63.941406 93.660156 63.941406 97.917969 C 58.351562 97.917969 52.835938 97.917969 47.269531 97.917969 C 47.269531 69.25 47.269531 40.621094 47.269531 11.917969 C 52.78125 11.917969 58.300781 11.917969 63.910156 11.917969 C 63.910156 29.402344 63.910156 46.890625 63.910156 64.558594 C 64.222656 64.359375 64.441406 64.285156 64.554688 64.136719 C 67.761719 59.933594 70.957031 55.722656 74.160156 51.515625 C 76.875 47.949219 79.589844 44.386719 82.324219 40.839844 C 82.484375 40.632812 82.820312 40.441406 83.078125 40.441406 C 89.632812 40.421875 96.191406 40.425781 102.746094 40.429688 C 102.835938 40.429688 102.925781 40.464844 103.148438 40.515625 C 102.625 41.160156 102.164062 41.753906 101.675781 42.324219 C 99.160156 45.25 96.617188 48.152344 94.117188 51.09375 C 91.332031 54.375 88.585938 57.691406 85.808594 60.976562 C 84.488281 62.539062 83.140625 64.074219 81.78125 65.601562 C 81.296875 66.152344 81.164062 66.523438 81.703125 67.242188 C 87.71875 75.289062 93.671875 83.386719 99.644531 91.464844 C 101.175781 93.535156 102.714844 95.601562 104.25 97.671875 C 104.300781 97.742188 104.320312 97.832031 104.378906 97.976562 C 101.804688 97.976562 99.285156 97.976562 96.769531 97.976562 C 92.933594 97.976562 89.097656 97.96875 85.261719 97.988281 C 84.769531 97.988281 84.449219 97.882812 84.148438 97.449219 C 81.789062 93.996094 79.394531 90.566406 77.019531 87.125 C 72.96875 81.246094 68.921875 75.359375 64.882812 69.472656 C 64.683594 69.183594 64.566406 68.832031 64.410156 68.511719 C 64.253906 68.628906 64.097656 68.746094 63.941406 68.863281 C 63.941406 74.265625 63.941406 79.664062 63.941406 85.164062 Z M 63.941406 85.164062 " fill-opacity="1" fill-rule="nonzero"/><path fill="#ff4f52" d="M 280.632812 97.53125 C 277.828125 98.597656 275.019531 99.109375 272.078125 99.195312 C 266.667969 99.347656 261.675781 98.359375 257.386719 94.816406 C 254.542969 92.46875 252.882812 89.472656 252.394531 85.839844 C 251.914062 82.296875 251.960938 78.761719 253.429688 75.433594 C 254.691406 72.574219 256.789062 70.417969 259.515625 68.863281 C 262.972656 66.890625 266.761719 65.976562 270.613281 65.261719 C 274.621094 64.519531 278.660156 63.921875 282.636719 63.039062 C 284.21875 62.683594 285.742188 61.851562 287.152344 61.003906 C 288.550781 60.167969 288.910156 57.652344 288.199219 55.972656 C 287.222656 53.65625 285.292969 52.558594 283.058594 51.960938 C 279.980469 51.140625 276.925781 51.222656 274.101562 52.90625 C 271.761719 54.296875 270.636719 56.480469 270.519531 59.140625 C 270.476562 60.089844 270.234375 60.359375 269.289062 60.351562 C 264.472656 60.308594 259.652344 60.332031 254.835938 60.332031 C 254.515625 60.332031 254.191406 60.332031 253.765625 60.332031 C 253.816406 57.691406 254.152344 55.183594 254.992188 52.769531 C 255.851562 50.296875 257.253906 48.105469 259.089844 46.273438 C 261.109375 44.253906 263.511719 42.703125 266.164062 41.632812 C 269.121094 40.4375 272.191406 39.59375 275.398438 39.449219 C 278.234375 39.320312 281.089844 39.101562 283.910156 39.289062 C 287.859375 39.554688 291.730469 40.417969 295.332031 42.15625 C 300.132812 44.476562 303.484375 48.097656 304.847656 53.347656 C 305.152344 54.523438 305.285156 55.777344 305.285156 56.996094 C 305.316406 70.234375 305.304688 83.46875 305.304688 96.703125 C 305.304688 97.089844 305.304688 97.476562 305.304688 97.921875 C 299.929688 97.921875 294.632812 97.921875 289.234375 97.921875 C 289.234375 95.3125 289.234375 92.675781 289.234375 90.035156 C 289.164062 89.996094 289.09375 89.953125 289.023438 89.910156 C 287.121094 93.429688 284.277344 95.875 280.632812 97.53125 M 288.414062 72.433594 C 286.582031 72.996094 284.765625 73.628906 282.910156 74.113281 C 279.691406 74.949219 276.4375 75.652344 273.222656 76.507812 C 271.839844 76.875 270.570312 77.59375 269.722656 78.808594 C 267.875 81.464844 269.289062 84.988281 272.570312 86.164062 C 274.988281 87.035156 277.417969 86.882812 279.820312 86.316406 C 282.589844 85.664062 284.910156 84.25 286.671875 81.914062 C 288.800781 79.089844 288.882812 75.855469 288.753906 72.554688 C 288.753906 72.496094 288.632812 72.4375 288.414062 72.433594 Z M 288.414062 72.433594 " fill-opacity="1" fill-rule="nonzero"/><path fill="#ff4f52" d="M 132.957031 39.242188 C 136.132812 39.558594 139.113281 40.230469 142.003906 41.382812 C 146.105469 43.019531 149.511719 45.621094 152.339844 48.925781 C 155.421875 52.523438 157.285156 56.761719 158.402344 61.386719 C 159.320312 65.195312 159.082031 69.023438 159.15625 72.859375 C 159.171875 73.707031 158.828125 73.949219 157.992188 73.945312 C 144.847656 73.921875 131.699219 73.929688 118.554688 73.929688 C 118.164062 73.929688 117.773438 73.929688 117.234375 73.929688 C 117.3125 74.324219 117.371094 74.648438 117.4375 74.964844 C 117.972656 77.507812 119.03125 79.824219 120.816406 81.699219 C 122.636719 83.609375 124.96875 84.726562 127.574219 85.144531 C 130.386719 85.597656 133.183594 85.5 135.894531 84.5 C 137.941406 83.742188 139.472656 82.390625 140.457031 80.4375 C 140.683594 79.988281 140.851562 79.625 141.496094 79.628906 C 146.773438 79.660156 152.050781 79.648438 157.328125 79.652344 C 157.453125 79.652344 157.578125 79.6875 157.949219 79.742188 C 157.511719 81.007812 157.15625 82.226562 156.675781 83.394531 C 155.375 86.5625 153.53125 89.375 151.074219 91.792969 C 148.15625 94.664062 144.691406 96.566406 140.820312 97.765625 C 137.976562 98.648438 135.066406 99.171875 132.074219 99.160156 C 130.886719 99.15625 129.699219 99.164062 128.515625 99.160156 C 124.957031 99.148438 121.566406 98.347656 118.289062 97.003906 C 115.242188 95.757812 112.539062 94.015625 110.125 91.757812 C 106.933594 88.769531 104.675781 85.210938 103.078125 81.167969 C 101.105469 76.179688 100.773438 70.964844 101.175781 65.746094 C 101.636719 59.796875 103.640625 54.320312 107.410156 49.589844 C 111.246094 44.773438 116.171875 41.597656 122.109375 40.101562 C 124.21875 39.574219 126.4375 39.453125 128.621094 39.265625 C 130.023438 39.144531 131.449219 39.242188 132.957031 39.242188 M 133.023438 53.238281 C 130.828125 52.941406 128.640625 52.921875 126.464844 53.429688 C 121.363281 54.621094 118.03125 58.960938 117.441406 64.054688 C 125.921875 64.054688 134.402344 64.054688 142.964844 64.054688 C 142.78125 63.308594 142.652344 62.589844 142.421875 61.90625 C 141.582031 59.425781 140.371094 57.214844 138.226562 55.550781 C 136.707031 54.367188 134.984375 53.769531 133.023438 53.238281 Z M 133.023438 53.238281 " fill-opacity="1" fill-rule="nonzero"/><path fill="#ff4f52" d="M 196.476562 49.636719 C 198.535156 47.136719 200.804688 44.980469 203.53125 43.335938 C 205.855469 41.933594 208.296875 40.78125 210.960938 40.222656 C 212.9375 39.8125 214.9375 39.488281 216.945312 39.269531 C 218.246094 39.125 219.578125 39.234375 220.894531 39.242188 C 224.449219 39.261719 227.824219 40.097656 231.121094 41.394531 C 235.230469 43.007812 238.628906 45.625 241.457031 48.929688 C 244.535156 52.53125 246.398438 56.765625 247.511719 61.390625 C 248.429688 65.195312 248.191406 69.027344 248.265625 72.859375 C 248.285156 73.710938 247.933594 73.949219 247.101562 73.945312 C 233.925781 73.921875 220.75 73.929688 207.574219 73.929688 C 207.1875 73.929688 206.800781 73.929688 206.296875 73.929688 C 206.773438 76.160156 207.394531 78.207031 208.617188 80.015625 C 210.664062 83.050781 213.550781 84.683594 217.160156 85.183594 C 219.769531 85.539062 222.316406 85.421875 224.8125 84.566406 C 226.941406 83.832031 228.546875 82.472656 229.558594 80.449219 C 229.808594 79.949219 230.019531 79.625 230.6875 79.628906 C 235.898438 79.660156 241.113281 79.644531 246.324219 79.648438 C 246.480469 79.648438 246.640625 79.671875 246.992188 79.699219 C 246.742188 80.589844 246.574219 81.429688 246.269531 82.21875 C 244.910156 85.746094 243.050781 88.945312 240.339844 91.644531 C 237.390625 94.582031 233.886719 96.539062 229.953125 97.761719 C 227.109375 98.644531 224.199219 99.171875 221.207031 99.160156 C 219.988281 99.15625 218.769531 99.167969 217.550781 99.15625 C 214.03125 99.125 210.671875 98.339844 207.421875 97.011719 C 204.378906 95.769531 201.675781 94.03125 199.253906 91.777344 C 196.054688 88.792969 193.796875 85.238281 192.195312 81.199219 C 190.21875 76.214844 189.886719 71 190.285156 65.777344 C 190.71875 60.109375 192.535156 54.832031 196.050781 50.246094 C 196.183594 50.070312 196.300781 49.875 196.476562 49.636719 M 219.246094 64.074219 C 223.5 64.074219 227.753906 64.074219 232.015625 64.074219 C 230.84375 57.082031 226.277344 53.285156 219.980469 53.035156 C 211.96875 52.722656 207.554688 57.5 206.480469 64.027344 C 206.546875 64.042969 206.609375 64.066406 206.671875 64.066406 C 210.796875 64.070312 214.921875 64.074219 219.246094 64.074219 Z M 219.246094 64.074219 " fill-opacity="1" fill-rule="nonzero"/><path fill="#ff4f52" d="M 183.148438 75.902344 C 183.148438 83.285156 183.148438 90.570312 183.148438 97.917969 C 177.5625 97.917969 172.042969 97.917969 166.476562 97.917969 C 166.476562 69.257812 166.476562 40.628906 166.476562 11.921875 C 171.980469 11.921875 177.496094 11.921875 183.148438 11.921875 C 183.148438 33.203125 183.148438 54.503906 183.148438 75.902344 Z M 183.148438 75.902344 " fill-opacity="1" fill-rule="nonzero"/><path fill="#ff4f52" d="M 317.496094 98.378906 C 314.507812 97.136719 312.1875 93.84375 312.167969 90.535156 C 312.15625 88.253906 312.402344 86.117188 313.808594 84.203125 C 315.199219 82.3125 317.035156 81.140625 319.269531 80.664062 C 322.125 80.058594 324.859375 80.457031 327.28125 82.203125 C 329.574219 83.851562 330.742188 86.117188 330.886719 88.949219 C 331.003906 91.269531 330.71875 93.488281 329.296875 95.398438 C 327.589844 97.691406 325.34375 99.054688 322.421875 99.164062 C 320.75 99.222656 319.089844 99.253906 317.496094 98.378906 Z M 317.496094 98.378906 " fill-opacity="1" fill-rule="nonzero"/></svg>