<svg xmlns="http://www.w3.org/2000/svg" xmlns:xlink="http://www.w3.org/1999/xlink" width="500" zoomAndPan="magnify" viewBox="0 0 375 187.499995" height="250" preserveAspectRatio="xMidYMid meet" version="1.0"><path fill="#0072bc" d="M 74.984375 62.132812 C 71.984375 62.132812 69.03125 62.789062 66.945312 63.636719 C 64.859375 62.789062 61.90625 62.132812 58.90625 62.132812 C 45.6875 62.132812 33.734375 74.691406 33.734375 91.910156 C 33.734375 110.683594 49.015625 125.222656 66.945312 125.222656 C 84.875 125.222656 100.15625 110.707031 100.15625 91.910156 C 100.15625 74.691406 88.203125 62.132812 74.984375 62.132812 Z M 66.945312 72.363281 C 69.5 73.894531 72.851562 78.292969 72.851562 83.277344 C 72.851562 86.925781 70.460938 89.792969 66.945312 89.792969 C 63.429688 89.792969 61.039062 86.925781 61.039062 83.277344 C 61.015625 78.292969 64.390625 73.894531 66.945312 72.363281 Z M 66.945312 117.011719 C 53.234375 117.011719 41.890625 105.929688 41.890625 91.746094 C 41.890625 78.785156 51.21875 69.941406 58.53125 70.269531 C 55.0625 73.726562 52.953125 78.785156 52.953125 83.679688 C 52.953125 92.101562 59.609375 98.003906 66.945312 98.003906 C 74.28125 98.003906 80.9375 92.101562 80.9375 83.679688 C 80.9375 78.785156 78.828125 73.726562 75.359375 70.269531 C 82.671875 69.941406 92 78.785156 92 91.746094 C 92 105.957031 80.65625 117.011719 66.945312 117.011719 Z M 66.945312 117.011719 " fill-opacity="1" fill-rule="evenodd"/><path fill="#0072bc" d="M 147.996094 76.503906 L 147.996094 83.371094 C 147.996094 83.371094 157.675781 83.371094 158.425781 83.371094 C 158.425781 84.125 158.425781 109.128906 158.425781 109.128906 L 165.808594 109.128906 C 165.808594 109.128906 165.808594 84.148438 165.808594 83.371094 C 166.535156 83.371094 176.238281 83.371094 176.238281 83.371094 L 176.238281 76.503906 Z M 147.996094 76.503906 " fill-opacity="1" fill-rule="nonzero"/><path fill="#0072bc" d="M 269.476562 76.503906 L 250.886719 76.503906 L 250.886719 83.417969 L 268.984375 83.417969 C 271.632812 83.417969 272.664062 84.644531 272.664062 87.746094 C 272.664062 87.773438 272.664062 88.640625 272.664062 88.902344 C 271.914062 88.902344 257.660156 88.902344 257.660156 88.902344 C 251.964844 88.902344 249.128906 91.769531 249.128906 98.238281 L 249.128906 99.769531 C 249.128906 106.425781 252.058594 109.082031 257.988281 109.082031 L 279.976562 109.082031 L 279.976562 87.652344 C 280 79.46875 277.28125 76.503906 269.476562 76.503906 Z M 258.765625 102.144531 C 257.640625 102.144531 256.394531 101.578125 256.394531 98.78125 C 256.394531 95.980469 257.640625 95.488281 258.765625 95.488281 C 258.765625 95.488281 271.9375 95.488281 272.6875 95.488281 L 272.6875 102.144531 C 271.9375 102.144531 258.765625 102.144531 258.765625 102.144531 Z M 258.765625 102.144531 " fill-opacity="1" fill-rule="nonzero"/><path fill="#0072bc" d="M 330.765625 76.503906 L 312.179688 76.503906 L 312.179688 83.417969 L 330.273438 83.417969 C 332.921875 83.417969 333.953125 84.644531 333.953125 87.746094 C 333.953125 87.773438 333.953125 88.640625 333.953125 88.902344 C 333.203125 88.902344 318.953125 88.902344 318.953125 88.902344 C 313.257812 88.902344 310.421875 91.769531 310.421875 98.238281 L 310.421875 99.769531 C 310.421875 106.425781 313.351562 109.082031 319.28125 109.082031 L 341.265625 109.082031 L 341.265625 87.652344 C 341.265625 79.46875 338.570312 76.503906 330.765625 76.503906 Z M 320.054688 102.144531 C 318.929688 102.144531 317.6875 101.578125 317.6875 98.78125 C 317.6875 95.980469 318.929688 95.488281 320.054688 95.488281 C 320.054688 95.488281 333.226562 95.488281 333.976562 95.488281 L 333.976562 102.144531 C 333.226562 102.144531 320.054688 102.144531 320.054688 102.144531 Z M 320.054688 102.144531 " fill-opacity="1" fill-rule="nonzero"/><path fill="#0072bc" d="M 178.558594 76.503906 L 178.558594 83.371094 C 178.558594 83.371094 188.261719 83.371094 188.988281 83.371094 C 188.988281 84.125 188.988281 109.128906 188.988281 109.128906 L 196.371094 109.128906 C 196.371094 109.128906 196.371094 84.148438 196.371094 83.371094 C 197.097656 83.371094 206.800781 83.371094 206.800781 83.371094 L 206.800781 76.503906 Z M 178.558594 76.503906 " fill-opacity="1" fill-rule="nonzero"/><path fill="#0072bc" d="M 281.476562 76.503906 L 281.476562 83.371094 C 281.476562 83.371094 291.15625 83.371094 291.90625 83.371094 C 291.90625 84.125 291.90625 109.128906 291.90625 109.128906 L 299.289062 109.128906 C 299.289062 109.128906 299.289062 84.148438 299.289062 83.371094 C 300.015625 83.371094 309.71875 83.371094 309.71875 83.371094 L 309.71875 76.503906 Z M 281.476562 76.503906 " fill-opacity="1" fill-rule="nonzero"/><path fill="#0072bc" d="M 246.292969 97.699219 L 246.292969 87.9375 C 246.292969 79.398438 242.988281 76.503906 235.535156 76.503906 L 215.777344 76.503906 L 215.777344 109.105469 L 235.886719 109.105469 C 243.785156 109.105469 246.292969 105.179688 246.292969 97.699219 Z M 238.746094 97.839844 C 238.746094 100.96875 237.691406 102.167969 235.042969 102.167969 C 235.042969 102.167969 223.886719 102.167969 223.160156 102.167969 L 223.160156 83.441406 C 223.886719 83.441406 235.042969 83.441406 235.042969 83.441406 C 237.691406 83.441406 238.746094 84.667969 238.746094 87.773438 C 238.746094 87.820312 238.746094 97.839844 238.746094 97.839844 Z M 238.746094 97.839844 " fill-opacity="1" fill-rule="nonzero"/><path fill="#0072bc" d="M 137.589844 101.34375 C 137.425781 101.039062 127.558594 81.75 126.363281 79.867188 C 124.980469 77.679688 123.269531 76.152344 120.035156 76.152344 C 117.007812 76.152344 113.445312 77.492188 113.445312 84.761719 L 113.445312 109.152344 L 120.738281 109.152344 C 120.738281 109.152344 120.738281 90.289062 120.738281 88.804688 C 120.738281 87.347656 120.644531 85.183594 120.621094 84.761719 C 120.597656 84.40625 120.621094 84.054688 120.808594 83.960938 C 121.019531 83.84375 121.230469 84.03125 121.371094 84.3125 C 121.511719 84.597656 130.652344 102.730469 132.597656 105.789062 C 133.980469 107.976562 135.691406 109.507812 138.925781 109.507812 C 141.925781 109.507812 145.511719 108.167969 145.511719 100.898438 L 145.511719 76.503906 L 138.246094 76.503906 C 138.246094 76.503906 138.246094 95.371094 138.246094 96.851562 C 138.246094 98.308594 138.339844 100.472656 138.363281 100.921875 C 138.386719 101.273438 138.363281 101.625 138.175781 101.722656 C 137.941406 101.816406 137.730469 101.625 137.589844 101.34375 Z M 137.589844 101.34375 " fill-opacity="1" fill-rule="nonzero"/></svg>