<svg xmlns="http://www.w3.org/2000/svg" xmlns:xlink="http://www.w3.org/1999/xlink" width="500" zoomAndPan="magnify" viewBox="0 0 375 112.499997" height="150" preserveAspectRatio="xMidYMid meet" version="1.0"><defs><clipPath id="70dae12908"><path d="M 12.03125 45 L 19 45 L 19 71 L 12.03125 71 Z M 12.03125 45 " clip-rule="nonzero"/></clipPath><clipPath id="4498b2aec0"><path d="M 12.03125 24.636719 L 38 24.636719 L 38 47 L 12.03125 47 Z M 12.03125 24.636719 " clip-rule="nonzero"/></clipPath><clipPath id="6d0ed9db5e"><path d="M 40 24.636719 L 67 24.636719 L 67 47 L 40 47 Z M 40 24.636719 " clip-rule="nonzero"/></clipPath><clipPath id="865b28c8e7"><path d="M 12.03125 66 L 38 66 L 38 87.355469 L 12.03125 87.355469 Z M 12.03125 66 " clip-rule="nonzero"/></clipPath><clipPath id="5b7351f1be"><path d="M 40 66 L 67 66 L 67 87.355469 L 40 87.355469 Z M 40 66 " clip-rule="nonzero"/></clipPath><clipPath id="26fa5d523b"><path d="M 344 44 L 362.96875 44 L 362.96875 74 L 344 74 Z M 344 44 " clip-rule="nonzero"/></clipPath></defs><path fill="#599ddb" d="M 56.972656 43.945312 L 39.007812 33.992188 L 21.15625 44.074219 L 39.015625 53.621094 L 56.972656 43.945312 " fill-opacity="1" fill-rule="evenodd"/><g clip-path="url(#70dae12908)"><path fill="#959ea1" d="M 12.03125 67.246094 L 18.472656 70.097656 L 18.480469 45.5625 L 12.03125 49.234375 L 12.03125 67.246094 " fill-opacity="1" fill-rule="evenodd"/></g><path fill="#599ddb" d="M 21.183594 52.867188 L 21.183594 47.007812 L 38.75 56.386719 L 38.75 62.257812 L 21.183594 52.867188 " fill-opacity="1" fill-rule="evenodd"/><g clip-path="url(#4498b2aec0)"><path fill="#959ea1" d="M 12.03125 39.21875 L 37.699219 24.699219 L 37.699219 31.792969 L 12.03125 46.332031 L 12.03125 39.21875 " fill-opacity="1" fill-rule="evenodd"/></g><g clip-path="url(#6d0ed9db5e)"><path fill="#959ea1" d="M 66.207031 38.972656 L 40.429688 24.746094 L 40.429688 31.832031 L 66.207031 46.058594 L 66.207031 38.972656 " fill-opacity="1" fill-rule="evenodd"/></g><path fill="#599ddb" d="M 21.15625 60.453125 L 21.15625 54.589844 L 38.75 63.996094 L 38.75 69.804688 L 21.15625 60.453125 " fill-opacity="1" fill-rule="evenodd"/><path fill="#599ddb" d="M 57.03125 60.3125 L 57.03125 54.433594 L 39.269531 63.96875 L 39.269531 69.828125 L 57.03125 60.3125 " fill-opacity="1" fill-rule="evenodd"/><path fill="#959ea1" d="M 59.703125 66.378906 L 66.207031 62.867188 L 66.207031 45.554688 L 59.691406 42.257812 L 59.703125 66.378906 " fill-opacity="1" fill-rule="evenodd"/><g clip-path="url(#865b28c8e7)"><path fill="#959ea1" d="M 12.03125 73.574219 L 37.699219 87.292969 L 37.699219 80.199219 L 12.03125 66.488281 L 12.03125 73.574219 " fill-opacity="1" fill-rule="evenodd"/></g><g clip-path="url(#5b7351f1be)"><path fill="#959ea1" d="M 66.207031 73.257812 L 40.429688 87.101562 L 40.429688 80.003906 L 66.207031 66.164062 L 66.207031 73.257812 " fill-opacity="1" fill-rule="evenodd"/></g><path fill="#599ddb" d="M 57.011719 52.726562 L 57.011719 46.847656 L 39.269531 56.375 L 39.269531 62.253906 L 57.011719 52.726562 " fill-opacity="1" fill-rule="evenodd"/><path fill="#599ddb" d="M 21.15625 67.957031 L 21.15625 62.097656 L 38.75 71.542969 L 38.75 77.371094 L 21.15625 67.957031 " fill-opacity="1" fill-rule="evenodd"/><path fill="#599ddb" d="M 57.03125 67.898438 L 57.03125 62.015625 L 39.269531 71.542969 L 39.269531 77.371094 L 57.03125 67.898438 " fill-opacity="1" fill-rule="evenodd"/><path fill="#599ddb" d="M 221.503906 39.171875 L 221.503906 72.785156 L 213.84375 72.785156 L 209.296875 57.503906 L 209.296875 72.785156 L 201.988281 72.785156 L 201.988281 39.171875 L 209.296875 39.171875 L 214.195312 54.308594 L 214.195312 39.171875 L 221.503906 39.171875 " fill-opacity="1" fill-rule="nonzero"/><path fill="#599ddb" d="M 235.351562 55.011719 L 235.351562 53 C 235.351562 51.574219 235.273438 50.652344 235.121094 50.238281 C 234.96875 49.824219 234.660156 49.613281 234.1875 49.613281 C 233.605469 49.613281 233.246094 49.792969 233.109375 50.144531 C 232.96875 50.496094 232.902344 51.449219 232.902344 53 L 232.902344 55.011719 Z M 243.757812 59.496094 L 232.902344 59.496094 L 232.902344 65.457031 C 232.902344 66.703125 232.992188 67.503906 233.171875 67.863281 C 233.351562 68.222656 233.699219 68.40625 234.210938 68.40625 C 234.84375 68.40625 235.269531 68.164062 235.484375 67.6875 C 235.699219 67.210938 235.808594 66.285156 235.808594 64.917969 L 235.808594 61.28125 L 243.757812 61.28125 L 243.757812 63.316406 C 243.757812 65.019531 243.652344 66.328125 243.4375 67.242188 C 243.222656 68.15625 242.722656 69.132812 241.933594 70.167969 C 241.144531 71.207031 240.144531 71.984375 238.933594 72.503906 C 237.722656 73.023438 236.203125 73.28125 234.375 73.28125 C 232.601562 73.28125 231.039062 73.027344 229.683594 72.515625 C 228.328125 72.003906 227.269531 71.300781 226.515625 70.40625 C 225.761719 69.515625 225.242188 68.53125 224.949219 67.460938 C 224.660156 66.386719 224.511719 64.824219 224.511719 62.777344 L 224.511719 54.742188 C 224.511719 52.335938 224.839844 50.433594 225.488281 49.042969 C 226.140625 47.652344 227.207031 46.585938 228.6875 45.847656 C 230.167969 45.105469 231.871094 44.734375 233.792969 44.734375 C 236.148438 44.734375 238.089844 45.183594 239.617188 46.074219 C 241.148438 46.96875 242.21875 48.152344 242.835938 49.625 C 243.453125 51.097656 243.757812 53.171875 243.757812 55.84375 L 243.757812 59.496094 " fill-opacity="1" fill-rule="nonzero"/><path fill="#599ddb" d="M 255.34375 41.558594 L 255.34375 45.898438 L 257.609375 45.898438 L 257.609375 50.257812 L 255.34375 50.257812 L 255.34375 65 C 255.34375 66.8125 255.4375 67.824219 255.625 68.03125 C 255.8125 68.238281 256.589844 68.339844 257.960938 68.339844 L 257.960938 72.785156 L 254.578125 72.785156 C 252.667969 72.785156 251.304688 72.707031 250.488281 72.546875 C 249.671875 72.386719 248.949219 72.019531 248.328125 71.445312 C 247.703125 70.871094 247.316406 70.214844 247.164062 69.472656 C 247.011719 68.734375 246.9375 66.992188 246.9375 64.253906 L 246.9375 50.257812 L 245.128906 50.257812 L 245.128906 45.898438 L 246.9375 45.898438 L 246.9375 41.558594 L 255.34375 41.558594 " fill-opacity="1" fill-rule="nonzero"/><path fill="#599ddb" d="M 286.570312 45.234375 L 283.222656 72.785156 L 274.117188 72.785156 C 273.621094 69.417969 273.042969 64.984375 272.378906 59.476562 C 272.152344 61.898438 271.839844 64.34375 271.4375 66.804688 L 270.515625 72.785156 L 261.390625 72.785156 L 257.835938 45.234375 L 265.066406 45.234375 C 265.121094 45.953125 265.730469 51.214844 266.898438 61.011719 C 266.992188 60.003906 267.617188 54.746094 268.78125 45.234375 L 275.726562 45.234375 L 277.425781 61.011719 C 277.691406 56.40625 278.335938 51.144531 279.347656 45.234375 L 286.570312 45.234375 " fill-opacity="1" fill-rule="nonzero"/><path fill="#599ddb" d="M 298.507812 52.832031 C 298.507812 51.421875 298.433594 50.53125 298.28125 50.164062 C 298.128906 49.796875 297.800781 49.613281 297.304688 49.613281 C 296.804688 49.613281 296.472656 49.796875 296.308594 50.164062 C 296.140625 50.53125 296.058594 51.421875 296.058594 52.832031 L 296.058594 65.269531 C 296.058594 66.570312 296.140625 67.417969 296.308594 67.8125 C 296.472656 68.207031 296.796875 68.40625 297.28125 68.40625 C 297.78125 68.40625 298.109375 68.222656 298.269531 67.863281 C 298.429688 67.503906 298.507812 66.730469 298.507812 65.539062 Z M 306.894531 54.910156 L 306.894531 61.65625 C 306.894531 64.132812 306.769531 65.949219 306.523438 67.105469 C 306.273438 68.261719 305.738281 69.34375 304.921875 70.34375 C 304.105469 71.347656 303.058594 72.089844 301.777344 72.566406 C 300.496094 73.042969 299.027344 73.28125 297.367188 73.28125 C 295.511719 73.28125 293.941406 73.078125 292.652344 72.671875 C 291.367188 72.261719 290.367188 71.644531 289.652344 70.824219 C 288.941406 70 288.433594 69.003906 288.128906 67.832031 C 287.824219 66.664062 287.671875 64.910156 287.671875 62.570312 L 287.671875 55.511719 C 287.671875 52.949219 287.949219 50.949219 288.5 49.511719 C 289.054688 48.070312 290.050781 46.914062 291.492188 46.042969 C 292.929688 45.171875 294.769531 44.734375 297.011719 44.734375 C 298.894531 44.734375 300.511719 45.015625 301.863281 45.578125 C 303.210938 46.136719 304.25 46.867188 304.984375 47.765625 C 305.71875 48.667969 306.222656 49.59375 306.492188 50.550781 C 306.761719 51.503906 306.894531 52.957031 306.894531 54.910156 " fill-opacity="1" fill-rule="nonzero"/><path fill="#599ddb" d="M 318.042969 45.234375 L 317.710938 48.855469 C 318.929688 46.261719 320.695312 44.890625 323.007812 44.734375 L 323.007812 54.429688 C 321.46875 54.429688 320.34375 54.640625 319.621094 55.054688 C 318.902344 55.46875 318.460938 56.046875 318.292969 56.789062 C 318.128906 57.527344 318.042969 59.234375 318.042969 61.90625 L 318.042969 72.785156 L 309.65625 72.785156 L 309.65625 45.234375 L 318.042969 45.234375 " fill-opacity="1" fill-rule="nonzero"/><path fill="#599ddb" d="M 342.9375 45.234375 L 339.53125 56.207031 L 343.957031 72.785156 L 335.890625 72.785156 L 333.273438 60.777344 L 333.261719 72.785156 L 324.875 72.785156 L 324.875 39.171875 L 333.261719 39.171875 L 333.273438 53.28125 L 335.890625 45.234375 L 342.9375 45.234375 " fill-opacity="1" fill-rule="nonzero"/><g clip-path="url(#26fa5d523b)"><path fill="#599ddb" d="M 362.328125 54.035156 L 354.894531 54.035156 L 354.894531 52.542969 C 354.894531 51.269531 354.824219 50.460938 354.679688 50.125 C 354.53125 49.785156 354.167969 49.613281 353.589844 49.613281 C 353.117188 49.613281 352.765625 49.769531 352.53125 50.082031 C 352.292969 50.394531 352.175781 50.859375 352.175781 51.484375 C 352.175781 52.328125 352.234375 52.945312 352.351562 53.339844 C 352.46875 53.734375 352.824219 54.167969 353.410156 54.640625 C 354 55.109375 355.207031 55.792969 357.035156 56.695312 C 359.472656 57.886719 361.070312 59.007812 361.832031 60.058594 C 362.589844 61.109375 362.972656 62.640625 362.972656 64.644531 C 362.972656 66.890625 362.683594 68.582031 362.101562 69.722656 C 361.519531 70.863281 360.546875 71.742188 359.183594 72.359375 C 357.820312 72.976562 356.175781 73.28125 354.253906 73.28125 C 352.121094 73.28125 350.296875 72.949219 348.78125 72.285156 C 347.265625 71.621094 346.226562 70.722656 345.65625 69.585938 C 345.089844 68.453125 344.808594 66.734375 344.808594 64.4375 L 344.808594 63.109375 L 352.238281 63.109375 L 352.238281 64.855469 C 352.238281 66.335938 352.332031 67.296875 352.519531 67.738281 C 352.707031 68.183594 353.078125 68.40625 353.628906 68.40625 C 354.226562 68.40625 354.640625 68.253906 354.875 67.957031 C 355.109375 67.660156 355.226562 67.035156 355.226562 66.078125 C 355.226562 64.765625 355.078125 63.941406 354.773438 63.609375 C 354.453125 63.277344 352.828125 62.292969 349.894531 60.660156 C 347.429688 59.277344 345.925781 58.019531 345.386719 56.890625 C 344.847656 55.765625 344.578125 54.425781 344.578125 52.875 C 344.578125 50.671875 344.867188 49.050781 345.449219 48.007812 C 346.03125 46.960938 347.015625 46.15625 348.40625 45.585938 C 349.800781 45.019531 351.414062 44.734375 353.257812 44.734375 C 355.082031 44.734375 356.636719 44.96875 357.917969 45.429688 C 359.195312 45.894531 360.179688 46.507812 360.867188 47.269531 C 361.550781 48.03125 361.964844 48.734375 362.113281 49.386719 C 362.257812 50.039062 362.328125 51.054688 362.328125 52.4375 L 362.328125 54.035156 " fill-opacity="1" fill-rule="nonzero"/></g><path fill="#959ea1" d="M 88.421875 45.171875 L 88.421875 52.644531 C 89.40625 52.644531 90.09375 52.511719 90.488281 52.242188 C 90.882812 51.972656 91.082031 51.097656 91.082031 49.613281 L 91.082031 47.765625 C 91.082031 46.703125 90.890625 46.003906 90.507812 45.671875 C 90.128906 45.339844 89.433594 45.171875 88.421875 45.171875 Z M 79.683594 39.421875 L 85.867188 39.421875 C 89.992188 39.421875 92.785156 39.582031 94.246094 39.898438 C 95.707031 40.21875 96.898438 41.03125 97.816406 42.335938 C 98.738281 43.644531 99.199219 45.730469 99.199219 48.597656 C 99.199219 51.214844 98.871094 52.972656 98.222656 53.871094 C 97.570312 54.769531 96.292969 55.308594 94.382812 55.492188 C 96.113281 55.917969 97.273438 56.496094 97.871094 57.214844 C 98.464844 57.933594 98.835938 58.59375 98.980469 59.195312 C 99.125 59.796875 99.199219 61.457031 99.199219 64.167969 L 99.199219 73.035156 L 91.082031 73.035156 L 91.082031 61.863281 C 91.082031 60.066406 90.9375 58.949219 90.65625 58.523438 C 90.371094 58.09375 89.625 57.878906 88.421875 57.878906 L 88.421875 73.035156 L 79.683594 73.035156 L 79.683594 39.421875 " fill-opacity="1" fill-rule="nonzero"/><path fill="#959ea1" d="M 112.484375 59.933594 C 111.144531 60.917969 110.363281 61.738281 110.148438 62.402344 C 109.933594 63.070312 109.828125 64.023438 109.828125 65.269531 C 109.828125 66.695312 109.921875 67.613281 110.109375 68.03125 C 110.296875 68.445312 110.664062 68.652344 111.21875 68.652344 C 111.746094 68.652344 112.085938 68.492188 112.246094 68.164062 C 112.40625 67.839844 112.484375 66.984375 112.484375 65.601562 Z M 109.828125 56.15625 L 101.960938 56.15625 L 101.960938 54.308594 C 101.960938 52.175781 102.203125 50.53125 102.695312 49.375 C 103.1875 48.21875 104.171875 47.199219 105.65625 46.3125 C 107.136719 45.429688 109.058594 44.984375 111.425781 44.984375 C 114.265625 44.984375 116.402344 45.488281 117.839844 46.488281 C 119.28125 47.492188 120.148438 48.726562 120.4375 50.183594 C 120.726562 51.644531 120.871094 54.652344 120.871094 59.207031 L 120.871094 73.035156 L 112.714844 73.035156 L 112.714844 70.578125 C 112.203125 71.5625 111.539062 72.300781 110.730469 72.792969 C 109.921875 73.285156 108.957031 73.53125 107.835938 73.53125 C 106.367188 73.53125 105.019531 73.121094 103.796875 72.296875 C 102.570312 71.472656 101.960938 69.671875 101.960938 66.890625 L 101.960938 64.625 C 101.960938 62.5625 102.285156 61.160156 102.933594 60.410156 C 103.585938 59.664062 105.199219 58.792969 107.773438 57.792969 C 110.527344 56.714844 112 55.988281 112.195312 55.613281 C 112.386719 55.242188 112.484375 54.480469 112.484375 53.332031 C 112.484375 51.890625 112.378906 50.953125 112.164062 50.519531 C 111.949219 50.082031 111.59375 49.863281 111.09375 49.863281 C 110.527344 49.863281 110.171875 50.046875 110.035156 50.414062 C 109.898438 50.78125 109.828125 51.730469 109.828125 53.269531 L 109.828125 56.15625 " fill-opacity="1" fill-rule="nonzero"/><path fill="#959ea1" d="M 132.394531 45.484375 L 132.394531 73.035156 L 123.757812 73.035156 L 123.757812 45.484375 Z M 132.394531 39.421875 L 132.394531 43.800781 L 123.757812 43.800781 L 123.757812 39.421875 L 132.394531 39.421875 " fill-opacity="1" fill-rule="nonzero"/><path fill="#959ea1" d="M 145.996094 53.082031 C 145.996094 51.671875 145.917969 50.78125 145.765625 50.414062 C 145.613281 50.046875 145.289062 49.863281 144.789062 49.863281 C 144.292969 49.863281 143.960938 50.046875 143.792969 50.414062 C 143.628906 50.78125 143.542969 51.671875 143.542969 53.082031 L 143.542969 65.519531 C 143.542969 66.820312 143.628906 67.667969 143.792969 68.0625 C 143.960938 68.457031 144.285156 68.652344 144.769531 68.652344 C 145.269531 68.652344 145.597656 68.472656 145.753906 68.113281 C 145.914062 67.753906 145.996094 66.976562 145.996094 65.789062 Z M 154.382812 55.160156 L 154.382812 61.90625 C 154.382812 64.382812 154.257812 66.199219 154.007812 67.355469 C 153.757812 68.511719 153.226562 69.589844 152.410156 70.59375 C 151.59375 71.597656 150.542969 72.339844 149.265625 72.816406 C 147.984375 73.292969 146.511719 73.53125 144.851562 73.53125 C 142.996094 73.53125 141.425781 73.328125 140.140625 72.917969 C 138.851562 72.511719 137.851562 71.894531 137.140625 71.074219 C 136.425781 70.25 135.917969 69.253906 135.613281 68.082031 C 135.308594 66.914062 135.15625 65.15625 135.15625 62.820312 L 135.15625 55.761719 C 135.15625 53.199219 135.433594 51.199219 135.988281 49.761719 C 136.542969 48.320312 137.539062 47.164062 138.976562 46.292969 C 140.417969 45.421875 142.257812 44.984375 144.5 44.984375 C 146.382812 44.984375 148 45.265625 149.347656 45.824219 C 150.695312 46.386719 151.738281 47.117188 152.472656 48.015625 C 153.207031 48.914062 153.707031 49.84375 153.976562 50.796875 C 154.246094 51.753906 154.382812 53.207031 154.382812 55.160156 " fill-opacity="1" fill-rule="nonzero"/><path fill="#959ea1" d="M 165.78125 39.421875 L 165.78125 73.035156 L 157.144531 73.035156 L 157.144531 39.421875 L 165.78125 39.421875 " fill-opacity="1" fill-rule="nonzero"/><path fill="#959ea1" d="M 178.941406 59.933594 C 177.601562 60.917969 176.820312 61.738281 176.605469 62.402344 C 176.394531 63.070312 176.285156 64.023438 176.285156 65.269531 C 176.285156 66.695312 176.378906 67.613281 176.566406 68.03125 C 176.753906 68.445312 177.121094 68.652344 177.675781 68.652344 C 178.203125 68.652344 178.546875 68.492188 178.703125 68.164062 C 178.863281 67.839844 178.941406 66.984375 178.941406 65.601562 Z M 176.285156 56.15625 L 168.417969 56.15625 L 168.417969 54.308594 C 168.417969 52.175781 168.664062 50.53125 169.152344 49.375 C 169.644531 48.21875 170.632812 47.199219 172.113281 46.3125 C 173.59375 45.429688 175.515625 44.984375 177.882812 44.984375 C 180.722656 44.984375 182.859375 45.488281 184.300781 46.488281 C 185.738281 47.492188 186.605469 48.726562 186.894531 50.183594 C 187.1875 51.644531 187.332031 54.652344 187.332031 59.207031 L 187.332031 73.035156 L 179.171875 73.035156 L 179.171875 70.578125 C 178.660156 71.5625 178 72.300781 177.1875 72.792969 C 176.378906 73.285156 175.414062 73.53125 174.292969 73.53125 C 172.824219 73.53125 171.480469 73.121094 170.253906 72.296875 C 169.03125 71.472656 168.417969 69.671875 168.417969 66.890625 L 168.417969 64.625 C 168.417969 62.5625 168.742188 61.160156 169.394531 60.410156 C 170.042969 59.664062 171.65625 58.792969 174.230469 57.792969 C 176.984375 56.714844 178.457031 55.988281 178.652344 55.613281 C 178.847656 55.242188 178.941406 54.480469 178.941406 53.332031 C 178.941406 51.890625 178.835938 50.953125 178.621094 50.519531 C 178.40625 50.082031 178.050781 49.863281 177.550781 49.863281 C 176.984375 49.863281 176.632812 50.046875 176.492188 50.414062 C 176.355469 50.78125 176.285156 51.730469 176.285156 53.269531 L 176.285156 56.15625 " fill-opacity="1" fill-rule="nonzero"/></svg>