<svg xmlns="http://www.w3.org/2000/svg" xmlns:xlink="http://www.w3.org/1999/xlink" width="500" zoomAndPan="magnify" viewBox="0 0 375 112.499997" height="150" preserveAspectRatio="xMidYMid meet" version="1.0"><path fill="#e7313a" d="M 344.96875 51.089844 C 329.554688 45.394531 319.636719 47.269531 319.636719 40.953125 C 319.636719 31.839844 341.601562 37.941406 347.875 41.730469 L 354.359375 30.492188 C 354.574219 30.078125 354.703125 29.640625 354.742188 29.171875 C 354.785156 28.707031 354.734375 28.253906 354.597656 27.808594 C 354.457031 27.359375 354.238281 26.957031 353.9375 26.597656 C 353.640625 26.238281 353.285156 25.953125 352.871094 25.734375 C 334.003906 16.726562 300.964844 18.425781 300.964844 42.984375 C 300.964844 52.398438 305.78125 57.035156 312.886719 60.222656 C 322.578125 64.558594 339.617188 64.148438 339.617188 70.945312 C 339.617188 80.324219 315.792969 74.695312 308.652344 70.058594 L 301.015625 84.480469 C 320.644531 95.027344 358.132812 95.347656 358.132812 69.40625 C 358.132812 58.964844 352.800781 54.1875 344.96875 51.089844 Z M 242.5 30.527344 C 242.285156 30.113281 242.15625 29.675781 242.117188 29.207031 C 242.074219 28.742188 242.125 28.289062 242.261719 27.84375 C 242.402344 27.394531 242.621094 26.992188 242.921875 26.632812 C 243.21875 26.277344 243.574219 25.988281 243.988281 25.769531 C 262.875 16.742188 295.914062 18.105469 295.914062 44.527344 L 295.914062 89.507812 L 293.328125 89.507812 C 285.832031 89.507812 286.703125 83.3125 280.058594 86.605469 C 266.894531 92.800781 255.113281 92.285156 247.640625 87.527344 C 247.78125 85.972656 248.128906 84.46875 248.679688 83.007812 C 249.230469 81.546875 249.964844 80.1875 250.882812 78.925781 C 251.804688 77.664062 252.871094 76.546875 254.089844 75.574219 C 255.3125 74.601562 256.640625 73.808594 258.074219 73.191406 C 258.996094 74.660156 260.941406 75.847656 264.132812 76.078125 C 272.902344 76.730469 279.046875 71 279.046875 59.320312 C 272.28125 64.980469 266.71875 63.8125 262.644531 64.980469 C 259.046875 65.917969 257.382812 69.210938 257.453125 71.15625 C 255.914062 71.796875 254.480469 72.621094 253.152344 73.628906 C 251.824219 74.640625 250.644531 75.796875 249.613281 77.109375 C 248.585938 78.417969 247.738281 79.839844 247.074219 81.367188 C 246.40625 82.894531 245.945312 84.480469 245.691406 86.128906 C 244.566406 85.195312 243.5625 84.148438 242.675781 82.988281 C 241.789062 81.828125 241.046875 80.585938 240.445312 79.257812 C 239.839844 77.925781 239.394531 76.546875 239.105469 75.117188 C 238.816406 73.6875 238.6875 72.246094 238.726562 70.785156 C 238.726562 61.867188 244.273438 54.242188 252.121094 51.144531 C 267.535156 45.429688 277.242188 47.304688 277.242188 40.988281 C 277.242188 31.875 255.273438 37.976562 249.003906 41.765625 Z M 55.671875 39.199219 L 55.671875 89.527344 L 37.195312 89.527344 L 37.195312 39.199219 L 17.050781 39.199219 L 17.050781 22.425781 L 75.832031 22.425781 L 75.832031 35.800781 C 75.824219 36.257812 75.726562 36.695312 75.546875 37.113281 C 75.363281 37.527344 75.109375 37.898438 74.785156 38.214844 C 74.457031 38.53125 74.082031 38.777344 73.660156 38.949219 C 73.238281 39.117188 72.796875 39.203125 72.339844 39.199219 Z M 99.324219 39.199219 L 99.324219 47.691406 L 127.898438 47.691406 L 127.898438 64.449219 L 99.324219 64.449219 L 99.324219 72.75 L 136.277344 72.75 L 136.277344 89.527344 L 82.546875 89.527344 L 82.546875 22.425781 L 136.296875 22.425781 L 136.296875 39.199219 Z M 200.109375 79.332031 C 199.078125 79.332031 198.496094 78.800781 197.980469 77.988281 L 183.296875 53.675781 C 183.578125 60.839844 183.683594 68.398438 183.683594 75.617188 C 183.683594 80.269531 183.4375 84.90625 183.332031 89.527344 L 166.5 89.527344 L 166.5 22.425781 L 181.699219 22.425781 C 182.886719 22.425781 183.863281 23.0625 184.464844 24.070312 L 200.109375 49.921875 L 215.714844 24.085938 C 216.316406 23.078125 217.308594 22.441406 218.496094 22.441406 L 233.679688 22.441406 L 233.679688 89.542969 L 216.882812 89.542969 C 216.761719 84.925781 216.496094 80.289062 216.496094 75.632812 C 216.496094 68.414062 216.617188 60.859375 216.882812 53.691406 L 202.234375 78.003906 C 201.703125 78.820312 201.117188 79.351562 200.089844 79.351562 Z M 143.007812 22.425781 L 159.804688 22.425781 L 159.804688 89.527344 L 143.007812 89.527344 Z M 143.007812 22.425781 " fill-opacity="1" fill-rule="evenodd"/></svg>