<svg xmlns="http://www.w3.org/2000/svg" xmlns:xlink="http://www.w3.org/1999/xlink" width="500" zoomAndPan="magnify" viewBox="0 0 375 187.499995" height="250" preserveAspectRatio="xMidYMid meet" version="1.0"><defs><clipPath id="919b888072"><path d="M 19.199219 70.570312 L 355.800781 70.570312 L 355.800781 116 L 19.199219 116 Z M 19.199219 70.570312 " clip-rule="nonzero"/></clipPath></defs><g clip-path="url(#919b888072)"><path fill="#3858e9" d="M 58.359375 92.824219 L 52.132812 110.742188 C 58.191406 107.222656 62.269531 100.691406 62.269531 93.207031 C 62.269531 89.679688 61.359375 86.359375 59.769531 83.472656 C 59.855469 84.121094 59.90625 84.816406 59.90625 85.5625 C 59.90625 87.617188 59.519531 89.929688 58.359375 92.824219 Z M 47.019531 83.5 C 47.019531 83.5 45.914062 83.628906 44.6875 83.695312 L 44.691406 83.703125 L 52.0625 105.507812 L 54.09375 98.746094 C 55.132812 96.109375 55.648438 93.925781 55.648438 92.1875 C 55.648438 89.675781 54.742188 87.941406 53.964844 86.589844 C 53.886719 86.460938 53.804688 86.335938 53.726562 86.207031 C 52.785156 84.699219 51.960938 83.378906 51.960938 81.832031 C 51.960938 79.96875 53.378906 78.234375 55.386719 78.234375 C 55.4375 78.234375 55.492188 78.238281 55.542969 78.242188 C 55.578125 78.246094 55.613281 78.25 55.648438 78.25 C 52.019531 74.941406 47.191406 72.921875 41.878906 72.921875 C 34.753906 72.921875 28.488281 76.558594 24.835938 82.0625 C 25.316406 82.074219 25.769531 82.085938 26.148438 82.085938 C 28.285156 82.085938 31.585938 81.828125 31.585938 81.828125 C 32.683594 81.761719 32.8125 83.371094 31.714844 83.5 C 31.714844 83.5 30.613281 83.628906 29.382812 83.695312 L 36.808594 105.671875 L 41.269531 92.355469 L 38.09375 83.695312 C 36.996094 83.628906 35.957031 83.5 35.957031 83.5 C 34.859375 83.4375 34.984375 81.761719 36.085938 81.828125 C 36.085938 81.828125 39.449219 82.085938 41.453125 82.085938 C 43.589844 82.085938 46.890625 81.828125 46.890625 81.828125 C 47.988281 81.761719 48.117188 83.371094 47.019531 83.5 Z M 36.117188 112.667969 C 37.945312 113.203125 39.878906 113.496094 41.878906 113.496094 C 44.253906 113.496094 46.53125 113.085938 48.652344 112.347656 C 48.59375 112.257812 48.542969 112.167969 48.503906 112.066406 L 42.234375 94.980469 Z M 23.25 84.949219 C 22.121094 87.472656 21.484375 90.265625 21.484375 93.207031 C 21.484375 101.238281 26.171875 108.175781 32.976562 111.464844 Z M 19.199219 93.210938 C 19.199219 80.769531 29.371094 70.648438 41.878906 70.648438 C 54.386719 70.648438 64.558594 80.769531 64.558594 93.210938 C 64.558594 105.652344 54.386719 115.777344 41.878906 115.777344 C 29.371094 115.777344 19.199219 105.652344 19.199219 93.210938 Z M 103.3125 99.882812 L 108.539062 78.664062 L 114.183594 78.664062 L 106.007812 107.515625 L 100.824219 107.515625 L 95.019531 87.269531 L 94.789062 87.269531 L 88.972656 107.515625 L 83.789062 107.515625 L 75.605469 78.664062 L 81.253906 78.664062 L 86.480469 99.867188 L 86.75 99.867188 L 92.328125 78.664062 L 97.46875 78.664062 L 103.058594 99.882812 Z M 129.242188 86.992188 C 127.683594 86.066406 125.84375 85.597656 123.71875 85.597656 C 121.59375 85.597656 119.753906 86.066406 118.199219 86.992188 C 116.644531 87.921875 115.4375 89.226562 114.582031 90.90625 C 113.726562 92.585938 113.300781 94.546875 113.300781 96.78125 C 113.300781 99.019531 113.726562 100.96875 114.582031 102.644531 C 115.4375 104.316406 116.644531 105.617188 118.199219 106.546875 C 119.753906 107.476562 121.59375 107.941406 123.71875 107.941406 C 125.84375 107.941406 127.683594 107.476562 129.242188 106.546875 C 130.796875 105.617188 132.003906 104.316406 132.859375 102.644531 C 133.710938 100.96875 134.140625 99.019531 134.140625 96.78125 C 134.140625 94.546875 133.710938 92.589844 132.859375 90.90625 C 132.003906 89.226562 130.796875 87.921875 129.242188 86.992188 Z M 128.371094 100.34375 C 127.992188 101.414062 127.410156 102.265625 126.636719 102.898438 C 125.859375 103.535156 124.902344 103.847656 123.746094 103.847656 C 122.589844 103.847656 121.589844 103.535156 120.808594 102.898438 C 120.027344 102.265625 119.449219 101.414062 119.070312 100.34375 C 118.683594 99.273438 118.492188 98.082031 118.492188 96.765625 C 118.492188 95.449219 118.683594 94.242188 119.070312 93.167969 C 119.449219 92.09375 120.035156 91.238281 120.808594 90.597656 C 121.589844 89.957031 122.566406 89.636719 123.746094 89.636719 C 124.925781 89.636719 125.859375 89.957031 126.636719 90.597656 C 127.410156 91.238281 127.984375 92.09375 128.371094 93.167969 C 128.753906 94.242188 128.945312 95.445312 128.945312 96.765625 C 128.945312 98.089844 128.753906 99.273438 128.371094 100.34375 Z M 143.875 86.597656 C 144.84375 85.914062 145.953125 85.574219 147.195312 85.574219 L 147.203125 85.578125 C 147.480469 85.578125 147.804688 85.59375 148.15625 85.613281 C 148.511719 85.636719 148.804688 85.671875 149.042969 85.71875 L 149.042969 90.410156 C 148.820312 90.335938 148.484375 90.269531 148.015625 90.207031 C 147.550781 90.148438 147.097656 90.117188 146.664062 90.117188 C 145.726562 90.117188 144.890625 90.316406 144.148438 90.714844 C 143.40625 91.113281 142.824219 91.664062 142.398438 92.367188 C 141.972656 93.074219 141.761719 93.886719 141.761719 94.804688 L 141.761719 107.523438 L 136.636719 107.523438 L 136.636719 85.886719 L 141.601562 85.886719 L 141.601562 89.492188 L 141.828125 89.492188 C 142.222656 88.242188 142.910156 87.277344 143.875 86.597656 Z M 164.898438 89.457031 L 164.6875 89.457031 C 164.425781 88.933594 164.050781 88.371094 163.570312 87.773438 C 163.089844 87.175781 162.4375 86.667969 161.613281 86.234375 C 160.789062 85.8125 159.746094 85.597656 158.472656 85.597656 C 156.800781 85.597656 155.285156 86.019531 153.925781 86.871094 C 152.566406 87.722656 151.488281 88.976562 150.691406 90.632812 C 149.894531 92.289062 149.496094 94.320312 149.496094 96.722656 C 149.496094 99.125 149.886719 101.121094 150.671875 102.777344 C 151.457031 104.441406 152.523438 105.707031 153.871094 106.582031 C 155.222656 107.457031 156.75 107.894531 158.460938 107.894531 C 159.703125 107.894531 160.738281 107.6875 161.5625 107.273438 C 162.382812 106.859375 163.042969 106.359375 163.542969 105.773438 C 164.042969 105.1875 164.425781 104.628906 164.6875 104.105469 L 165 104.105469 L 165 107.515625 L 170.039062 107.515625 L 170.039062 78.664062 L 164.898438 78.664062 Z M 164.402344 100.375 C 164.007812 101.425781 163.425781 102.25 162.664062 102.835938 C 161.898438 103.421875 160.976562 103.71875 159.890625 103.71875 C 158.800781 103.71875 157.820312 103.414062 157.050781 102.808594 C 156.28125 102.207031 155.703125 101.371094 155.3125 100.316406 C 154.921875 99.261719 154.726562 98.054688 154.726562 96.703125 C 154.726562 95.347656 154.921875 94.167969 155.308594 93.125 C 155.691406 92.082031 156.273438 91.265625 157.035156 90.675781 C 157.800781 90.082031 158.753906 89.789062 159.894531 89.789062 C 161.035156 89.789062 161.929688 90.078125 162.6875 90.648438 C 163.449219 91.21875 164.023438 92.023438 164.417969 93.054688 C 164.808594 94.089844 165.003906 95.308594 165.003906 96.703125 C 165.003906 98.097656 164.804688 99.324219 164.410156 100.378906 Z M 184.96875 78.664062 C 187.199219 78.664062 189.070312 79.082031 190.585938 79.902344 C 192.097656 80.726562 193.242188 81.859375 194.023438 83.304688 C 194.796875 84.746094 195.1875 86.363281 195.1875 88.214844 C 195.1875 90.066406 194.796875 91.707031 194.011719 93.144531 C 193.226562 94.582031 192.070312 95.710938 190.542969 96.535156 C 189.011719 97.359375 187.128906 97.769531 184.894531 97.769531 L 179.347656 97.769531 L 179.347656 107.515625 L 174.09375 107.515625 L 174.09375 78.664062 Z M 187.394531 92.789062 C 188.222656 92.34375 188.839844 91.71875 189.238281 90.933594 L 189.246094 90.9375 C 189.644531 90.148438 189.847656 89.246094 189.847656 88.21875 C 189.847656 87.191406 189.644531 86.292969 189.246094 85.511719 C 188.84375 84.730469 188.222656 84.121094 187.390625 83.6875 C 186.550781 83.25 185.480469 83.03125 184.167969 83.03125 L 179.351562 83.03125 L 179.351562 93.464844 L 184.191406 93.464844 C 185.496094 93.464844 186.5625 93.238281 187.394531 92.789062 Z M 207.804688 85.574219 C 206.5625 85.574219 205.453125 85.914062 204.484375 86.597656 C 203.519531 87.277344 202.832031 88.242188 202.4375 89.492188 L 202.210938 89.492188 L 202.210938 85.886719 L 197.242188 85.886719 L 197.242188 107.523438 L 202.371094 107.523438 L 202.371094 94.804688 C 202.371094 93.886719 202.582031 93.074219 203.007812 92.367188 C 203.433594 91.664062 204.015625 91.113281 204.757812 90.714844 C 205.5 90.316406 206.335938 90.117188 207.273438 90.117188 C 207.707031 90.117188 208.160156 90.148438 208.625 90.207031 C 209.09375 90.269531 209.429688 90.335938 209.652344 90.410156 L 209.652344 85.71875 C 209.414062 85.671875 209.121094 85.636719 208.765625 85.613281 C 208.414062 85.59375 208.089844 85.578125 207.8125 85.578125 Z M 224.046875 86.238281 C 225.238281 86.664062 226.292969 87.324219 227.21875 88.214844 L 227.222656 88.226562 C 228.140625 89.117188 228.867188 90.25 229.394531 91.625 C 229.921875 93.003906 230.1875 94.636719 230.1875 96.535156 L 230.1875 98.097656 L 215.042969 98.097656 C 215.058594 99.300781 215.277344 100.339844 215.726562 101.207031 C 216.191406 102.101562 216.835938 102.789062 217.667969 103.261719 C 218.496094 103.738281 219.472656 103.976562 220.582031 103.976562 C 221.328125 103.976562 222.003906 103.875 222.609375 103.660156 C 223.214844 103.445312 223.738281 103.136719 224.179688 102.722656 C 224.621094 102.308594 224.960938 101.792969 225.1875 101.183594 L 229.96875 101.71875 C 229.667969 102.980469 229.09375 104.074219 228.25 105.007812 C 227.40625 105.941406 226.332031 106.660156 225.019531 107.175781 C 223.707031 107.683594 222.203125 107.941406 220.515625 107.941406 C 218.332031 107.941406 216.453125 107.492188 214.871094 106.582031 C 213.296875 105.675781 212.078125 104.390625 211.230469 102.722656 C 210.378906 101.054688 209.953125 99.050781 209.953125 96.824219 C 209.953125 94.601562 210.378906 92.644531 211.234375 90.960938 C 212.089844 89.273438 213.285156 87.957031 214.824219 87.015625 C 216.359375 86.070312 218.167969 85.597656 220.246094 85.597656 C 221.585938 85.597656 222.855469 85.8125 224.046875 86.238281 Z M 215.710938 92.292969 C 215.316406 93.015625 215.105469 93.808594 215.058594 94.652344 L 215.0625 94.648438 L 225.277344 94.648438 C 225.265625 93.671875 225.054688 92.800781 224.640625 92.035156 C 224.222656 91.269531 223.648438 90.664062 222.902344 90.226562 C 222.160156 89.785156 221.300781 89.5625 220.320312 89.5625 C 219.269531 89.5625 218.347656 89.816406 217.558594 90.320312 C 216.765625 90.824219 216.148438 91.480469 215.710938 92.292969 Z M 244.035156 95.175781 L 240.328125 94.390625 C 239.222656 94.136719 238.433594 93.8125 237.953125 93.417969 C 237.480469 93.027344 237.242188 92.511719 237.253906 91.882812 C 237.242188 91.148438 237.601562 90.554688 238.324219 90.09375 C 239.042969 89.632812 239.9375 89.402344 241.007812 89.402344 C 241.796875 89.402344 242.46875 89.527344 243.015625 89.785156 C 243.5625 90.042969 244 90.371094 244.324219 90.785156 C 244.652344 91.199219 244.878906 91.640625 245.007812 92.109375 L 249.679688 91.597656 C 249.332031 89.757812 248.421875 88.300781 246.953125 87.21875 C 245.488281 86.136719 243.480469 85.597656 240.933594 85.597656 C 239.199219 85.597656 237.664062 85.863281 236.339844 86.40625 C 235.011719 86.945312 233.976562 87.707031 233.238281 88.6875 C 232.5 89.667969 232.132812 90.828125 232.140625 92.160156 C 232.132812 93.738281 232.628906 95.039062 233.628906 96.070312 C 234.632812 97.097656 236.171875 97.828125 238.257812 98.257812 L 241.964844 99.035156 C 242.96875 99.25 243.707031 99.558594 244.179688 99.960938 C 244.65625 100.367188 244.898438 100.878906 244.898438 101.5 C 244.898438 102.234375 244.527344 102.847656 243.785156 103.347656 C 243.042969 103.84375 242.066406 104.089844 240.847656 104.089844 C 239.628906 104.089844 238.710938 103.84375 237.972656 103.347656 C 237.234375 102.847656 236.757812 102.113281 236.53125 101.132812 L 231.53125 101.609375 C 231.839844 103.597656 232.8125 105.152344 234.429688 106.261719 C 236.054688 107.375 238.195312 107.929688 240.859375 107.929688 C 242.671875 107.929688 244.277344 107.636719 245.671875 107.054688 C 247.070312 106.472656 248.164062 105.664062 248.953125 104.625 C 249.738281 103.585938 250.140625 102.390625 250.148438 101.027344 C 250.140625 99.480469 249.632812 98.226562 248.625 97.265625 C 247.621094 96.304688 246.089844 95.609375 244.035156 95.167969 Z M 260.347656 94.390625 L 264.054688 95.175781 L 264.054688 95.167969 C 266.113281 95.609375 267.640625 96.304688 268.648438 97.265625 C 269.65625 98.226562 270.164062 99.480469 270.171875 101.027344 C 270.164062 102.390625 269.761719 103.585938 268.976562 104.625 C 268.1875 105.664062 267.09375 106.472656 265.695312 107.054688 C 264.300781 107.636719 262.695312 107.929688 260.882812 107.929688 C 258.21875 107.929688 256.078125 107.375 254.453125 106.261719 C 252.835938 105.152344 251.863281 103.597656 251.554688 101.609375 L 256.550781 101.132812 C 256.78125 102.113281 257.257812 102.847656 257.996094 103.347656 C 258.734375 103.84375 259.652344 104.089844 260.871094 104.089844 C 262.089844 104.089844 263.066406 103.84375 263.808594 103.347656 C 264.550781 102.847656 264.921875 102.234375 264.921875 101.5 C 264.921875 100.878906 264.679688 100.367188 264.203125 99.960938 C 263.730469 99.558594 262.992188 99.25 261.988281 99.035156 L 258.28125 98.257812 C 256.195312 97.828125 254.65625 97.097656 253.652344 96.070312 C 252.652344 95.039062 252.15625 93.738281 252.164062 92.160156 C 252.15625 90.828125 252.523438 89.667969 253.261719 88.6875 C 254 87.707031 255.035156 86.945312 256.363281 86.40625 C 257.6875 85.863281 259.222656 85.597656 260.957031 85.597656 C 263.503906 85.597656 265.511719 86.136719 266.976562 87.21875 C 268.445312 88.300781 269.355469 89.757812 269.703125 91.597656 L 265.03125 92.109375 C 264.902344 91.640625 264.671875 91.199219 264.347656 90.785156 C 264.023438 90.371094 263.585938 90.042969 263.039062 89.785156 C 262.492188 89.527344 261.820312 89.402344 261.03125 89.402344 C 259.960938 89.402344 259.066406 89.632812 258.34375 90.09375 C 257.625 90.554688 257.265625 91.148438 257.273438 91.882812 C 257.265625 92.511719 257.503906 93.027344 257.976562 93.417969 C 258.457031 93.8125 259.246094 94.136719 260.347656 94.390625 Z M 275.632812 101.65625 C 274.769531 101.65625 274.035156 101.957031 273.421875 102.558594 C 272.808594 103.164062 272.503906 103.882812 272.515625 104.726562 C 272.503906 105.59375 272.804688 106.320312 273.421875 106.925781 C 274.035156 107.527344 274.769531 107.828125 275.632812 107.828125 C 276.191406 107.828125 276.703125 107.691406 277.164062 107.414062 C 277.636719 107.132812 278.007812 106.761719 278.300781 106.296875 C 278.589844 105.824219 278.738281 105.304688 278.746094 104.730469 C 278.738281 103.886719 278.425781 103.164062 277.804688 102.566406 C 277.179688 101.96875 276.460938 101.664062 275.632812 101.664062 Z M 290.964844 89.710938 C 289.917969 89.710938 288.992188 89.992188 288.203125 90.550781 C 287.410156 91.113281 286.792969 91.910156 286.355469 92.953125 C 285.917969 93.992188 285.699219 95.222656 285.699219 96.699219 C 285.699219 98.171875 285.910156 99.4375 286.347656 100.496094 C 286.785156 101.558594 287.394531 102.371094 288.179688 102.9375 C 288.972656 103.503906 289.898438 103.785156 290.964844 103.785156 C 291.71875 103.785156 292.394531 103.644531 292.996094 103.355469 C 293.597656 103.066406 294.097656 102.652344 294.503906 102.109375 C 294.910156 101.5625 295.183594 100.902344 295.335938 100.121094 L 300.234375 100.121094 C 300.109375 101.652344 299.660156 103.003906 298.875 104.183594 C 298.089844 105.359375 297.023438 106.285156 295.675781 106.945312 C 294.324219 107.605469 292.738281 107.9375 290.917969 107.9375 C 288.746094 107.9375 286.882812 107.464844 285.332031 106.515625 C 283.78125 105.570312 282.589844 104.257812 281.753906 102.578125 C 280.914062 100.902344 280.496094 98.980469 280.496094 96.78125 C 280.496094 94.585938 280.925781 92.644531 281.773438 90.960938 C 282.625 89.273438 283.824219 87.957031 285.375 87.015625 C 286.929688 86.070312 288.765625 85.597656 290.890625 85.597656 C 292.65625 85.597656 294.21875 85.921875 295.585938 86.5625 C 296.949219 87.203125 298.035156 88.109375 298.847656 89.28125 C 299.660156 90.449219 300.125 91.816406 300.234375 93.371094 L 295.335938 93.371094 C 295.140625 92.328125 294.667969 91.457031 293.929688 90.761719 C 293.191406 90.0625 292.199219 89.710938 290.964844 89.710938 Z M 317.472656 86.992188 C 315.917969 86.066406 314.078125 85.597656 311.953125 85.597656 C 309.828125 85.597656 307.988281 86.066406 306.429688 86.992188 C 304.875 87.921875 303.667969 89.226562 302.8125 90.90625 C 301.960938 92.585938 301.53125 94.546875 301.53125 96.78125 C 301.53125 99.019531 301.960938 100.96875 302.8125 102.644531 C 303.667969 104.316406 304.875 105.617188 306.429688 106.546875 C 307.988281 107.476562 309.828125 107.941406 311.953125 107.941406 C 314.078125 107.941406 315.917969 107.476562 317.472656 106.546875 C 319.027344 105.617188 320.238281 104.316406 321.089844 102.644531 C 321.945312 100.96875 322.371094 99.019531 322.371094 96.78125 C 322.371094 94.546875 321.945312 92.589844 321.089844 90.90625 C 320.238281 89.226562 319.027344 87.921875 317.472656 86.992188 Z M 316.601562 100.34375 C 316.222656 101.414062 315.644531 102.265625 314.867188 102.898438 C 314.09375 103.535156 313.132812 103.847656 311.980469 103.847656 C 310.824219 103.847656 309.820312 103.535156 309.042969 102.898438 C 308.261719 102.265625 307.679688 101.414062 307.300781 100.34375 C 306.917969 99.273438 306.726562 98.082031 306.726562 96.765625 C 306.726562 95.449219 306.917969 94.242188 307.300781 93.167969 C 307.679688 92.09375 308.265625 91.238281 309.042969 90.597656 C 309.820312 89.957031 310.796875 89.636719 311.980469 89.636719 C 313.160156 89.636719 314.09375 89.957031 314.867188 90.597656 C 315.644531 91.238281 316.21875 92.09375 316.601562 93.167969 C 316.988281 94.242188 317.179688 95.445312 317.179688 96.765625 C 317.179688 98.089844 316.988281 99.273438 316.601562 100.34375 Z M 348.65625 85.597656 C 350.652344 85.597656 352.289062 86.226562 353.554688 87.484375 L 353.546875 87.472656 C 354.8125 88.734375 355.445312 90.570312 355.445312 92.984375 L 355.445312 107.503906 L 350.304688 107.503906 L 350.304688 93.769531 C 350.304688 92.433594 349.945312 91.445312 349.230469 90.820312 C 348.511719 90.195312 347.636719 89.882812 346.597656 89.882812 C 345.363281 89.882812 344.398438 90.265625 343.703125 91.03125 C 343.011719 91.796875 342.664062 92.789062 342.664062 94.011719 L 342.664062 107.503906 L 337.640625 107.503906 L 337.640625 93.558594 C 337.640625 92.441406 337.300781 91.550781 336.625 90.882812 C 335.953125 90.21875 335.070312 89.882812 333.984375 89.882812 C 333.25 89.882812 332.582031 90.066406 331.976562 90.4375 C 331.367188 90.8125 330.890625 91.332031 330.53125 92 C 330.171875 92.671875 329.992188 93.453125 329.992188 94.347656 L 329.992188 107.503906 L 324.867188 107.503906 L 324.867188 85.867188 L 329.765625 85.867188 L 329.765625 89.546875 L 330.019531 89.546875 C 330.472656 88.308594 331.222656 87.335938 332.269531 86.640625 C 333.320312 85.941406 334.554688 85.589844 336.023438 85.589844 C 337.496094 85.589844 338.742188 85.949219 339.753906 86.65625 C 340.769531 87.363281 341.484375 88.328125 341.898438 89.550781 L 342.125 89.550781 C 342.605469 88.351562 343.421875 87.390625 344.566406 86.671875 C 345.71875 85.953125 347.078125 85.597656 348.65625 85.597656 Z M 348.65625 85.597656 " fill-opacity="1" fill-rule="evenodd"/></g></svg>