<svg xmlns="http://www.w3.org/2000/svg" xmlns:xlink="http://www.w3.org/1999/xlink" width="500" zoomAndPan="magnify" viewBox="0 0 375 112.499997" height="150" preserveAspectRatio="xMidYMid meet" version="1.0"><defs><clipPath id="c2d531f3cc"><path d="M 12.03125 32.363281 L 362.96875 32.363281 L 362.96875 80 L 12.03125 80 Z M 12.03125 32.363281 " clip-rule="nonzero"/></clipPath></defs><g clip-path="url(#c2d531f3cc)"><path fill="#3858e9" d="M 52.859375 55.671875 L 46.363281 74.4375 C 52.683594 70.753906 56.933594 63.910156 56.933594 56.070312 C 56.933594 52.378906 55.988281 48.902344 54.328125 45.875 C 54.421875 46.554688 54.472656 47.28125 54.472656 48.0625 C 54.472656 50.214844 54.070312 52.636719 52.859375 55.671875 Z M 41.035156 45.90625 C 41.035156 45.90625 39.882812 46.039062 38.601562 46.109375 L 38.609375 46.117188 L 46.292969 68.957031 L 48.414062 61.875 C 49.492188 59.109375 50.03125 56.824219 50.03125 55.003906 C 50.03125 52.371094 49.085938 50.558594 48.277344 49.140625 C 48.195312 49.007812 48.113281 48.875 48.03125 48.742188 C 47.046875 47.160156 46.1875 45.773438 46.1875 44.15625 C 46.1875 42.207031 47.667969 40.386719 49.757812 40.386719 C 49.8125 40.386719 49.867188 40.390625 49.921875 40.398438 C 49.960938 40.402344 49.996094 40.402344 50.03125 40.40625 C 46.25 36.9375 41.210938 34.824219 35.675781 34.824219 C 28.246094 34.824219 21.714844 38.632812 17.90625 44.398438 C 18.40625 44.414062 18.878906 44.421875 19.277344 44.421875 C 21.503906 44.421875 24.945312 44.152344 24.945312 44.152344 C 26.085938 44.085938 26.222656 45.769531 25.078125 45.90625 C 25.078125 45.90625 23.929688 46.039062 22.648438 46.109375 L 30.390625 69.125 L 35.042969 55.179688 L 31.730469 46.109375 C 30.585938 46.039062 29.5 45.90625 29.5 45.90625 C 28.355469 45.839844 28.484375 44.085938 29.636719 44.152344 C 29.636719 44.152344 33.144531 44.421875 35.234375 44.421875 C 37.460938 44.421875 40.902344 44.152344 40.902344 44.152344 C 42.042969 44.085938 42.179688 45.769531 41.035156 45.90625 Z M 29.667969 76.457031 C 31.578125 77.015625 33.589844 77.320312 35.675781 77.320312 C 38.152344 77.320312 40.527344 76.894531 42.738281 76.117188 C 42.679688 76.027344 42.625 75.929688 42.582031 75.824219 L 36.046875 57.929688 Z M 16.253906 47.421875 C 15.078125 50.066406 14.414062 52.988281 14.414062 56.070312 C 14.414062 64.484375 19.300781 71.75 26.394531 75.195312 Z M 12.03125 56.074219 C 12.03125 43.046875 22.636719 32.441406 35.675781 32.441406 C 48.714844 32.441406 59.324219 43.046875 59.324219 56.074219 C 59.324219 69.105469 48.714844 79.710938 35.675781 79.710938 C 22.636719 79.710938 12.03125 69.105469 12.03125 56.074219 Z M 99.726562 63.0625 L 105.175781 40.839844 L 111.0625 40.839844 L 102.535156 71.058594 L 97.132812 71.058594 L 91.078125 49.851562 L 90.84375 49.851562 L 84.777344 71.058594 L 79.375 71.058594 L 70.839844 40.839844 L 76.730469 40.839844 L 82.175781 63.046875 L 82.457031 63.046875 L 88.273438 40.839844 L 93.632812 40.839844 L 99.460938 63.0625 Z M 126.757812 49.5625 C 125.136719 48.589844 123.21875 48.101562 121.003906 48.101562 C 118.789062 48.101562 116.867188 48.589844 115.246094 49.5625 C 113.625 50.535156 112.367188 51.902344 111.476562 53.664062 C 110.585938 55.421875 110.140625 57.476562 110.140625 59.816406 C 110.140625 62.15625 110.585938 64.203125 111.476562 65.953125 C 112.367188 67.707031 113.625 69.070312 115.246094 70.042969 C 116.867188 71.015625 118.789062 71.503906 121.003906 71.503906 C 123.21875 71.503906 125.136719 71.015625 126.757812 70.042969 C 128.382812 69.070312 129.640625 67.707031 130.53125 65.953125 C 131.421875 64.203125 131.867188 62.15625 131.867188 59.816406 C 131.867188 57.476562 131.421875 55.425781 130.53125 53.664062 C 129.640625 51.902344 128.382812 50.535156 126.757812 49.5625 Z M 125.851562 63.546875 C 125.457031 64.667969 124.851562 65.558594 124.042969 66.222656 C 123.234375 66.890625 122.234375 67.21875 121.03125 67.21875 C 119.828125 67.21875 118.78125 66.890625 117.96875 66.222656 C 117.15625 65.558594 116.550781 64.667969 116.152344 63.546875 C 115.753906 62.425781 115.554688 61.179688 115.554688 59.800781 C 115.554688 58.421875 115.753906 57.15625 116.152344 56.03125 C 116.550781 54.902344 117.160156 54.007812 117.96875 53.339844 C 118.78125 52.667969 119.796875 52.332031 121.03125 52.332031 C 122.261719 52.332031 123.234375 52.667969 124.042969 53.339844 C 124.851562 54.007812 125.449219 54.902344 125.851562 56.03125 C 126.253906 57.15625 126.453125 58.414062 126.453125 59.800781 C 126.453125 61.183594 126.253906 62.425781 125.851562 63.546875 Z M 142.015625 49.148438 C 143.027344 48.433594 144.183594 48.074219 145.480469 48.074219 L 145.484375 48.082031 C 145.777344 48.082031 146.113281 48.097656 146.480469 48.117188 C 146.847656 48.140625 147.15625 48.179688 147.40625 48.230469 L 147.40625 53.140625 C 147.171875 53.066406 146.820312 52.992188 146.332031 52.925781 C 145.847656 52.867188 145.375 52.832031 144.925781 52.832031 C 143.945312 52.832031 143.078125 53.042969 142.300781 53.460938 C 141.527344 53.878906 140.921875 54.453125 140.476562 55.191406 C 140.03125 55.933594 139.8125 56.785156 139.8125 57.746094 L 139.8125 71.066406 L 134.46875 71.066406 L 134.46875 48.40625 L 139.648438 48.40625 L 139.648438 52.179688 L 139.882812 52.179688 C 140.296875 50.871094 141.011719 49.859375 142.015625 49.148438 Z M 163.9375 52.144531 L 163.714844 52.144531 C 163.441406 51.59375 163.050781 51.007812 162.550781 50.378906 C 162.050781 49.753906 161.367188 49.21875 160.511719 48.769531 C 159.652344 48.324219 158.5625 48.097656 157.234375 48.097656 C 155.492188 48.097656 153.914062 48.542969 152.496094 49.433594 C 151.078125 50.324219 149.953125 51.636719 149.125 53.375 C 148.292969 55.113281 147.875 57.238281 147.875 59.753906 C 147.875 62.273438 148.285156 64.359375 149.101562 66.097656 C 149.921875 67.839844 151.03125 69.164062 152.441406 70.082031 C 153.847656 71 155.441406 71.453125 157.222656 71.453125 C 158.519531 71.453125 159.597656 71.238281 160.457031 70.804688 C 161.3125 70.371094 162 69.847656 162.523438 69.234375 C 163.046875 68.617188 163.441406 68.035156 163.714844 67.488281 L 164.039062 67.488281 L 164.039062 71.058594 L 169.296875 71.058594 L 169.296875 40.839844 L 163.9375 40.839844 Z M 163.417969 63.578125 C 163.007812 64.679688 162.402344 65.542969 161.605469 66.15625 C 160.808594 66.773438 159.84375 67.078125 158.714844 67.078125 C 157.582031 67.078125 156.558594 66.761719 155.753906 66.128906 C 154.953125 65.496094 154.347656 64.625 153.941406 63.519531 C 153.535156 62.414062 153.332031 61.152344 153.332031 59.734375 C 153.332031 58.316406 153.535156 57.078125 153.933594 55.984375 C 154.335938 54.890625 154.941406 54.039062 155.738281 53.417969 C 156.535156 52.796875 157.53125 52.488281 158.71875 52.488281 C 159.90625 52.488281 160.839844 52.792969 161.632812 53.390625 C 162.425781 53.992188 163.023438 54.832031 163.4375 55.914062 C 163.84375 56.996094 164.046875 58.269531 164.046875 59.734375 C 164.046875 61.195312 163.835938 62.480469 163.425781 63.585938 Z M 184.859375 40.839844 C 187.1875 40.839844 189.136719 41.273438 190.714844 42.136719 C 192.292969 43 193.488281 44.1875 194.300781 45.699219 C 195.109375 47.210938 195.515625 48.902344 195.515625 50.839844 C 195.515625 52.78125 195.109375 54.5 194.289062 56.007812 C 193.46875 57.511719 192.265625 58.695312 190.671875 59.558594 C 189.078125 60.417969 187.113281 60.847656 184.785156 60.847656 L 179 60.847656 L 179 71.058594 L 173.523438 71.058594 L 173.523438 40.839844 Z M 187.390625 55.632812 C 188.253906 55.167969 188.894531 54.511719 189.3125 53.6875 L 189.320312 53.695312 C 189.738281 52.871094 189.945312 51.925781 189.945312 50.847656 C 189.945312 49.769531 189.738281 48.832031 189.320312 48.011719 C 188.902344 47.191406 188.253906 46.554688 187.382812 46.097656 C 186.511719 45.644531 185.394531 45.414062 184.023438 45.414062 L 179.003906 45.414062 L 179.003906 56.34375 L 184.050781 56.34375 C 185.410156 56.34375 186.519531 56.105469 187.390625 55.632812 Z M 208.671875 48.074219 C 207.375 48.074219 206.21875 48.433594 205.207031 49.148438 C 204.203125 49.859375 203.488281 50.871094 203.074219 52.179688 L 202.839844 52.179688 L 202.839844 48.40625 L 197.660156 48.40625 L 197.660156 71.066406 L 203.003906 71.066406 L 203.003906 57.746094 C 203.003906 56.785156 203.222656 55.933594 203.667969 55.191406 C 204.113281 54.453125 204.71875 53.878906 205.492188 53.460938 C 206.269531 53.042969 207.136719 52.832031 208.117188 52.832031 C 208.566406 52.832031 209.039062 52.867188 209.523438 52.925781 C 210.011719 52.992188 210.363281 53.066406 210.59375 53.140625 L 210.59375 48.230469 C 210.347656 48.179688 210.039062 48.140625 209.671875 48.117188 C 209.304688 48.097656 208.96875 48.082031 208.675781 48.082031 Z M 225.605469 48.769531 C 226.847656 49.214844 227.945312 49.910156 228.910156 50.84375 L 228.914062 50.855469 C 229.871094 51.789062 230.628906 52.976562 231.179688 54.414062 C 231.730469 55.859375 232.003906 57.570312 232.003906 59.558594 L 232.003906 61.195312 L 216.214844 61.195312 C 216.230469 62.453125 216.460938 63.542969 216.929688 64.449219 C 217.414062 65.390625 218.082031 66.109375 218.953125 66.601562 C 219.816406 67.101562 220.832031 67.351562 221.992188 67.351562 C 222.769531 67.351562 223.472656 67.246094 224.105469 67.019531 C 224.734375 66.796875 225.28125 66.472656 225.742188 66.039062 C 226.203125 65.601562 226.554688 65.066406 226.792969 64.425781 L 231.777344 64.988281 C 231.464844 66.304688 230.867188 67.453125 229.988281 68.433594 C 229.105469 69.410156 227.984375 70.164062 226.617188 70.703125 C 225.246094 71.234375 223.679688 71.503906 221.921875 71.503906 C 219.644531 71.503906 217.6875 71.03125 216.039062 70.082031 C 214.394531 69.132812 213.125 67.785156 212.238281 66.039062 C 211.355469 64.289062 210.910156 62.191406 210.910156 59.859375 C 210.910156 57.53125 211.355469 55.480469 212.246094 53.71875 C 213.136719 51.953125 214.382812 50.574219 215.988281 49.585938 C 217.589844 48.59375 219.476562 48.101562 221.640625 48.101562 C 223.039062 48.101562 224.363281 48.328125 225.605469 48.769531 Z M 216.914062 55.113281 C 216.5 55.871094 216.28125 56.699219 216.230469 57.585938 L 216.238281 57.582031 L 226.886719 57.582031 C 226.875 56.558594 226.65625 55.644531 226.222656 54.84375 C 225.785156 54.042969 225.1875 53.410156 224.410156 52.949219 C 223.636719 52.484375 222.742188 52.253906 221.71875 52.253906 C 220.625 52.253906 219.660156 52.519531 218.835938 53.046875 C 218.011719 53.574219 217.371094 54.261719 216.914062 55.113281 Z M 246.441406 58.136719 L 242.578125 57.3125 C 241.425781 57.046875 240.601562 56.707031 240.101562 56.292969 C 239.609375 55.882812 239.359375 55.34375 239.371094 54.683594 C 239.359375 53.914062 239.734375 53.292969 240.488281 52.808594 C 241.242188 52.328125 242.167969 52.085938 243.285156 52.085938 C 244.109375 52.085938 244.808594 52.21875 245.378906 52.484375 C 245.953125 52.753906 246.410156 53.101562 246.742188 53.535156 C 247.085938 53.96875 247.320312 54.429688 247.457031 54.921875 L 252.328125 54.386719 C 251.964844 52.457031 251.015625 50.929688 249.488281 49.800781 C 247.957031 48.667969 245.863281 48.101562 243.207031 48.101562 C 241.398438 48.101562 239.800781 48.382812 238.421875 48.949219 C 237.035156 49.511719 235.957031 50.308594 235.1875 51.335938 C 234.417969 52.367188 234.03125 53.578125 234.042969 54.976562 C 234.03125 56.628906 234.550781 57.992188 235.59375 59.070312 C 236.636719 60.144531 238.242188 60.910156 240.421875 61.359375 L 244.285156 62.175781 C 245.332031 62.398438 246.101562 62.722656 246.59375 63.148438 C 247.089844 63.570312 247.34375 64.109375 247.34375 64.757812 C 247.34375 65.527344 246.957031 66.167969 246.183594 66.691406 C 245.40625 67.214844 244.390625 67.472656 243.121094 67.472656 C 241.851562 67.472656 240.894531 67.214844 240.125 66.691406 C 239.355469 66.167969 238.855469 65.398438 238.617188 64.371094 L 233.40625 64.871094 C 233.730469 66.953125 234.742188 68.582031 236.429688 69.746094 C 238.125 70.910156 240.355469 71.492188 243.132812 71.492188 C 245.023438 71.492188 246.695312 71.1875 248.152344 70.578125 C 249.609375 69.964844 250.746094 69.121094 251.570312 68.03125 C 252.390625 66.945312 252.808594 65.691406 252.820312 64.261719 C 252.808594 62.640625 252.28125 61.328125 251.230469 60.320312 C 250.179688 59.316406 248.585938 58.585938 246.441406 58.125 Z M 263.453125 57.3125 L 267.316406 58.136719 L 267.316406 58.125 C 269.460938 58.585938 271.054688 59.316406 272.105469 60.320312 C 273.15625 61.328125 273.683594 62.640625 273.695312 64.261719 C 273.683594 65.691406 273.265625 66.945312 272.445312 68.03125 C 271.621094 69.121094 270.484375 69.964844 269.027344 70.578125 C 267.570312 71.1875 265.898438 71.492188 264.007812 71.492188 C 261.230469 71.492188 259 70.910156 257.304688 69.746094 C 255.617188 68.582031 254.605469 66.953125 254.28125 64.871094 L 259.492188 64.371094 C 259.730469 65.398438 260.230469 66.167969 261 66.691406 C 261.769531 67.214844 262.726562 67.472656 263.996094 67.472656 C 265.265625 67.472656 266.285156 67.214844 267.058594 66.691406 C 267.835938 66.167969 268.21875 65.527344 268.21875 64.757812 C 268.21875 64.109375 267.964844 63.570312 267.472656 63.148438 C 266.976562 62.722656 266.207031 62.398438 265.164062 62.175781 L 261.296875 61.359375 C 259.121094 60.910156 257.515625 60.144531 256.46875 59.070312 C 255.425781 57.992188 254.910156 56.628906 254.921875 54.976562 C 254.910156 53.578125 255.292969 52.367188 256.0625 51.335938 C 256.832031 50.308594 257.910156 49.511719 259.296875 48.949219 C 260.675781 48.382812 262.277344 48.101562 264.085938 48.101562 C 266.742188 48.101562 268.835938 48.667969 270.363281 49.800781 C 271.890625 50.929688 272.84375 52.457031 273.207031 54.386719 L 268.335938 54.921875 C 268.199219 54.429688 267.960938 53.96875 267.621094 53.535156 C 267.285156 53.101562 266.828125 52.753906 266.257812 52.484375 C 265.683594 52.21875 264.988281 52.085938 264.160156 52.085938 C 263.046875 52.085938 262.117188 52.328125 261.363281 52.808594 C 260.609375 53.292969 260.234375 53.914062 260.246094 54.683594 C 260.234375 55.34375 260.484375 55.882812 260.980469 56.292969 C 261.480469 56.707031 262.304688 57.046875 263.453125 57.3125 Z M 279.386719 64.921875 C 278.488281 64.921875 277.71875 65.234375 277.082031 65.867188 C 276.445312 66.5 276.125 67.253906 276.136719 68.136719 C 276.125 69.042969 276.4375 69.808594 277.082031 70.441406 C 277.71875 71.070312 278.488281 71.386719 279.386719 71.386719 C 279.96875 71.386719 280.5 71.242188 280.984375 70.949219 C 281.472656 70.660156 281.863281 70.269531 282.167969 69.78125 C 282.46875 69.285156 282.625 68.742188 282.632812 68.144531 C 282.625 67.257812 282.300781 66.5 281.648438 65.875 C 281 65.246094 280.25 64.929688 279.386719 64.929688 Z M 295.371094 52.410156 C 294.277344 52.410156 293.316406 52.707031 292.492188 53.289062 C 291.667969 53.875 291.023438 54.710938 290.566406 55.804688 C 290.109375 56.894531 289.878906 58.183594 289.878906 59.730469 C 289.878906 61.273438 290.101562 62.597656 290.554688 63.707031 C 291.011719 64.816406 291.652344 65.667969 292.46875 66.261719 C 293.292969 66.855469 294.261719 67.152344 295.371094 67.152344 C 296.160156 67.152344 296.863281 67.003906 297.488281 66.703125 C 298.117188 66.398438 298.636719 65.964844 299.0625 65.394531 C 299.484375 64.824219 299.769531 64.128906 299.929688 63.3125 L 305.039062 63.3125 C 304.90625 64.917969 304.4375 66.332031 303.621094 67.570312 C 302.800781 68.800781 301.691406 69.769531 300.28125 70.460938 C 298.875 71.152344 297.21875 71.5 295.324219 71.5 C 293.058594 71.5 291.117188 71.003906 289.5 70.011719 C 287.882812 69.019531 286.640625 67.648438 285.769531 65.890625 C 284.894531 64.128906 284.460938 62.121094 284.460938 59.816406 C 284.460938 57.515625 284.90625 55.480469 285.789062 53.71875 C 286.675781 51.953125 287.929688 50.574219 289.546875 49.585938 C 291.167969 48.59375 293.078125 48.101562 295.296875 48.101562 C 297.136719 48.101562 298.765625 48.441406 300.1875 49.113281 C 301.613281 49.78125 302.746094 50.734375 303.589844 51.957031 C 304.4375 53.183594 304.921875 54.613281 305.039062 56.246094 L 299.929688 56.246094 C 299.726562 55.152344 299.230469 54.238281 298.460938 53.507812 C 297.691406 52.777344 296.660156 52.410156 295.371094 52.410156 Z M 323.011719 49.5625 C 321.386719 48.589844 319.46875 48.101562 317.253906 48.101562 C 315.039062 48.101562 313.121094 48.589844 311.496094 49.5625 C 309.875 50.535156 308.617188 51.902344 307.726562 53.664062 C 306.835938 55.421875 306.390625 57.476562 306.390625 59.816406 C 306.390625 62.15625 306.835938 64.203125 307.726562 65.953125 C 308.617188 67.707031 309.875 69.070312 311.496094 70.042969 C 313.121094 71.015625 315.039062 71.503906 317.253906 71.503906 C 319.46875 71.503906 321.386719 71.015625 323.011719 70.042969 C 324.632812 69.070312 325.890625 67.707031 326.78125 65.953125 C 327.671875 64.203125 328.117188 62.15625 328.117188 59.816406 C 328.117188 57.476562 327.671875 55.425781 326.78125 53.664062 C 325.890625 51.902344 324.632812 50.535156 323.011719 49.5625 Z M 322.101562 63.546875 C 321.707031 64.667969 321.101562 65.558594 320.292969 66.222656 C 319.484375 66.890625 318.484375 67.21875 317.28125 67.21875 C 316.078125 67.21875 315.03125 66.890625 314.21875 66.222656 C 313.40625 65.558594 312.800781 64.667969 312.40625 63.546875 C 312.003906 62.425781 311.804688 61.179688 311.804688 59.800781 C 311.804688 58.421875 312.003906 57.15625 312.40625 56.03125 C 312.800781 54.902344 313.410156 54.007812 314.21875 53.339844 C 315.03125 52.667969 316.050781 52.332031 317.28125 52.332031 C 318.511719 52.332031 319.484375 52.667969 320.292969 53.339844 C 321.101562 54.007812 321.703125 54.902344 322.101562 56.03125 C 322.503906 57.15625 322.703125 58.414062 322.703125 59.800781 C 322.703125 61.183594 322.503906 62.425781 322.101562 63.546875 Z M 355.519531 48.097656 C 357.601562 48.097656 359.308594 48.757812 360.625 50.078125 L 360.621094 50.066406 C 361.941406 51.386719 362.601562 53.308594 362.601562 55.835938 L 362.601562 71.046875 L 357.238281 71.046875 L 357.238281 56.660156 C 357.238281 55.257812 356.867188 54.226562 356.117188 53.574219 C 355.371094 52.917969 354.457031 52.589844 353.375 52.589844 C 352.089844 52.589844 351.082031 52.988281 350.355469 53.792969 C 349.636719 54.59375 349.273438 55.632812 349.273438 56.914062 L 349.273438 71.046875 L 344.035156 71.046875 L 344.035156 56.441406 C 344.035156 55.269531 343.683594 54.335938 342.976562 53.636719 C 342.273438 52.941406 341.355469 52.589844 340.222656 52.589844 C 339.460938 52.589844 338.761719 52.78125 338.128906 53.171875 C 337.496094 53.5625 336.996094 54.105469 336.621094 54.808594 C 336.25 55.511719 336.0625 56.332031 336.0625 57.265625 L 336.0625 71.046875 L 330.71875 71.046875 L 330.71875 48.386719 L 335.824219 48.386719 L 335.824219 52.238281 L 336.089844 52.238281 C 336.5625 50.941406 337.34375 49.921875 338.4375 49.191406 C 339.53125 48.460938 340.816406 48.09375 342.351562 48.09375 C 343.886719 48.09375 345.183594 48.46875 346.238281 49.210938 C 347.300781 49.949219 348.042969 50.960938 348.476562 52.242188 L 348.710938 52.242188 C 349.210938 50.984375 350.066406 49.980469 351.257812 49.226562 C 352.457031 48.472656 353.875 48.097656 355.519531 48.097656 Z M 355.519531 48.097656 " fill-opacity="1" fill-rule="evenodd"/></g></svg>