<?xml version="1.0" standalone="no"?>
<!DOCTYPE svg PUBLIC "-//W3C//DTD SVG 20010904//EN"
 "http://www.w3.org/TR/2001/REC-SVG-20010904/DTD/svg10.dtd">
<svg version="1.0" xmlns="http://www.w3.org/2000/svg"
 width="1280.000000pt" height="1280.000000pt" viewBox="0 0 1280.000000 1280.000000"
 preserveAspectRatio="xMidYMid meet">

<g transform="translate(0.000000,1280.000000) scale(0.100000,-0.100000)"
fill="#000000" stroke="none">
<path d="M0 6400 l0 -6400 6400 0 6400 0 0 6400 0 6400 -6400 0 -6400 0 0
-6400z m12690 0 l0 -6290 -6290 0 -6290 0 0 6290 0 6290 6290 0 6290 0 0
-6290z"/>
<path d="M609 12530 c-169 -27 -278 -103 -303 -211 -43 -190 -47 -523 -11
-962 14 -166 33 -360 42 -432 22 -174 21 -361 -3 -500 -16 -95 -19 -162 -19
-500 0 -214 -4 -511 -9 -660 -7 -230 -6 -297 9 -453 14 -150 16 -234 11 -460
-4 -152 -11 -518 -16 -812 -5 -294 -12 -668 -16 -830 -6 -263 -4 -321 16 -530
27 -278 24 -446 -12 -700 -22 -159 -23 -188 -22 -815 0 -357 6 -837 12 -1065
7 -228 17 -671 22 -985 6 -313 15 -631 21 -705 22 -297 22 -377 0 -530 -39
-269 -45 -385 -35 -675 11 -315 10 -312 117 -364 104 -50 231 -65 487 -57 118
3 251 11 295 16 44 5 323 9 620 9 297 1 633 6 747 12 227 12 450 4 868 -31
297 -25 492 -25 850 0 548 39 804 38 1195 -5 177 -20 513 -19 635 1 70 12 221
18 580 24 267 5 517 13 555 19 171 25 392 32 648 19 138 -7 495 -13 792 -13
l540 0 155 -33 c193 -40 333 -43 556 -11 169 24 458 27 864 9 349 -15 506 -13
655 11 72 11 204 23 295 26 150 5 180 3 324 -22 187 -32 257 -31 310 6 46 30
83 103 96 189 31 204 47 2349 20 2765 -10 147 -15 387 -15 665 0 239 7 581 15
760 18 389 19 988 1 1305 -18 346 -26 1496 -11 1815 21 474 23 888 6 1235 -24
491 -30 826 -17 1045 10 178 20 260 52 465 14 87 14 429 0 550 -6 50 -20 171
-32 270 -29 239 -29 420 0 595 41 251 26 380 -54 456 -72 70 -131 76 -425 44
-102 -11 -257 -24 -345 -29 -186 -11 -810 -6 -1169 9 -310 13 -1200 35 -1401
34 -82 0 -213 -7 -290 -17 -235 -27 -283 -29 -430 -13 -504 54 -793 62 -1105
32 -198 -20 -445 -18 -716 5 -206 18 -571 15 -809 -6 -293 -26 -638 -26 -810
0 -142 21 -377 24 -1050 15 -274 -4 -356 -2 -425 10 -107 19 -554 20 -645 1
-41 -8 -281 -15 -740 -21 -662 -9 -870 -5 -1030 21 -86 14 -380 20 -446 9z
m2771 -2910 l0 -240 -480 0 -480 0 0 -240 0 -240 240 0 240 0 -2 -242 -3 -243
-220 -2 c-121 -1 -228 -2 -237 -3 -17 0 -18 -29 -18 -475 l0 -475 -240 0 -240
0 0 1200 0 1200 720 0 720 0 0 -240z m6480 -245 l5 -480 235 0 235 0 3 483 2
482 238 -2 237 -3 0 -480 0 -480 -237 -3 -238 -2 0 -240 0 -240 240 0 240 0 0
-480 0 -480 -240 0 -240 0 0 480 0 480 -240 0 -240 0 0 -480 0 -480 -245 0
-245 0 0 1205 0 1205 243 -2 242 -3 5 -480z m-4670 -5 c0 -450 -1 -480 -17
-480 -10 -1 -116 0 -235 0 -136 0 -219 -3 -223 -9 -7 -12 -8 -461 -1 -469 3
-2 110 -5 238 -6 l233 -1 0 -480 0 -480 -240 0 -240 0 -3 478 -2 477 -240 0
-240 0 0 -480 0 -480 -237 2 -238 3 -3 1190 c-1 655 0 1196 3 1203 3 9 158 12
725 12 l720 0 0 -480z m1900 240 l0 -240 -477 -2 -478 -3 -3 -237 -2 -238 240
0 240 0 -2 -242 -3 -243 -237 -3 -238 -2 0 -235 0 -235 478 -2 477 -3 0 -240
0 -240 -720 0 -720 0 -3 1190 c-1 655 0 1196 3 1203 3 9 158 12 725 12 l720 0
0 -240z m1880 -965 l0 -1205 -240 0 -240 0 0 480 0 480 -240 0 -240 0 -2 -477
-3 -478 -237 -3 -238 -2 0 965 0 965 240 0 240 0 0 240 0 240 480 0 480 0 0
-1205z m-4050 -3020 l0 -225 -452 -2 -453 -3 0 -680 0 -680 225 0 225 0 3 453
2 452 225 0 225 0 -2 -682 -3 -683 -450 0 -450 0 -3 228 -2 227 -225 0 -225 0
0 910 0 910 680 0 680 0 0 -225z m1878 -232 c-3 -399 -5 -458 -18 -459 -8 -1
-108 -2 -222 -3 l-208 -1 0 -225 0 -225 -225 0 -225 0 0 -225 0 -225 448 -2
447 -3 3 -227 2 -228 -680 0 -680 0 0 455 0 455 225 0 225 0 2 228 3 227 225
5 225 5 0 220 0 220 -450 5 -450 5 -3 228 -2 227 680 0 680 0 -2 -457z m1462
222 l0 -225 225 0 225 0 0 225 0 225 225 0 225 0 2 -222 3 -223 225 -5 225 -5
3 -907 2 -908 -230 0 -230 0 0 910 0 910 -222 -2 -223 -3 -3 -907 -2 -908
-225 0 -225 0 -2 908 -3 907 -222 3 -223 2 0 -910 0 -910 -227 2 -228 3 -3
1133 -2 1132 455 0 455 0 0 -225z m2170 -4296 l0 -270 -52 3 c-33 2 -53 8 -54
16 -1 6 -2 102 -3 212 l-1 200 -50 0 -50 0 0 55 0 55 105 0 105 0 0 -271z
m428 53 l2 -213 -52 3 -52 3 0 45 -1 45 -52 3 -52 3 -3 52 -3 52 -53 3 -53 3
3 52 3 52 53 3 52 3 0 48 c0 26 3 51 7 55 4 4 50 5 103 4 l95 -3 3 -213z m432
3 l0 -215 -49 0 -50 0 -3 -52 -3 -53 -107 -3 -108 -3 0 56 0 55 105 0 105 0 0
49 0 50 -52 3 -53 3 -3 53 -3 52 -50 0 -49 0 0 55 0 55 50 0 50 0 0 48 c0 27
3 52 7 55 3 4 53 7 110 7 l103 0 0 -215z m210 99 l0 -105 53 3 52 3 3 103 3
102 49 0 50 0 0 -270 0 -270 -50 0 -49 0 -3 108 -3 107 -52 3 -52 3 -3 52 -3
52 -52 3 -53 3 0 98 c0 54 3 101 7 104 3 4 28 7 55 7 l48 0 0 -106z m-1544 47
c71 -32 124 -120 124 -203 0 -80 -67 -174 -146 -204 -89 -34 -202 -1 -256 75
-108 151 -7 351 176 351 38 0 77 -8 102 -19z m802 -413 l-3 -53 -107 -3 -108
-3 0 56 0 55 111 0 110 0 -3 -52z"/>
<path d="M4225 9357 c-3 -7 -4 -114 -3 -237 l3 -225 238 -3 237 -2 -2 237 -3
238 -233 3 c-183 2 -234 0 -237 -11z"/>
<path d="M8017 9364 c-4 -4 -7 -112 -7 -241 l0 -233 238 2 237 3 0 235 0 235
-231 3 c-127 1 -233 -1 -237 -4z"/>
<path d="M10650 1420 l0 -51 53 3 52 3 0 45 0 45 -52 3 -53 3 0 -51z"/>
<path d="M11079 1461 c-1 -12 -1 -32 -1 -46 0 -14 0 -29 1 -35 1 -5 24 -10 51
-10 l50 0 0 50 c0 33 -4 50 -12 50 -7 1 -30 3 -50 6 -33 5 -38 3 -39 -15z"/>
<path d="M9815 1511 c-45 -11 -69 -27 -103 -65 -130 -148 34 -376 216 -301 50
22 81 52 103 103 24 55 24 96 0 147 -42 90 -130 138 -216 116z m103 -87 c31
-22 13 -48 -24 -33 -39 14 -61 11 -84 -13 -27 -29 -26 -81 2 -108 24 -22 67
-27 85 -9 15 15 43 4 43 -15 0 -8 -14 -19 -31 -25 -121 -42 -212 71 -143 177
27 42 110 56 152 26z"/>
</g>
</svg>
