<svg xmlns="http://www.w3.org/2000/svg" xmlns:xlink="http://www.w3.org/1999/xlink" xmlns:inkscape="http://www.inkscape.org/namespaces/inkscape" version="1.1" width="623.627" height="623.627" viewBox="0 0 623.627 623.627">
<defs>
<clipPath id="clip_1">
<path transform="matrix(1,0,0,-1,0,623.627)" d="M0 623.627H623.627V0H0Z"/>
</clipPath>
</defs>
<g inkscape:groupmode="layer" inkscape:label="Capa 1">
<path transform="matrix(1,0,0,-1,105.7651,264.41954)" d="M0 0V-6.45L-19.436-16.075 0-25.886V-32.12L-32.12-16.075Z" fill="#231f20"/>
<path transform="matrix(1,0,0,-1,114.4839,296.5396)" d="M0 0-5.934 44.805H1.978L5.495 16.408H5.555L10.611 32.877H16.514L21.418 15.561H21.479L25.136 44.805H31.091L25.157 0H18.437L12.654 21.494H12.563L6.115 0Z" fill="#231f20"/>
<g clip-path="url(#clip_1)">
<path transform="matrix(1,0,0,-1,157.9868,276.6499)" d="M0 0H13.805C13.805 5.187 11.635 7.78 7.296 7.78 5.217 7.78 3.542 7.093 2.271 5.721 .999 4.348 .242 2.441 0 0M22.493-18.527C17.367-19.94 12.856-20.646 8.961-20.646 5.288-20.646 2.053-19.964-.742-18.601-3.537-17.238-5.691-15.218-7.205-12.541-8.719-9.865-9.476-6.86-9.476-3.527-9.476-.315-8.77 2.664-7.356 5.411-5.944 8.159-3.885 10.234-1.181 11.638 1.523 13.042 4.5 13.744 7.75 13.744 12.25 13.744 15.833 12.299 18.497 9.408 21.161 6.518 22.493 2.505 22.493-2.628V-5.964H.272C.535-8.608 1.675-10.596 3.693-11.928 5.711-13.26 8.174-13.926 11.08-13.926 14.45-13.926 18.255-13.149 22.493-11.595Z" fill="#231f20"/>
<path transform="matrix(1,0,0,-1,206.4546,286.9551)" d="M0 0V5.34H-3.239C-6.852 5.34-9.198 4.822-10.278 3.787-11.358 2.75-11.897 1.629-11.897 .422-11.897-.744-11.443-1.709-10.535-2.474-9.627-3.238-8.558-3.621-7.326-3.621-6.418-3.621-5.308-3.334-3.996-2.761-2.685-2.188-1.353-1.267 0 0M-.878-6.103C-1.907-7.506-3.159-8.563-4.632-9.274-6.105-9.986-7.801-10.341-9.718-10.341-12.766-10.341-15.364-9.403-17.513-7.526-19.663-5.649-20.737-3.157-20.737-.048-20.737 2.171-20.192 4.124-19.103 5.81-18.013 7.495-16.338 8.837-14.077 9.836-11.817 10.835-8.295 11.334-3.512 11.334H0V12.946C0 14.669-.59 15.957-1.771 16.808-2.952 17.66-4.733 18.085-7.114 18.085-10.344 18.085-13.946 17.143-17.922 15.257V21.806C-15.5 22.695-13.214 23.291-11.065 23.594-8.916 23.897-7.054 24.049-5.479 24.049-2.654 24.049-.202 23.716 1.877 23.049 3.956 22.382 5.656 21.241 6.978 19.624 8.3 18.008 8.961 15.139 8.961 11.018V-.135C8.961-1.368 9.037-2.156 9.188-2.5 9.339-2.843 9.566-3.106 9.869-3.288 10.172-3.469 10.545-3.56 10.989-3.56 11.271-3.56 11.625-3.51 12.049-3.409V-9.373C10.212-10.018 8.567-10.341 7.114-10.341 6.085-10.341 5.136-10.199 4.269-9.915 3.4-9.629 2.628-9.239 1.953-8.741 1.276-8.243 .625-7.364 0-6.103Z" fill="#231f20"/>
<path transform="matrix(1,0,0,-1,227.1919,296.5396)" d="M0 0V32.877H8.961L8.598 26.55H8.961C10.131 28.467 11.297 29.885 12.458 30.803 13.618 31.721 14.884 32.423 16.257 32.907 17.629 33.392 19.224 33.634 21.04 33.634 22.775 33.634 24.854 33.391 27.276 32.906V19.436H21.282V25.671C20.556 25.712 20.021 25.732 19.678 25.732 18.305 25.732 16.999 25.5 15.757 25.035 14.516 24.571 13.345 23.898 12.246 23.02 11.146 22.141 10.051 20.842 8.961 19.125V0Z" fill="#231f20"/>
<path transform="matrix(1,0,0,-1,272.0269,296.5396)" d="M0 0V38.811H-13.441V44.805H22.433V38.811H8.991V0Z" fill="#231f20"/>
<path transform="matrix(1,0,0,-1,313.8501,291.3326)" d="M0 0C2.285 0 4.104 .88 5.46 2.641 6.814 4.401 7.492 7.265 7.492 11.231 7.492 15.198 6.81 18.062 5.444 19.822 4.079 21.583 2.265 22.463 0 22.463-2.266 22.463-4.076 21.583-5.431 19.822-6.786 18.062-7.463 15.198-7.463 11.231-7.463 7.265-6.786 4.401-5.431 2.641-4.076 .88-2.266 0 0 0M0-5.964C-4.687-5.964-8.722-4.504-12.105-1.585-15.489 1.333-17.181 5.61-17.181 11.247-17.181 16.842-15.494 21.104-12.121 24.033-8.747 26.962-4.707 28.427 0 28.427 4.726 28.427 8.776 26.962 12.149 24.033 15.523 21.104 17.21 16.842 17.21 11.247 17.21 5.61 15.518 1.333 12.135-1.585 8.751-4.504 4.706-5.964 0-5.964" fill="#231f20"/>
<path transform="matrix(1,0,0,-1,368.4478,295.17784)" d="M0 0C-4.723-1.655-9.193-2.482-13.411-2.482-17.609-2.482-21.343-1.494-24.612 .481-27.882 2.457-30.375 5.248-32.09 8.856-33.806 12.464-34.663 16.545-34.663 21.101-34.663 25.435-33.866 29.37-32.271 32.907-30.678 36.444-28.326 39.272-25.218 41.388-22.11 43.504-17.619 44.563-11.746 44.563-7.589 44.563-3.674 44.101 0 43.176V35.938C-4.683 37.712-8.558 38.599-11.625 38.599-14.107 38.599-16.403 37.928-18.512 36.587-20.621 35.247-22.226 33.114-23.326 30.19-24.426 27.267-24.976 24.151-24.976 20.844-24.976 15.863-23.694 11.795-21.131 8.639-18.568 5.483-15.339 3.906-11.443 3.906-8.033 3.906-4.219 4.894 0 6.87Z" fill="#231f20"/>
<path transform="matrix(1,0,0,-1,388.5649,291.3326)" d="M0 0C2.285 0 4.104 .88 5.46 2.641 6.814 4.401 7.492 7.265 7.492 11.231 7.492 15.198 6.81 18.062 5.444 19.822 4.079 21.583 2.265 22.463 0 22.463-2.266 22.463-4.076 21.583-5.431 19.822-6.785 18.062-7.463 15.198-7.463 11.231-7.463 7.265-6.785 4.401-5.431 2.641-4.076 .88-2.266 0 0 0M0-5.964C-4.687-5.964-8.722-4.504-12.105-1.585-15.489 1.333-17.181 5.61-17.181 11.247-17.181 16.842-15.494 21.104-12.121 24.033-8.747 26.962-4.707 28.427 0 28.427 4.726 28.427 8.776 26.962 12.149 24.033 15.523 21.104 17.21 16.842 17.21 11.247 17.21 5.61 15.518 1.333 12.135-1.585 8.751-4.504 4.706-5.964 0-5.964" fill="#231f20"/>
<path transform="matrix(1,0,0,-1,432.6577,272.9917)" d="M0 0C-.787 .869-1.771 1.607-2.952 2.213-4.132 2.82-5.288 3.123-6.418 3.123-7.75 3.123-8.921 2.749-9.93 2.001-10.939 1.253-11.706 .015-12.23-1.713-12.756-3.442-13.018-5.428-13.018-7.671-13.018-10.583-12.503-12.695-11.474-14.009-10.444-15.323-9.042-15.979-7.266-15.979-5.975-15.979-4.753-15.58-3.603-14.782-2.452-13.983-1.252-12.624 0-10.704ZM0-23.548 .363-17.342H0C-1.231-19.36-2.372-20.808-3.421-21.686-4.471-22.564-5.54-23.22-6.63-23.654-7.72-24.087-8.941-24.305-10.293-24.305-14.007-24.305-17.009-22.81-19.3-19.82-21.59-16.831-22.735-12.841-22.735-7.852-22.735-2.458-21.484 1.879-18.981 5.162-16.479 8.444-13.078 10.086-8.779 10.086-7.023 10.086-5.414 9.763-3.95 9.117-2.487 8.471-1.171 7.502 0 6.211H.363L0 9.354V24.254H8.961V-23.548Z" fill="#231f20"/>
<path transform="matrix(1,0,0,-1,456.8462,276.6499)" d="M0 0H13.805C13.805 5.187 11.635 7.78 7.296 7.78 5.217 7.78 3.542 7.093 2.271 5.721 .999 4.348 .242 2.441 0 0M22.493-18.527C17.366-19.94 12.855-20.646 8.961-20.646 5.287-20.646 2.054-19.964-.742-18.601-3.537-17.238-5.691-15.218-7.205-12.541-8.719-9.865-9.476-6.86-9.476-3.527-9.476-.315-8.77 2.664-7.356 5.411-5.944 8.159-3.886 10.234-1.181 11.638 1.523 13.042 4.5 13.744 7.75 13.744 12.25 13.744 15.833 12.299 18.497 9.408 21.161 6.518 22.493 2.505 22.493-2.628V-5.964H.272C.534-8.608 1.675-10.596 3.693-11.928 5.711-13.26 8.174-13.926 11.08-13.926 14.45-13.926 18.255-13.149 22.493-11.595Z" fill="#231f20"/>
<path transform="matrix(1,0,0,-1,482.229,305.50053)" d="M0 0 29.218 56.763H36.844L7.559 0Z" fill="#231f20"/>
<path transform="matrix(1,0,0,-1,521.9341,296.5396)" d="M0 0V6.437L19.436 16.045 0 25.907V32.12L32.12 16.045Z" fill="#231f20"/>
</g>
</g>
</svg>
